SplineFontDB: 3.2
FontName: ARCORegular
FullName: ARCO Regular
FamilyName: ARCO
Weight: Regular
Copyright: (c) 2019, Rafael Olivo Di'az, Denis Ignatov
Version: 
ItalicAngle: 0
UnderlinePosition: 0
UnderlineWidth: 0
Ascent: 1638
Descent: 1
InvalidEm: 0
sfntRevision: 0x00010000
LayerCount: 2
Layer: 0 0 "Back" 1
Layer: 1 0 "Fore" 0
XUID: [1021 683 -2137286208 20858]
StyleMap: 0x0020
FSType: 0
OS2Version: 3
OS2_WeightWidthSlopeOnly: 0
OS2_UseTypoMetrics: 0
CreationTime: 1740875888
ModificationTime: 1740881534
PfmFamily: 17
TTFWeight: 700
TTFWidth: 5
LineGap: 0
VLineGap: 0
Panose: 2 0 8 0 0 0 0 0 0 0
OS2TypoAscent: 1148
OS2TypoAOffset: 0
OS2TypoDescent: 0
OS2TypoDOffset: 0
OS2TypoLinegap: 0
OS2WinAscent: 1725
OS2WinAOffset: 0
OS2WinDescent: 106
OS2WinDOffset: 0
HheadAscent: 1148
HheadAOffset: 0
HheadDescent: 0
HheadDOffset: 0
OS2SubXSize: 520
OS2SubYSize: 559
OS2SubXOff: 0
OS2SubYOff: 112
OS2SupXSize: 520
OS2SupYSize: 559
OS2SupXOff: 0
OS2SupYOff: 383
OS2StrikeYSize: 39
OS2StrikeYPos: 206
OS2CapHeight: 1235
OS2XHeight: 1245
OS2Vendor: 'XXXX'
OS2CodePages: 00000001.00000000
OS2UnicodeRanges: 00000223.0000000a.00000000.00000000
MarkAttachClasses: 1
DEI: 91125
LangName: 1033 "+AKkA 2019, Rafael Olivo D+AO0A-az, Denis Ignatov" "" "" "Rafael Olivo D+AO0A-az: ARCO Regular" "" "" "" " " "Rafael Olivo D+AO0A-az" "Rafael Olivo D+AO0A-az, Denis Ignatov" " " "https://www.behance.net/rafaelolivod" "https://www.behance.net/rafaelolivod, https://mutno.me/fonts" "SIL Open Font License (OFL)" "https://scripts.sil.org/OFL" "" "ARCO" "Regular"
Encoding: UnicodeBmp
Compacted: 1
UnicodeInterp: none
NameList: AGL For New Fonts
DisplaySize: -48
AntiAlias: 1
FitToEm: 0
WidthSeparation: 246
WinInfo: 0 30 12
BeginPrivate: 0
EndPrivate
BeginChars: 65538 95

StartChar: exclam
Encoding: 33 33 0
Width: 595
GlyphClass: 1
Flags: W
HStem: -0.40918 380.279<193.626 415.625>
VStem: 84.375 427.254<533.706 1212.46> 110.964 385.164<82.7969 299.075>
LayerCount: 2
Fore
SplineSet
324.375 423 m 0xc0
 311.067382812 422.512695312 298.418945312 422.263671875 286.424804688 422.263671875 c 0
 224.506835938 422.263671875 180.01953125 428.920898438 152.375 444 c 0
 138.375 452 126.375 489 116.375 557 c 0
 106.375 624 98.375 700 92.375 783 c 0
 86.375 865 85.375 945 84.375 1022 c 0
 84.125 1041.25 84 1058.875 84 1074.890625 c 0
 84 1122.9375 85.125 1156.5 87.375 1176 c 0
 89.375 1198 113.375 1214 155.375 1225 c 0
 197.375 1236 243.375 1243 293.375 1244 c 0
 300.750976562 1244.29492188 308.083007812 1244.4375 315.359375 1244.4375 c 0
 357.40625 1244.4375 397.5703125 1239.671875 433.375 1232 c 0
 475.375 1224 498.375 1211 500.375 1193 c 0
 506.375 1143 510.375 1078 511.375 999 c 0
 511.545898438 985.4453125 511.62890625 971.891601562 511.62890625 958.34765625 c 0
 511.62890625 892.950195312 509.688476562 827.7890625 506.375 764 c 0
 502.375 687 496.375 619 489.375 560 c 0
 481.375 500 472.375 465 462.375 455 c 1
 452.375 436 406.375 425 324.375 423 c 0xc0
164.375 59 m 0
 134.375 89 117.375 126 112.375 169 c 0
 111.434570312 177.190429688 110.963867188 185.236328125 110.963867188 193.135742188 c 0
 110.963867188 244.0703125 130.55078125 288.908203125 170.375 327 c 0
 207.592773438 362.600585938 249.393554688 379.870117188 296.306640625 379.870117188 c 0
 307.375976562 379.870117188 318.729492188 378.909179688 330.375 377 c 0
 397.375 366 444.375 339 469.375 295 c 0
 487.462890625 263.165039062 496.127929688 229.758789062 496.127929688 196.297851562 c 0xa0
 496.127929688 183.51171875 494.862304688 170.717773438 492.375 158 c 0
 483.375 112 459.375 72 421.375 39 c 0
 391.23828125 12.7275390625 354.533203125 -0.4091796875 311.72265625 -0.4091796875 c 0
 299.130859375 -0.4091796875 286.010742188 0.7275390625 272.375 3 c 0
 230.375 10 194.375 29 164.375 59 c 0
EndSplineSet
Validated: 524289
EndChar

StartChar: quotedbl
Encoding: 34 34 1
Width: 781
GlyphClass: 1
Flags: W
HStem: 809.516 431.681<134.969 349.375 443.528 659.005>
VStem: 84 293.748<883.2 1199.38> 406.334 291.375<850.834 1195.07>
LayerCount: 2
Fore
SplineSet
100.333984375 980 m 0
 89.4443359375 1050.77734375 84 1110.06152344 84 1157.8515625 c 0
 84 1171.50585938 84.4443359375 1184.22265625 85.333984375 1196 c 0
 86.333984375 1205 100.333984375 1215 128.333984375 1224 c 0
 156.333984375 1233 188.333984375 1238 222.333984375 1240 c 0
 234.778320312 1240.73242188 247.223632812 1241.19628906 259.471679688 1241.19628906 c 0
 280.6875 1241.19628906 301.314453125 1239.80371094 320.333984375 1236 c 0
 350.333984375 1230 367.333984375 1218 372.333984375 1200 c 0
 373.333984375 1187 374.333984375 1161 376.333984375 1122 c 0
 377.041015625 1094.42285156 377.748046875 1065.34570312 377.748046875 1035.82910156 c 0
 377.748046875 1023.60351562 377.626953125 1011.30175781 377.333984375 999 c 0
 376.333984375 957 374.333984375 917 370.333984375 883 c 0
 366.333984375 848 359.333984375 828 350.333984375 824 c 0
 329.981445312 814.201171875 303.37890625 809.515625 270.526367188 809.515625 c 0
 259.795898438 809.515625 248.3984375 810.015625 236.333984375 811 c 0
 187.333984375 815 158.333984375 821 149.333984375 828 c 0
 130.333984375 838 114.333984375 888 100.333984375 980 c 0
558.333984375 815 m 0
 552.208984375 814.875 546.255859375 814.8125 540.470703125 814.8125 c 0
 499.974609375 814.8125 467.708984375 817.875 442.333984375 824 c 0
 432.333984375 826 425.333984375 845 420.333984375 879 c 0
 414.333984375 913 411.333984375 951 409.333984375 994 c 0
 407.333984375 1036 406.333984375 1078 406.333984375 1118 c 0
 406.333984375 1144.66699219 405.889648438 1165.55566406 405.889648438 1180.96289062 c 0
 405.889648438 1188.66699219 406 1195 406.333984375 1200 c 0
 410.333984375 1218 428.333984375 1230 458.333984375 1236 c 0
 477.352539062 1239.80371094 497.17578125 1241.19628906 517.802734375 1241.19628906 c 0
 529.711914062 1241.19628906 541.888671875 1240.73242188 554.333984375 1240 c 0
 588.333984375 1238 621.333984375 1233 650.333984375 1224 c 0
 678.333984375 1215 692.333984375 1205 694.333984375 1196 c 0
 696.583984375 1176.125 697.708984375 1153.578125 697.708984375 1128.359375 c 0
 697.708984375 1086.328125 694.583984375 1036.875 688.333984375 980 c 0
 678.333984375 888 663.333984375 838 645.333984375 828 c 0
 636.333984375 821 607.333984375 816 558.333984375 815 c 0
EndSplineSet
Validated: 524289
EndChar

StartChar: numbersign
Encoding: 35 35 2
Width: 1374
GlyphClass: 1
Flags: W
HStem: 0 21G<396.5 430 957 989> 0 21G<396.5 430 957 989> 162 353<607.223 791.667 1131 1258.75> 181 312<108.397 251> 694 354<158.13 247 607 781> 706 318<1134 1266.81>
VStem: 249 348<515 694 1048 1131.33> 792 339<516 695 1044 1180.38>
LayerCount: 2
Fore
SplineSet
1210 705 m 0x07
 1200 706 1189 706 1176 706 c 0
 1163 706 1149 706 1134 705 c 1
 1133 678 1133 646 1132 609 c 0
 1131 572 1132 541 1131 514 c 1
 1167 512 1199 511 1229 511 c 0
 1247 510 1262 493 1272 459 c 0
 1282 425 1287 386 1287 344 c 0
 1287 302 1281 263 1271 227 c 0
 1260 190 1243 170 1218 166 c 0
 1207 164 1192 163 1174 163 c 0
 1156 162 1134 162 1111 162 c 1
 1102 75 1091 28 1080 22 c 0
 1054 7 1015 0 963 0 c 0
 951 0 939 0 926 1 c 0
 855 5 815 17 807 39 c 0
 800 50 794 92 789 162 c 1
 772 162 752 162 731 162 c 0
 720 162 709 162 698 162 c 0xa7
 664 162 632 163 606 165 c 1
 600 93 595 50 588 39 c 0
 579 17 536 5 462 1 c 0
 449 0 436 0 424 0 c 0
 369 0 328 7 302 22 c 0
 289 29 279 83 269 182 c 1
 253 182 238 181 224 181 c 0
 154 181 116 188 108 200 c 0
 93 225 86 266 86 323 c 0
 86 335 86 349 87 363 c 0
 91 440 103 483 124 493 c 0
 131 496 146 498 168 499 c 0
 190 500 217 502 251 504 c 1
 250 531 250 563 249 601 c 0
 248 638 247 671 247 698 c 1
 205 698 168 698 138 700 c 0
 120 700 106 718 97 752 c 0
 89 783 84 818 84 855 c 0
 84 859 84 862 84 866 c 0
 85 908 91 947 103 983 c 0
 115 1019 132 1039 157 1044 c 0
 181 1046 212 1046 248 1048 c 1
 249 1090 250 1118 252 1132 c 0
 256 1156 276 1174 314 1186 c 0
 352 1198 392 1204 434 1205 c 0
 438 1205 442 1205 447 1205 c 0
 484 1205 520 1201 551 1192 c 0
 586 1182 604 1169 605 1151 c 0
 606 1135 605 1119 606 1102 c 0
 606 1084 606 1066 607 1048 c 1x9b
 631 1046 660 1046 694 1046 c 0
 728 1045 757 1044 781 1044 c 1
 782 1086 782 1121 783 1151 c 0
 783 1169 801 1183 835 1193 c 0
 869 1203 908 1209 950 1209 c 0
 992 1209 1031 1203 1068 1192 c 0
 1104 1181 1125 1163 1130 1139 c 1
 1132 1111 1133 1073 1134 1024 c 1
 1172 1019 1203 1016 1227 1016 c 0
 1250 1016 1263 1014 1267 1008 c 0
 1282 982 1290 940 1290 884 c 0
 1290 870 1289 856 1288 840 c 0
 1283 760 1271 717 1250 709 c 0
 1246 706 1238 704 1227 704 c 0
 1222 704 1216 704 1210 705 c 0x07
792 604 m 0
 791 638 791 669 791 695 c 1
 768 694 736 694 694 694 c 0
 652 694 620 694 597 694 c 1x2b
 597 668 597 637 597 603 c 0
 596 569 596 539 596 515 c 1
 619 515 652 515 694 515 c 0
 736 515 768 516 792 516 c 1
 792 540 792 570 792 604 c 0
EndSplineSet
Validated: 33
EndChar

StartChar: dollar
Encoding: 36 36 3
Width: 935
GlyphClass: 1
Flags: W
HStem: -0.5625 21G<425.223 456.848> 1211.46 20G<477.137 509.194>
LayerCount: 2
Fore
SplineSet
443.525390625 1230 m 0
 457.583007812 1230.9765625 470.877929688 1231.45703125 483.395507812 1231.45703125 c 0
 534.9921875 1231.45703125 573.3828125 1223.29003906 597.525390625 1208 c 0
 607.525390625 1200 616.525390625 1161 624.525390625 1091 c 1
 639.525390625 1082 656.525390625 1072 674.525390625 1060 c 0
 727.525390625 1019 761.525390625 970 779.525390625 912 c 0
 779.525390625 910 779.525390625 909 780.525390625 907 c 0
 780.525390625 905 780.525390625 904 781.525390625 902 c 0
 781.525390625 882 769.525390625 862 746.525390625 844 c 0
 721.525390625 823 690.525390625 809 652.525390625 799 c 0
 618.525390625 789 580.525390625 783 542.525390625 782 c 0
 534.525390625 780 526.525390625 783 518.525390625 789 c 0
 511.525390625 795 507.525390625 802 506.525390625 811 c 0
 504.525390625 819 498.525390625 827 492.525390625 833 c 0
 486.525390625 838 477.525390625 841 466.525390625 843 c 0
 465.612304688 843.045898438 464.69921875 843.068359375 463.787109375 843.068359375 c 0
 444.697265625 843.068359375 425.56640625 833.1328125 405.525390625 815 c 0
 399.1328125 809.478515625 395.948242188 804.295898438 395.948242188 799.450195312 c 0
 395.948242188 787.620117188 414.926757812 777.803710938 452.525390625 770 c 0
 462.525390625 767 477.525390625 764 497.525390625 762 c 0
 594.525390625 744 670.525390625 713 727.525390625 671 c 0
 810.096679688 607.857421875 851.3828125 532.91796875 851.3828125 444.061523438 c 0
 851.3828125 423.154296875 849.096679688 401.4765625 844.525390625 379 c 0
 819.525390625 261 748.525390625 178 629.525390625 130 c 1
 623.525390625 83 619.525390625 53 613.525390625 41 c 0
 604.525390625 19 564.525390625 5 492.525390625 1 c 0
 477.525390625 -0.0419921875 463.436523438 -0.5625 450.259765625 -0.5625 c 0
 400.186523438 -0.5625 363.275390625 6.9580078125 339.525390625 22 c 0
 329.525390625 28 320.525390625 61 313.525390625 123 c 1
 258.525390625 142 210.525390625 174 168.525390625 217 c 0
 126.525390625 260 99.525390625 310 85.525390625 368 c 0
 84.5107421875 373.36328125 84 378.538085938 84 383.529296875 c 0
 84 412.970703125 101.758789062 436.043945312 138.525390625 454 c 0
 155.525390625 462 175.525390625 468 199.525390625 473 c 0
 222.525390625 477 246.525390625 479 268.525390625 479 c 0
 302.525390625 479 334.525390625 475 362.525390625 467 c 0
 390.525390625 459 406.525390625 447 410.525390625 431 c 0
 411.525390625 426 412.525390625 424 413.525390625 422 c 0
 418.525390625 410 426.525390625 402 439.525390625 397 c 0
 451.525390625 391 464.525390625 391 478.525390625 395 c 0
 484.525390625 396 489.525390625 397 491.525390625 399 c 0
 494.525390625 401 497.525390625 402 497.525390625 402 c 2
 504.525390625 406 510.525390625 412 514.525390625 420 c 0
 516.525390625 428 516.525390625 436 513.525390625 444 c 1
 511.525390625 446 l 1
 511.525390625 446 510.525390625 447 510.525390625 449 c 0
 505.525390625 455 493.525390625 462 474.525390625 468 c 0
 464.525390625 470 440.525390625 476 403.525390625 484 c 0
 367.525390625 490 330.525390625 500 292.525390625 511 c 0
 253.525390625 522 218.525390625 539 187.525390625 563 c 0
 155.525390625 587 131.525390625 619 113.525390625 661 c 0
 99.755859375 692.364257812 92.4228515625 731.3359375 92.4228515625 778.36328125 c 0
 92.4228515625 792.810546875 93.115234375 808.018554688 94.525390625 824 c 0
 101.525390625 915 143.525390625 991 221.525390625 1051 c 0
 244.525390625 1069 273.525390625 1086 307.525390625 1100 c 1
 312.525390625 1148 317.525390625 1178 323.525390625 1190 c 0
 331.525390625 1212 371.525390625 1225 443.525390625 1230 c 0
EndSplineSet
Validated: 524289
EndChar

StartChar: percent
Encoding: 37 37 4
Width: 1255
GlyphClass: 1
Flags: W
HStem: 0.0771484 376.836<845.805 1068.35> 663.963 377.95<180.804 401.07>
VStem: 98.915 383.382<746.182 961.121> 764.915 382.382<80.0515 296.907>
LayerCount: 2
Fore
SplineSet
197.711914062 81 m 0
 134.711914062 135 97.7119140625 183 84.7119140625 225 c 0
 84.2373046875 226.423828125 84 228.036132812 84 229.834960938 c 0
 84 250.782226562 116.091796875 297.170898438 178.711914062 369 c 0
 246.711914062 447 326.711914062 532 416.711914062 623 c 0
 506.711914062 713 595.711914062 799 682.711914062 880 c 0
 769.711914062 961 828.711914062 1013 860.711914062 1036 c 0
 873.211914062 1045.13476562 887.561523438 1049.64648438 903.649414062 1049.64648438 c 0
 921.022460938 1049.64648438 940.423828125 1044.38476562 961.711914062 1034 c 0
 1002.71191406 1013 1040.71191406 984 1075.71191406 948 c 0
 1109.71191406 912 1137.71191406 874 1156.71191406 833 c 0
 1166.20996094 811.364257812 1171.25390625 793.0703125 1171.25390625 777.677734375 c 0
 1171.25390625 763.900390625 1167.21386719 752.446289062 1158.71191406 743 c 0
 1108.71191406 685 1040.71191406 614 954.711914062 532 c 0
 868.711914062 449 782.711914062 369 696.711914062 292 c 0
 610.711914062 215 532.711914062 149 462.711914062 94 c 0
 392.711914062 39 346.711914062 9 327.711914062 7 c 0
 325.482421875 6.41796875 323.055664062 6.1279296875 320.43359375 6.1279296875 c 0
 296.00390625 6.1279296875 254.60546875 31.3310546875 197.711914062 81 c 0
402.711914062 700 m 0
 370.162109375 675.974609375 334.0078125 663.962890625 294.715820312 663.962890625 c 0
 283.30859375 663.962890625 271.63671875 664.974609375 259.711914062 667 c 0
 208.711914062 676 167.711914062 701 136.711914062 742 c 0
 112.17578125 774.451171875 98.9150390625 810.03515625 98.9150390625 849.248046875 c 0
 98.9150390625 859.577148438 99.8349609375 870.158203125 101.711914062 881 c 0
 109.711914062 932 135.711914062 974 177.711914062 1005 c 0
 210.618164062 1029.28808594 245.979492188 1041.91308594 284.758789062 1041.91308594 c 0
 295.475585938 1041.91308594 306.453125 1040.94824219 317.711914062 1039 c 0
 372.711914062 1029 415.711914062 1006 446.711914062 968 c 0
 470.2890625 939.099609375 482.296875 904.415039062 482.296875 864.385742188 c 0
 482.296875 851.782226562 481.106445312 838.649414062 478.711914062 825 c 0
 469.711914062 772 444.711914062 730 402.711914062 700 c 0
1068.71191406 36 m 0
 1035.85449219 12.5302734375 999.935546875 0.0771484375 960.478515625 0.0771484375 c 0
 949.500976562 0.0771484375 938.248046875 1.041015625 926.711914062 3 c 0
 875.711914062 11 833.711914062 36 802.711914062 77 c 0
 778.17578125 109.451171875 764.915039062 145.03515625 764.915039062 184.248046875 c 0
 764.915039062 194.577148438 765.834960938 205.158203125 767.711914062 216 c 0
 775.711914062 267 800.711914062 309 842.711914062 340 c 0
 875.618164062 364.288085938 911.59375 376.913085938 950.638671875 376.913085938 c 0
 961.428710938 376.913085938 972.453125 375.948242188 983.711914062 374 c 0
 1038.71191406 364 1080.71191406 341 1111.71191406 303 c 0
 1135.2890625 274.099609375 1147.296875 239.415039062 1147.296875 199.385742188 c 0
 1147.296875 186.782226562 1146.10644531 173.649414062 1143.71191406 160 c 0
 1134.71191406 107 1110.71191406 66 1068.71191406 36 c 0
EndSplineSet
Validated: 524289
EndChar

StartChar: ampersand
Encoding: 38 38 5
Width: 1214
GlyphClass: 1
Flags: W
HStem: 1.75 284.45<442.347 594.071> 461.217 328.326<449.469 582.033> 930.411 298.002<453.846 581.895>
VStem: 84 336.988<307.835 437.562> 98.9863 344.995<799.132 922.992> 592.108 310.493<799.465 899.34>
LayerCount: 2
Fore
SplineSet
572.692382812 813 m 0xec
 585.899414062 826.20703125 592.108398438 841.567382812 592.108398438 859.081054688 c 0
 592.108398438 865.436523438 591.290039062 872.077148438 589.692382812 879 c 0
 582.692382812 906 562.692382812 923 528.692382812 929 c 0
 522.381835938 929.939453125 516.395507812 930.411132812 510.744140625 930.411132812 c 0
 474.301757812 930.411132812 451.752929688 910.823242188 445.692382812 871 c 0
 444.552734375 864.4453125 443.981445312 858.276367188 443.981445312 852.49609375 c 0
 443.981445312 817.7109375 464.674804688 797.002929688 506.692382812 791 c 0
 511.768554688 790.0234375 516.692382812 789.54296875 521.463867188 789.54296875 c 0
 541.130859375 789.54296875 558.20703125 797.709960938 572.692382812 813 c 0xec
589.692382812 315 m 0
 607.326171875 332.633789062 616.142578125 353.205078125 616.142578125 375.815429688 c 0
 616.142578125 382.696289062 615.326171875 389.766601562 613.692382812 397 c 0
 603.692382812 432 576.692382812 453 532.692382812 460 c 0
 527.383789062 460.81640625 522.159179688 461.216796875 517.026367188 461.216796875 c 0
 497.017578125 461.216796875 478.405273438 455.141601562 461.692382812 444 c 0
 439.692382812 430 426.692382812 410 422.692382812 387 c 0
 421.556640625 381.318359375 420.98828125 375.842773438 420.98828125 370.55078125 c 0xf4
 420.98828125 352.557617188 427.556640625 336.681640625 440.692382812 322 c 0
 456.692382812 303 476.692382812 291 502.692382812 288 c 0
 509.4921875 286.799804688 516.1328125 286.200195312 522.588867188 286.200195312 c 0
 548.412109375 286.200195312 571.29296875 295.799804688 589.692382812 315 c 0
848.692382812 564 m 0
 853.692382812 570 856.692382812 576 858.692382812 578 c 0
 862.903320312 581.158203125 868.344726562 582.715820312 874.931640625 582.715820312 c 0
 887.116210938 582.715820312 903.21875 577.385742188 922.692382812 567 c 0
 952.692382812 550 983.692382812 529 1014.69238281 503 c 0
 1044.69238281 477 1072.69238281 451 1094.69238281 424 c 0
 1113.51660156 400.897460938 1123.55566406 383.651367188 1123.55566406 372.263671875 c 0
 1123.55566406 370.341796875 1123.26953125 368.587890625 1122.69238281 367 c 0
 1120.69238281 359 1110.69238281 346 1094.69238281 327 c 1
 1118.73144531 298.154296875 1130.75 277.62890625 1130.75 267.202148438 c 0
 1130.75 221.28515625 1075.25683594 158.938476562 1037.69238281 122 c 0
 978.791992188 65.03125 937.606445312 37.896484375 913.235351562 37.896484375 c 0
 912.366210938 37.896484375 911.518554688 37.931640625 910.692382812 38 c 0
 896.692382812 38 867.692382812 53 825.692382812 82 c 0
 822.692382812 80 819.692382812 77 813.692382812 74 c 0
 728.692382812 25.8330078125 632.989257812 1.75 524.896484375 1.75 c 0
 518.538085938 1.75 512.13671875 1.8330078125 505.692382812 2 c 0
 389.692382812 5 291.692382812 40 212.692382812 106 c 0
 132.692382812 172 90.6923828125 254 84.6923828125 353 c 0
 84.23046875 360.623046875 84 368.186523438 84 375.69140625 c 0xf4
 84 465.65234375 117.159179688 547.16015625 182.692382812 621 c 1
 130.692382812 680 103.692382812 743 99.6923828125 812 c 0
 99.2216796875 820.1171875 98.986328125 828.166015625 98.986328125 836.145507812 c 0xec
 98.986328125 895.989257812 112.221679688 951.94140625 138.692382812 1004 c 0
 168.692382812 1063 211.692382812 1114 268.692382812 1156 c 0
 325.692382812 1198 390.692382812 1221 461.692382812 1227 c 0
 474.884765625 1227.94238281 487.805664062 1228.41308594 500.4609375 1228.41308594 c 0
 581.821289062 1228.41308594 652.25 1208.94238281 713.692382812 1170 c 0
 783.692382812 1124 835.692382812 1068 867.692382812 999 c 0
 890.96484375 948.818359375 902.6015625 897.049804688 902.6015625 842.924804688 c 0
 902.6015625 822.627929688 900.96484375 802 897.692382812 781 c 0
 885.692382812 704 845.692382812 638 778.692382812 584 c 1
 786.692382812 576 794.692382812 569 803.692382812 562 c 0
 811.692382812 554 819.692382812 546 828.692382812 540 c 1
 836.692382812 550 842.692382812 558 848.692382812 564 c 0
EndSplineSet
Validated: 524289
EndChar

StartChar: quotesingle
Encoding: 39 39 6
Width: 470
GlyphClass: 1
Flags: W
HStem: 802.49 427.476<126.434 343.975>
VStem: 84 302.195<854.848 1185.3>
LayerCount: 2
Fore
SplineSet
97.10546875 969 m 0
 88.4912109375 1034.31933594 84 1090.36523438 84 1136.39648438 c 0
 84 1154.49414062 84.6943359375 1171.04296875 86.10546875 1186 c 0
 87.10546875 1195 101.10546875 1203 130.10546875 1212 c 0
 158.10546875 1220 191.10546875 1226 225.10546875 1229 c 0
 235.870117188 1229.6328125 246.53515625 1229.96582031 257.037109375 1229.96582031 c 0
 279.702148438 1229.96582031 301.603515625 1228.41699219 322.10546875 1225 c 0
 352.10546875 1219 370.10546875 1207 374.10546875 1189 c 0
 379.10546875 1175 382.10546875 1148 384.10546875 1109 c 0
 385.340820312 1084.27832031 386.1953125 1059.17578125 386.1953125 1033.45410156 c 0
 386.1953125 1017.55761719 385.869140625 1001.42480469 385.10546875 985 c 0
 383.10546875 943 379.10546875 903 373.10546875 869 c 0
 367.10546875 835 357.10546875 816 345.10546875 813 c 0
 321.081054688 806.373046875 290.879882812 802.490234375 253.365234375 802.490234375 c 0
 245.595703125 802.490234375 237.512695312 802.657226562 229.10546875 803 c 0
 180.10546875 804 152.10546875 808 143.10546875 816 c 1
 124.10546875 826 109.10546875 877 97.10546875 969 c 0
EndSplineSet
Validated: 524289
EndChar

StartChar: parenleft
Encoding: 40 40 7
Width: 671
GlyphClass: 1
Flags: W
VStem: 84 339.919<401.391 807.903>
LayerCount: 2
Fore
SplineSet
174.13671875 125 m 0
 116.13671875 243 86.13671875 380 84.13671875 534 c 0
 84.0458984375 541 84 547.97265625 84 554.918945312 c 0
 84 700.787109375 104.045898438 834.727539062 144.13671875 955 c 0
 161.13671875 1005 183.13671875 1053 209.13671875 1101 c 0
 235.13671875 1149 266.13671875 1191 303.13671875 1226 c 0
 339.853515625 1261.04785156 381.444335938 1277.99121094 429.073242188 1277.99121094 c 0
 438.520507812 1277.99121094 448.205078125 1277.32421875 458.13671875 1276 c 0
 501.13671875 1270 536.13671875 1247 561.13671875 1205 c 0
 574.611328125 1182.36230469 581.114257812 1160.015625 581.114257812 1137.64550781 c 0
 581.114257812 1118.51269531 576.356445312 1099.36230469 567.13671875 1080 c 0
 470.935546875 881.891601562 423.918945312 720.338867188 423.918945312 596.967773438 c 0
 423.918945312 569.01171875 426.333007812 543.015625 431.13671875 519 c 0
 457.13671875 389 491.13671875 285 532.13671875 206 c 0
 558.13671875 155 575.13671875 105 585.13671875 57 c 0
 586.703125 49.4814453125 587.484375 42.134765625 587.484375 34.9599609375 c 0
 587.484375 -3.671875 564.834960938 -37.3251953125 520.13671875 -66 c 0
 491.528320312 -83.880859375 461.875 -92.8876953125 431.3125 -92.8876953125 c 0
 402.049804688 -92.8876953125 371.952148438 -84.630859375 341.13671875 -68 c 0
 275.13671875 -32 219.13671875 32 174.13671875 125 c 0
EndSplineSet
Validated: 524289
EndChar

StartChar: parenright
Encoding: 41 41 8
Width: 673
GlyphClass: 1
Flags: W
VStem: 248.212 341.001<400.603 806.895>
LayerCount: 2
Fore
SplineSet
151.077148438 -62 m 0
 128.077148438 -43 113.077148438 -19 107.077148438 9 c 0
 102.75 26.595703125 100.586914062 44.525390625 100.586914062 62.810546875 c 0
 100.586914062 107.916015625 113.75 155.192382812 140.077148438 205 c 0
 181.077148438 284 215.077148438 388 241.077148438 518 c 0
 245.831054688 541.772460938 248.211914062 567.450195312 248.211914062 595.034179688 c 0
 248.211914062 718.296875 200.681640625 879.618164062 105.077148438 1079 c 0
 91.138671875 1111.05957031 84 1139.23242188 84 1164.53613281 c 0
 84 1175.5390625 85.349609375 1185.99902344 88.0771484375 1196 c 0
 104.321289062 1250.71875 141.765625 1278.39160156 198.533203125 1278.39160156 c 0
 208.162109375 1278.39160156 218.345703125 1277.59472656 229.077148438 1276 c 0
 303.077148438 1266 360.077148438 1238 398.077148438 1194 c 0
 427.077148438 1160 452.077148438 1123 474.077148438 1081 c 0
 496.077148438 1039 513.077148438 997 528.077148438 954 c 0
 569.124023438 833.721679688 589.212890625 699.774414062 589.212890625 553.897460938 c 0
 589.212890625 546.958984375 589.16796875 539.993164062 589.077148438 533 c 0
 586.077148438 379 556.077148438 243 498.077148438 125 c 0
 432.077148438 -9 349.077148438 -82 252.077148438 -94 c 0
 247.12109375 -94.5361328125 242.219726562 -94.802734375 237.374023438 -94.802734375 c 0
 206.041015625 -94.802734375 177.05859375 -83.6513671875 151.077148438 -62 c 0
EndSplineSet
Validated: 524289
EndChar

StartChar: asterisk
Encoding: 42 42 9
Width: 774
GlyphClass: 1
Flags: W
HStem: 1213.25 20G<348.595 378.923>
VStem: 283.273 218<1087 1224.89>
LayerCount: 2
Fore
SplineSet
619.2734375 1116 m 0
 629.2734375 1114 644.2734375 1091 663.2734375 1048 c 0
 680.673828125 1007.70605469 690.525390625 979.15234375 690.525390625 960.8046875 c 0
 690.525390625 959.1171875 690.442382812 957.515625 690.2734375 956 c 0
 689.2734375 949 677.2734375 939 654.2734375 926 c 0
 631.2734375 912 603.2734375 898 572.2734375 884 c 1
 620.2734375 830 645.2734375 796 647.2734375 782 c 0
 647.537109375 780.858398438 647.668945312 779.6328125 647.668945312 778.322265625 c 0
 647.668945312 764.702148438 633.376953125 741.927734375 603.2734375 710 c 0
 570.2734375 674 549.2734375 656 538.2734375 655 c 0
 537.731445312 654.958007812 537.177734375 654.9375 536.612304688 654.9375 c 0
 523.592773438 654.9375 504.106445312 665.958007812 477.2734375 688 c 0
 449.2734375 711 419.2734375 738 387.2734375 768 c 1
 355.2734375 738 325.2734375 711 298.2734375 689 c 0
 271.440429688 666.958007812 252.872070312 655.9375 239.9296875 655.9375 c 0
 239.3671875 655.9375 238.815429688 655.958007812 238.2734375 656 c 0
 227.2734375 657 205.2734375 675 172.2734375 713 c 0
 142.756835938 746.989257812 127.640625 769.77734375 127.640625 783.51171875 c 0
 127.640625 785.1328125 127.8515625 786.627929688 128.2734375 788 c 0
 130.2734375 802 155.2734375 836 202.2734375 888 c 1
 170.2734375 902 142.2734375 915 119.2734375 928 c 0
 96.2734375 941 85.2734375 951 84.2734375 958 c 0
 84.0908203125 959.643554688 84 961.403320312 84 963.278320312 c 0
 84 981.942382812 93.0078125 1012.01660156 110.2734375 1052 c 0
 128.2734375 1095 144.2734375 1117 154.2734375 1119 c 0
 155.525390625 1119.41699219 157.169921875 1119.6171875 159.206054688 1119.6171875 c 0
 166.926757812 1119.6171875 180.282226562 1116.74804688 199.2734375 1112 c 0
 223.2734375 1106 251.2734375 1097 283.2734375 1086 c 1
 284.2734375 1144 286.2734375 1182 289.2734375 1204 c 0
 292.022460938 1223.24414062 320.803710938 1233.25097656 376.38671875 1233.25097656 c 0
 381.458984375 1233.25097656 386.75390625 1233.16699219 392.2734375 1233 c 0
 458.2734375 1231 493.2734375 1222 495.2734375 1204 c 0
 498.2734375 1179 500.2734375 1141 501.2734375 1087 c 1
 557.795898438 1106.69726562 595.25 1116.86035156 612.377929688 1116.86035156 c 0
 615.25 1116.86035156 617.55078125 1116.57421875 619.2734375 1116 c 0
EndSplineSet
Validated: 524289
EndChar

StartChar: plus
Encoding: 43 43 10
Width: 1079
GlyphClass: 1
Flags: W
HStem: 435 366<161.305 344.593 733.593 957.571>
LayerCount: 2
Fore
SplineSet
994.592773438 643 m 0
 995.313476562 628.93359375 995.677734375 615.647460938 995.677734375 603.141601562 c 0
 995.677734375 546.303710938 988.166015625 505.58984375 972.592773438 481 c 0
 966.592773438 471 938.592773438 463 890.592773438 457 c 0
 841.592773438 451 787.592773438 446 725.592773438 443 c 1
 721.592773438 384 716.592773438 330 710.592773438 284 c 0
 704.592773438 238 697.592773438 211 690.592773438 202 c 0
 680.592773438 181 639.592773438 169 566.592773438 165 c 0
 556.637695312 164.590820312 547.07421875 164.38671875 537.895507812 164.38671875 c 0
 479.763671875 164.38671875 437.092773438 172.590820312 408.592773438 189 c 0
 398.592773438 195 388.592773438 222 381.592773438 270 c 0
 373.592773438 317 367.592773438 372 362.592773438 433 c 1
 318.592773438 433 278.592773438 434 240.592773438 435 c 0
 202.592773438 437 175.592773438 437 160.592773438 439 c 0
 136.592773438 441 117.592773438 460 105.592773438 495 c 0
 92.5927734375 531 86.5927734375 571 84.5927734375 613 c 0
 84.2001953125 621.23828125 84 629.399414062 84 637.461914062 c 0
 84 670.5 87.357421875 701.865234375 94.5927734375 730 c 0
 103.592773438 766 116.592773438 785 136.592773438 787 c 0
 162.592773438 790 194.592773438 793 232.592773438 795 c 0
 270.592773438 797 306.592773438 799 344.592773438 801 c 1
 344.299804688 813.594726562 344.178710938 826.017578125 344.178710938 838.217773438 c 0
 344.178710938 867.673828125 344.885742188 895.836914062 345.592773438 922 c 0
 346.592773438 960 347.592773438 986 349.592773438 1002 c 0
 352.592773438 1026 374.592773438 1044 412.592773438 1056 c 0
 450.592773438 1069 491.592773438 1074 536.592773438 1076 c 0
 541.092773438 1076.09960938 545.552734375 1076.15039062 549.973632812 1076.15039062 c 0
 589.762695312 1076.15039062 626.392578125 1072.09960938 660.592773438 1064 c 0
 698.592773438 1054 719.592773438 1040 721.592773438 1020 c 0
 724.592773438 993 727.592773438 959 729.592773438 920 c 0
 731.592773438 880 732.592773438 841 733.592773438 801 c 1
 787.592773438 799 836.592773438 796 878.592773438 791 c 0
 920.592773438 787 947.592773438 781 956.592773438 775 c 0
 977.592773438 765 989.592773438 721 994.592773438 643 c 0
EndSplineSet
Validated: 524289
EndChar

StartChar: comma
Encoding: 44 44 11
Width: 518
GlyphClass: 1
Flags: W
HStem: -94.5215 439.781<243.708 322.558>
VStem: 84 350.039<67.9599 279.352>
LayerCount: 2
Fore
SplineSet
146.571289062 41 m 0
 104.287109375 74.1640625 84 115.576171875 84 165.807617188 c 0
 84 176.162109375 84.8623046875 186.891601562 86.5712890625 198 c 0
 100.571289062 284 149.571289062 334 235.571289062 344 c 0
 242.650390625 344.842773438 249.672851562 345.259765625 256.643554688 345.259765625 c 0
 291.02734375 345.259765625 324.14453125 335.123046875 356.571289062 316 c 0
 395.571289062 293 419.571289062 260 429.571289062 218 c 0
 432.483398438 204.600585938 434.0390625 190.862304688 434.0390625 176.981445312 c 0
 434.0390625 167.036132812 433.240234375 157.018554688 431.571289062 147 c 0
 427.571289062 114 405.571289062 64 366.571289062 -2 c 0
 329.3515625 -63.412109375 291.265625 -94.521484375 252.314453125 -94.521484375 c 0
 249.405273438 -94.521484375 246.490234375 -94.34765625 243.571289062 -94 c 0
 223.571289062 -92 213.571289062 -76 213.571289062 -47 c 0
 213.571289062 -17 199.571289062 5 171.571289062 23 c 0
 165.571289062 26 156.571289062 32 146.571289062 41 c 0
EndSplineSet
Validated: 524289
EndChar

StartChar: hyphen
Encoding: 45 45 12
Width: 999
GlyphClass: 1
Flags: W
HStem: 439 378.393<134.956 886.396>
LayerCount: 2
Fore
SplineSet
914.600585938 650 m 0
 915.327148438 634.909179688 915.69140625 620.7109375 915.69140625 607.405273438 c 0
 915.69140625 547.529296875 908.327148438 505.727539062 893.600585938 482 c 0
 886.600585938 469 848.600585938 459 780.600585938 453 c 0
 712.600585938 446 636.600585938 441 552.600585938 439 c 0
 483.478515625 436.53125 416.388671875 434.740234375 351.330078125 434.740234375 c 0
 337.326171875 434.740234375 323.416015625 434.823242188 309.600585938 435 c 0
 231.600585938 436 179.600585938 439 153.600585938 442 c 0
 131.600585938 444 115.600585938 463 103.600585938 500 c 0
 91.6005859375 537 85.6005859375 577 84.6005859375 621 c 0
 84.2001953125 629.599609375 84 638.120117188 84 646.543945312 c 0
 84 680.240234375 87.2001953125 712.400390625 93.6005859375 742 c 0
 100.600585938 779 114.600585938 798 132.600585938 801 c 0
 182.600585938 807 248.600585938 812 328.600585938 815 c 0
 387.1640625 816.463867188 445.192382812 817.392578125 502.684570312 817.392578125 c 0
 523.728515625 817.392578125 544.700195312 817.267578125 565.600585938 817 c 0
 643.600585938 815 713.600585938 813 773.600585938 808 c 0
 833.600585938 803 868.600585938 796 879.600585938 788 c 0
 898.600585938 779 910.600585938 733 914.600585938 650 c 0
EndSplineSet
Validated: 524289
EndChar

StartChar: period
Encoding: 46 46 13
Width: 519
GlyphClass: 1
Flags: W
HStem: 4.40332 345.253<154.078 364.641>
VStem: 84 351.066<75.0089 279.631>
LayerCount: 2
Fore
SplineSet
117.65625 75 m 0
 95.0615234375 104.607421875 84 136.642578125 84 172.051757812 c 0
 84 182.08984375 84.888671875 192.3984375 86.65625 203 c 0
 93.65625 249 117.65625 287 155.65625 316 c 0
 185.262695312 338.594726562 217.298828125 349.65625 252.708007812 349.65625 c 0
 262.745117188 349.65625 273.0546875 348.766601562 283.65625 347 c 0
 318.65625 341 350.65625 328 377.65625 307 c 0
 403.65625 286 421.65625 258 429.65625 222 c 0
 433.251953125 206.333984375 435.06640625 191.196289062 435.06640625 176.568359375 c 0
 435.06640625 134.239257812 419.870117188 96.1865234375 388.65625 62 c 0
 353.94140625 23.978515625 311.7109375 4.4033203125 263.095703125 4.4033203125 c 0
 252.893554688 4.4033203125 242.41015625 5.265625 231.65625 7 c 0
 184.65625 15 146.65625 38 117.65625 75 c 0
EndSplineSet
Validated: 524289
EndChar

StartChar: slash
Encoding: 47 47 14
Width: 989
GlyphClass: 1
Flags: W
HStem: 0.754883 21G<319.944 332.925> 0.754883 21G<319.944 332.925> 1196.71 20G<644.826 661.576>
LayerCount: 2
Fore
SplineSet
221.951171875 33 m 0xa0
 159.951171875 59 115.951171875 87 88.951171875 117 c 0
 85.6328125 120.319335938 84 126.111328125 84 134.349609375 c 0
 84 160.862304688 100.909179688 212.708007812 132.951171875 289 c 0
 174.951171875 390 225.951171875 501 287.951171875 623 c 0
 348.951171875 745 408.951171875 862 470.951171875 972 c 0
 531.951171875 1082 574.951171875 1155 597.951171875 1189 c 0
 611.685546875 1206.7734375 631.293945312 1216.71484375 658.358398438 1216.71484375 c 0
 664.793945312 1216.71484375 671.651367188 1216.15234375 678.951171875 1215 c 0
 715.951171875 1209 751.951171875 1197 787.951171875 1178 c 0
 823.951171875 1159 853.951171875 1135 878.951171875 1109 c 0
 896.951171875 1089.5 905.951171875 1071.6875 905.951171875 1055.5625 c 0
 905.951171875 1050.1875 904.951171875 1045 902.951171875 1040 c 0
 872.951171875 966 829.951171875 870 774.951171875 756 c 0
 719.951171875 642 662.951171875 531 604.951171875 422 c 0
 546.951171875 313 492.951171875 218 442.951171875 136 c 0
 392.951171875 55 359.951171875 11 341.951171875 2 c 1
 338.802734375 1.1708984375 335.076171875 0.7548828125 330.7734375 0.7548828125 c 0
 309.114257812 0.7548828125 272.840820312 11.3095703125 221.951171875 33 c 0xa0
EndSplineSet
Validated: 524289
EndChar

StartChar: zero
Encoding: 48 48 15
Width: 1202
GlyphClass: 1
Flags: W
HStem: 1.43457 21G<517.407 607.93> 788.627 429.472<500.415 700.448>
VStem: 84 365.962<484.496 736.483> 753.16 365.516<486.299 735.475>
LayerCount: 2
Fore
SplineSet
999.711914062 171 m 0
 929.711914062 66 807.711914062 9 632.711914062 2 c 0
 622.692382812 1.623046875 612.806640625 1.4345703125 603.053710938 1.4345703125 c 0
 431.759765625 1.4345703125 301.594726562 59.572265625 211.711914062 175 c 0
 126.5703125 284.33984375 84 427.415039062 84 602.065429688 c 0
 84 622.288085938 84.5703125 642.93359375 85.7119140625 664 c 0
 94.7119140625 808 131.711914062 932 197.711914062 1037 c 0
 262.711914062 1142 383.711914062 1202 558.711914062 1216 c 0
 577.298828125 1217.39941406 595.465820312 1218.09863281 613.2109375 1218.09863281 c 0
 773.041992188 1218.09863281 898.60546875 1161.30859375 987.711914062 1047 c 0
 1075.02148438 933.854492188 1118.67578125 791.341796875 1118.67578125 619.4609375 c 0
 1118.67578125 598.4140625 1118.02148438 576.927734375 1116.71191406 555 c 0
 1107.71191406 405 1069.71191406 277 999.711914062 171 c 0
714.711914062 739 m 0
 687.8359375 773.04296875 651.328125 788.626953125 605.189453125 788.626953125 c 0
 599.827148438 788.626953125 594.334960938 788.416015625 588.711914062 788 c 0
 537.711914062 783 501.711914062 766 482.711914062 735 c 0
 462.711914062 705 452.711914062 668 450.711914062 626 c 0
 450.211914062 618.5 449.961914062 611.1875 449.961914062 604.0625 c 0
 449.961914062 554.1875 462.211914062 513.5 486.711914062 482 c 0
 513.23828125 447.89453125 552.330078125 430.841796875 602.286132812 430.841796875 c 0
 605.061523438 430.841796875 607.870117188 430.89453125 610.711914062 431 c 0
 661.711914062 433 697.711914062 450 717.711914062 481 c 0
 737.711914062 512 749.711914062 550 752.711914062 594 c 0
 753.009765625 599.861328125 753.16015625 605.614257812 753.16015625 611.258789062 c 0
 753.16015625 662.438476562 740.831054688 704.775390625 714.711914062 739 c 0
EndSplineSet
Validated: 524289
EndChar

StartChar: one
Encoding: 49 49 16
Width: 1000
GlyphClass: 1
Flags: W
HStem: -0.0908203 21G<600.824 645.551> -0.0908203 21G<600.824 645.551> 1206.51 20G<652.606 677.932>
VStem: 84 832.438<778.531 950.779> 427.089 489.349<133.102 652>
LayerCount: 2
Fore
SplineSet
689.088867188 1 m 0xa8
 670.907226562 0.2724609375 653.68359375 -0.0908203125 637.418945312 -0.0908203125 c 0
 564.229492188 -0.0908203125 510.452148438 7.2724609375 476.088867188 22 c 0
 456.088867188 30 444.088867188 102 440.088867188 236 c 0
 436.088867188 370 433.088867188 510 427.088867188 652 c 1xa8
 393.088867188 638 357.088867188 624 322.088867188 612 c 0
 291.1796875 600.838867188 269.854492188 595.57421875 258.744140625 595.57421875 c 0
 256.9140625 595.57421875 255.361328125 595.716796875 254.088867188 596 c 0
 253.7890625 595.987304688 253.487304688 595.981445312 253.18359375 595.981445312 c 0
 229.237304688 595.981445312 195.563476562 634.962890625 154.088867188 711 c 0
 111.088867188 788 88.0888671875 849 84.0888671875 895 c 0
 84.029296875 895.618164062 84 896.249023438 84 896.891601562 c 0xb0
 84 918.075195312 115.944335938 952.501953125 177.088867188 1002 c 0
 240.088867188 1053 329.088867188 1114 444.088867188 1186 c 0
 465.088867188 1199 500.088867188 1209 550.088867188 1217 c 0
 590.549804688 1222.78027344 631.693359375 1226.51464844 673.518554688 1226.51464844 c 0
 682.344726562 1226.51464844 691.201171875 1226.34863281 700.088867188 1226 c 0
 751.088867188 1224 797.088867188 1217 838.088867188 1204 c 0
 878.088867188 1191 900.088867188 1171 903.088867188 1144 c 0
 911.088867188 1067 915.088867188 969 916.088867188 851 c 0
 916.313476562 824.48046875 916.4375 797.959960938 916.4375 771.474609375 c 0
 916.4375 680.111328125 914.96484375 589.154296875 911.088867188 500 c 0
 906.088867188 385 899.088867188 283 889.088867188 195 c 0
 879.088867188 107 868.088867188 55 856.088867188 39 c 1
 845.088867188 17 789.088867188 5 689.088867188 1 c 0xa8
EndSplineSet
Validated: 524289
EndChar

StartChar: two
Encoding: 50 50 17
Width: 1102
GlyphClass: 1
Flags: W
HStem: 1 363<584.274 971.661> 1204.26 20G<546.717 600.028> 1204.26 20G<546.717 600.028>
LayerCount: 2
Fore
SplineSet
84.2744140625 157 m 0xc0
 85.2744140625 238 88.2744140625 286 92.2744140625 304 c 0
 122.274414062 430 177.274414062 524 258.274414062 587 c 0
 339.274414062 649 436.274414062 702 546.274414062 746 c 0
 588.348632812 762.829101562 608.567382812 779.659179688 608.567382812 797.305664062 c 0
 608.567382812 798.533203125 608.469726562 799.764648438 608.274414062 801 c 0
 604.274414062 820 591.274414062 834 569.274414062 844 c 0
 555.727539062 849.541992188 541.04296875 852.4296875 525.688476562 852.4296875 c 0
 516.106445312 852.4296875 506.264648438 851.305664062 496.274414062 849 c 0
 470.274414062 843 455.274414062 824 454.274414062 793 c 0
 453.274414062 781 449.274414062 772 442.274414062 763 c 0
 428.030273438 747.805664062 402.063476562 738.924804688 366.084960938 738.924804688 c 0
 364.176757812 738.924804688 362.239257812 738.94921875 360.274414062 739 c 0
 320.274414062 740 280.274414062 744 242.274414062 752 c 0
 216.274414062 758 191.274414062 764 169.274414062 773 c 0
 146.274414062 782 127.274414062 796 109.274414062 817 c 0
 100.52734375 826.997070312 96.1181640625 840.290039062 96.1181640625 856.879882812 c 0
 96.1181640625 880.118164062 104.770507812 909.825195312 122.274414062 946 c 0
 152.274414062 1008 179.274414062 1051 203.274414062 1076 c 0
 280.274414062 1155 373.274414062 1204 483.274414062 1219 c 0
 508.961914062 1222.50292969 534.267578125 1224.26074219 559.166992188 1224.26074219 c 0
 640.889648438 1224.26074219 718.225585938 1205.32421875 790.274414062 1167 c 0
 880.274414062 1119 946.274414062 1040 989.274414062 932 c 0
 1008.75683594 883.067382812 1018.59179688 835.572265625 1018.59179688 789.513671875 c 0
 1018.59179688 733.915039062 1004.26171875 680.41015625 975.274414062 629 c 0
 929.274414062 548 864.274414062 495 778.274414062 469 c 0
 692.274414062 443 627.274414062 407 584.274414062 364 c 1
 652.274414062 366 719.274414062 369 787.274414062 371 c 0
 821.274414062 372 849.524414062 372.5 872.024414062 372.5 c 0
 894.524414062 372.5 911.274414062 372 922.274414062 371 c 0
 943.274414062 370 961.274414062 353 975.274414062 322 c 0
 989.274414062 290 998.274414062 254 1004.27441406 214 c 0
 1007.7890625 190.568359375 1009.24511719 167.823242188 1009.24511719 145.362304688 c 0
 1009.24511719 129.48046875 1008.51757812 113.740234375 1007.27441406 98 c 0
 1003.27441406 60 994.274414062 35 980.274414062 22 c 0
 972.274414062 15 925.274414062 9 839.274414062 6 c 0
 753.274414062 3 659.274414062 1 556.274414062 1 c 0
 453.274414062 1 357.274414062 3 267.274414062 6 c 0
 177.274414062 9 125.274414062 14 109.274414062 21 c 0
 92.9248046875 30.0830078125 84 68.0439453125 84 135.629882812 c 0
 84 142.451171875 84.091796875 149.57421875 84.2744140625 157 c 0xc0
EndSplineSet
Validated: 524289
EndChar

StartChar: three
Encoding: 51 51 18
Width: 1118
GlyphClass: 1
Flags: W
HStem: -3.36328 383.953<449.514 587.944> 835 393.245<192.546 451.321>
VStem: 132.282 873.122<949.118 1177.22>
LayerCount: 2
Fore
SplineSet
1019.32128906 317 m 0
 1004.32128906 258 977.321289062 206 939.321289062 161 c 0
 900.321289062 116 854.321289062 80 801.321289062 54 c 0
 748.321289062 27 687.321289062 9 617.321289062 1 c 0
 591.866210938 -1.9091796875 567.073242188 -3.36328125 542.940429688 -3.36328125 c 0
 500.708984375 -3.36328125 460.502929688 1.0908203125 422.321289062 10 c 0
 264.321289062 50 153.321289062 147 88.3212890625 301 c 0
 85.4404296875 308.071289062 84 315.005859375 84 321.802734375 c 0
 84 340.958007812 95.4404296875 359.0234375 118.321289062 376 c 0
 149.321289062 399 186.321289062 419 230.321289062 434 c 0
 274.321289062 449 316.321289062 458 358.321289062 463 c 0
 374.75 464.956054688 388.73046875 465.993164062 400.203125 465.993164062 c 0
 418.060546875 465.993164062 429.841796875 463.479492188 435.321289062 458 c 0
 443.321289062 449 447.321289062 439 448.321289062 427 c 0
 449.807617188 395.786132812 465.1015625 380.58984375 494.204101562 380.58984375 c 0
 504.260742188 380.58984375 515.966796875 382.404296875 529.321289062 386 c 0
 572.8828125 397.958007812 595.287109375 414.293945312 595.287109375 435.006835938 c 0
 595.287109375 438.543945312 594.633789062 442.208007812 593.321289062 446 c 0
 583.321289062 475 546.321289062 507 481.321289062 543 c 0
 416.321289062 579 383.321289062 624 381.321289062 678 c 0
 381.21875 679.224609375 381.168945312 680.543945312 381.168945312 681.954101562 c 0
 381.168945312 694.360351562 385.03515625 713.858398438 391.321289062 739 c 0
 398.321289062 767 417.321289062 799 451.321289062 835 c 1
 349.321289062 837 279.321289062 840 240.321289062 844 c 0
 214.321289062 846 193.321289062 863 176.321289062 894 c 0
 158.321289062 924 146.321289062 959 139.321289062 998 c 0
 134.72265625 1023.6171875 132.282226562 1048.37207031 132.282226562 1073.11328125 c 0
 132.282226562 1086.0390625 132.948242188 1098.9609375 134.321289062 1112 c 0
 138.321289062 1149 149.321289062 1175 167.321289062 1192 c 0
 181.321289062 1205 229.321289062 1215 310.321289062 1221 c 0
 378.176757812 1226.02636719 450.2421875 1228.24511719 527.107421875 1228.24511719 c 0
 541.997070312 1228.24511719 557.06640625 1228.16210938 572.321289062 1228 c 0
 666.321289062 1226 754.321289062 1222 836.321289062 1214 c 0
 917.321289062 1205 966.321289062 1193 981.321289062 1178 c 0
 997.376953125 1161.47265625 1005.40429688 1136.69335938 1005.40429688 1103.875 c 0
 1005.40429688 1067.1953125 995.376953125 1020.47265625 975.321289062 964 c 0
 937.321289062 857 901.321289062 775 867.321289062 717 c 1
 978.701171875 643.258789062 1034.6171875 547.095703125 1034.6171875 429.418945312 c 0
 1034.6171875 393.897460938 1029.52246094 356.416992188 1019.32128906 317 c 0
EndSplineSet
Validated: 524289
EndChar

StartChar: four
Encoding: 52 52 19
Width: 1227
GlyphClass: 1
Flags: W
HStem: -0.0908203 21G<667.084 707.84> -0.0908203 21G<667.084 707.84> 731.544 490.456<569.31 781.481>
VStem: 84 421.481<530.299 666.848> 634.367 509.205<534.991 669.93>
LayerCount: 2
Fore
SplineSet
1142.48144531 512 m 0xb8
 1138.48144531 422 1128.48144531 359 1112.48144531 322 c 0
 1105.48144531 305 1046.48144531 293 936.481445312 287 c 1
 931.481445312 221 926.481445312 167 920.481445312 122 c 0
 914.481445312 77 906.481445312 48 899.481445312 38 c 0
 889.481445312 17 837.481445312 5 747.481445312 1 c 0
 730.936523438 0.2724609375 715.25 -0.0908203125 700.4296875 -0.0908203125 c 0
 633.73828125 -0.0908203125 584.572265625 7.2724609375 553.481445312 22 c 0
 542.481445312 27 532.481445312 53 525.481445312 101 c 0
 518.481445312 149 512.481445312 209 507.481445312 281 c 1
 411.481445312 283 326.481445312 283 255.481445312 283 c 0
 183.481445312 283 144.481445312 286 138.481445312 292 c 0
 117.481445312 310 100.481445312 362 90.4814453125 451 c 0
 86.16015625 485.571289062 84 516.592773438 84 544.004882812 c 0
 84 586.3671875 89.16015625 620.107421875 99.4814453125 645 c 0
 137.481445312 731 200.481445312 824 290.481445312 923 c 0
 380.481445312 1021 456.481445312 1101 518.481445312 1160 c 0
 540.481445312 1181 573.481445312 1196 619.481445312 1207 c 0
 665.481445312 1217 711.481445312 1222 758.481445312 1222 c 0
 804.481445312 1221 846.481445312 1215 883.481445312 1202 c 0
 919.481445312 1189 939.481445312 1171 941.481445312 1146 c 0
 947.481445312 1090 950.481445312 1021 952.481445312 940 c 0
 953.653320312 892.551757812 954.138671875 844.073242188 954.138671875 794.565429688 c 0
 954.138671875 759.55859375 953.895507812 724.036132812 953.481445312 688 c 1
 1051.48144531 683 1107.48144531 675 1121.48144531 664 c 0
 1136.20898438 655 1143.57226562 619.22265625 1143.57226562 557.216796875 c 0
 1143.57226562 543.438476562 1143.20898438 528.36328125 1142.48144531 512 c 0xb8
631.481445312 675 m 0
 627.84375 713.197265625 622.551757812 731.543945312 617.110351562 731.543945312 c 0
 616.568359375 731.543945312 616.025390625 731.362304688 615.481445312 731 c 0
 601.481445312 726 580.481445312 708 550.481445312 678 c 0
 520.481445312 648 505.481445312 625 505.481445312 612 c 0
 505.481445312 602 526.481445312 597 567.481445312 597 c 0
 574.744140625 596.823242188 581.346679688 596.740234375 587.30859375 596.740234375 c 0
 615.001953125 596.740234375 628.8359375 598.53125 630.481445312 601 c 0
 633.12109375 605.22265625 634.3671875 613.904296875 634.3671875 627.337890625 c 0
 634.3671875 639.352539062 633.370117188 655.169921875 631.481445312 675 c 0
EndSplineSet
Validated: 524289
EndChar

StartChar: five
Encoding: 53 53 20
Width: 1089
GlyphClass: 1
Flags: W
HStem: 530 691<237.157 568.35> 844 377<669.344 918.185>
LayerCount: 2
Fore
SplineSet
938.34375 1050 m 0x80
 936.34375 967 928.34375 907 918.34375 872 c 0
 915.34375 862 887.34375 856 835.34375 852 c 0
 783.34375 848 728.34375 846 669.34375 844 c 1x40
 739.34375 838 814.34375 795 893.34375 717 c 0
 968.4921875 642.802734375 1005.63671875 554.126953125 1005.63671875 451.834960938 c 0
 1005.63671875 446.591796875 1005.5390625 441.313476562 1005.34375 436 c 1
 1005.39257812 433.123046875 1005.41699219 430.255859375 1005.41699219 427.400390625 c 0
 1005.41699219 313.13671875 966.369140625 216.09765625 887.34375 140 c 0
 806.34375 62 711.34375 14 604.34375 0 c 0
 581.33984375 -2.7763671875 558.649414062 -4.1767578125 536.258789062 -4.1767578125 c 0
 445.744140625 -4.1767578125 360.116210938 18.7001953125 278.34375 66 c 0
 176.34375 125 111.34375 214 86.34375 331 c 0
 84.78125 338.1875 84 345.155273438 84 351.899414062 c 0
 84 388.318359375 106.78125 418.21875 152.34375 441 c 0
 188.34375 460 251.34375 471 338.34375 476 c 0
 347.061523438 476.500976562 355.387695312 476.750976562 363.321289062 476.750976562 c 0
 434.571289062 476.750976562 474.24609375 456.590820312 482.34375 417 c 0
 483.34375 414 484.34375 410 486.34375 406 c 0
 492.34375 391 503.34375 381 518.34375 375 c 0
 528.10546875 371.094726562 537.2578125 369.172851562 545.681640625 369.172851562 c 0
 558.829101562 369.172851562 570.201171875 373.857421875 579.34375 383 c 0
 593.505859375 397.161132812 601.427734375 413.997070312 601.427734375 434.34765625 c 0
 601.427734375 435.552734375 601.399414062 436.770507812 601.34375 438 c 0
 600.34375 460 589.34375 481 569.34375 500 c 0
 548.34375 520 514.34375 530 468.34375 530 c 0
 456.12109375 529.236328125 443.314453125 528.91015625 429.869140625 528.91015625 c 0
 408.11328125 528.91015625 384.68359375 529.763671875 359.34375 531 c 0
 295.34375 534 254.34375 546 234.34375 567 c 0
 214.34375 588 200.34375 617 192.34375 655 c 0
 174.34375 741 163.34375 846 159.34375 968 c 0
 158.83984375 983.497070312 158.58984375 998.200195312 158.58984375 1012.11621094 c 0
 158.58984375 1108.6484375 170.620117188 1167.27539062 193.34375 1190 c 0
 203.34375 1200 243.34375 1207 316.34375 1212 c 0
 389.34375 1218 467.34375 1221 553.34375 1221 c 0
 639.34375 1221 717.34375 1219 791.34375 1213 c 0
 865.34375 1208 908.34375 1199 920.34375 1188 c 0
 932.59375 1180.125 938.71875 1143.921875 938.71875 1079.390625 c 0
 938.71875 1070.171875 938.59375 1060.375 938.34375 1050 c 0x80
EndSplineSet
Validated: 524289
EndChar

StartChar: six
Encoding: 54 54 21
Width: 1107
GlyphClass: 1
Flags: W
HStem: 0.636719 21G<543.956 575.687> 0.636719 21G<543.956 575.687> 1209.84 20G<732.748 748.888> 1209.84 20G<732.748 748.888>
VStem: 84 407.307<384.545 532.912>
LayerCount: 2
Fore
SplineSet
496.17578125 431 m 0x08
 507.130859375 393.572265625 528.918945312 374.477539062 560.779296875 374.477539062 c 0
 563.8203125 374.477539062 566.952148438 374.651367188 570.17578125 375 c 0
 604.072265625 377.825195312 619.3515625 398.380859375 619.3515625 436.66796875 c 0
 619.3515625 439.043945312 619.29296875 441.48828125 619.17578125 444 c 0
 617.17578125 466 608.17578125 486 590.17578125 502 c 0
 578.999023438 512.555664062 566.666015625 517.713867188 553.416015625 517.713867188 c 0
 545.326171875 517.713867188 536.89453125 515.791015625 528.17578125 512 c 0
 503.336914062 501.772460938 491.306640625 485.138671875 491.306640625 460.931640625 c 0
 491.306640625 452.00390625 492.942382812 442.046875 496.17578125 431 c 0x08
85.17578125 555 m 0
 89.17578125 649 114.17578125 739 160.17578125 827 c 0
 206.17578125 916 274.17578125 996 364.17578125 1068 c 0
 454.17578125 1141 572.17578125 1194 718.17578125 1228 c 0
 724.125976562 1229.22460938 729.922851562 1229.83789062 735.572265625 1229.83789062 c 0
 762.203125 1229.83789062 785.55078125 1216.22460938 806.17578125 1189 c 0
 831.17578125 1156 851.17578125 1119 865.17578125 1076 c 0
 879.17578125 1034 888.17578125 992 890.17578125 954 c 0
 890.504882812 947.751953125 890.670898438 941.963867188 890.670898438 936.635742188 c 0
 890.670898438 909.553710938 886.3671875 894.342773438 877.17578125 891 c 0
 854.17578125 883 831.17578125 875 806.17578125 867 c 0
 781.17578125 860 756.17578125 848 730.17578125 831 c 1
 805.17578125 808 873.17578125 757 931.17578125 683 c 0
 989.17578125 609 1020.17578125 528 1023.17578125 442 c 0
 1023.37109375 436.1953125 1023.46875 430.435546875 1023.46875 424.721679688 c 0
 1023.46875 313.293945312 986.37109375 219.146484375 912.17578125 144 c 0
 833.17578125 66 740.17578125 19 633.17578125 5 c 0
 610.266601562 2.0908203125 587.225585938 0.63671875 564.1484375 0.63671875 c 0xa8
 523.762695312 0.63671875 483.266601562 5.0908203125 443.17578125 14 c 0
 380.17578125 28 323.17578125 53 272.17578125 91 c 0
 197.17578125 146 145.17578125 217 117.17578125 301 c 0
 95.2587890625 365.06640625 84 434.817382812 84 511.452148438 c 0
 84 525.7265625 84.390625 540.240234375 85.17578125 555 c 0
EndSplineSet
Validated: 524289
EndChar

StartChar: seven
Encoding: 55 55 22
Width: 1091
GlyphClass: 1
Flags: W
HStem: 0.734375 21G<517.399 540.032> 0.734375 21G<517.399 540.032> 1205.25 20G<554.714 604.416> 1205.25 20G<554.714 604.416>
LayerCount: 2
Fore
SplineSet
683 6 m 0xa0
 646 2 606 1 561 1 c 0
 552.55859375 0.81640625 544.184570312 0.734375 535.87890625 0.734375 c 0
 498.918945312 0.734375 463.29296875 2.3671875 429 4 c 0
 386 6 354 10 334 16 c 0
 324.413085938 18.7392578125 319.619140625 36.484375 319.619140625 69.234375 c 0
 319.619140625 108.22265625 326.413085938 168.478515625 340 250 c 0
 365 400 391 554 421 712 c 1
 343 713 275 716 219 722 c 0
 162 728 128 734 116 744 c 0
 105 750 97 772 92 810 c 0
 86 848 84 889 84 936 c 0
 84 982 86 1028 90 1073 c 0
 94 1118 100 1150 107 1172 c 0
 113 1190 158 1203 240 1212 c 0
 322 1220 413 1224 514 1225 c 0
 530.389648438 1225.16210938 546.6484375 1225.24511719 562.779296875 1225.24511719 c 0
 646.051757812 1225.24511719 725.9296875 1223.02636719 803 1218 c 0
 895 1212 954 1205 980 1196 c 0
 998.282226562 1189.6953125 1007.42382812 1161.53125 1007.42382812 1111.5078125 c 0
 1007.42382812 1082.18359375 1004.28222656 1045.34765625 998 1001 c 0
 981 881 957 750 923 608 c 0
 889 466 854 335 818 215 c 0
 782 95 758 30 748 20 c 0
 741 14 719 9 683 6 c 0xa0
EndSplineSet
Validated: 524289
EndChar

StartChar: eight
Encoding: 56 56 23
Width: 1180
GlyphClass: 1
Flags: W
HStem: 524.156 270.47<525.895 637.531> 915.915 346.882<521.22 635.201>
VStem: 84 428.338<394.649 515.658>
LayerCount: 2
Fore
SplineSet
522.249023438 841 m 0
 530.500976562 809.827148438 550.521484375 794.625976562 582.310546875 794.625976562 c 0
 585.193359375 794.625976562 588.172851562 794.750976562 591.249023438 795 c 0
 624.55859375 797.701171875 640.84765625 816.610351562 640.84765625 848.810546875 c 0
 640.84765625 852.37890625 640.6484375 856.109375 640.249023438 860 c 0
 638.249023438 881 630.249023438 897 612.249023438 907 c 0
 602.607421875 912.892578125 591.817382812 915.915039062 580.341796875 915.915039062 c 0
 570.393554688 915.915039062 559.928710938 913.643554688 549.249023438 909 c 0
 528.999023438 900.75 518.874023438 885.75 518.874023438 864.421875 c 0
 518.874023438 857.3125 519.999023438 849.5 522.249023438 841 c 0
516.249023438 437 m 0
 525.251953125 403.690429688 546.411132812 387.401367188 580.456054688 387.401367188 c 0
 584.228515625 387.401367188 588.159179688 387.600585938 592.249023438 388 c 0
 629.529296875 390.727539062 647.793945312 411.64453125 647.793945312 447.744140625 c 0
 647.793945312 451.345703125 647.612304688 455.098632812 647.249023438 459 c 0
 645.249023438 482 633.249023438 500 613.249023438 513 c 0
 602.694335938 520.388671875 591.303710938 524.15625 579.224609375 524.15625 c 0
 568.416015625 524.15625 557.055664062 521.139648438 545.249023438 515 c 0
 523.037109375 503.89453125 512.337890625 486.209960938 512.337890625 463.166015625 c 0
 512.337890625 455.084960938 513.653320312 446.345703125 516.249023438 437 c 0
225.249023438 140 m 0
 130.924804688 215.615234375 84 311.283203125 84 427.004882812 c 0
 84 459.732421875 87.7529296875 494.064453125 95.2490234375 530 c 0
 107.249023438 588 130.249023438 642 163.249023438 691 c 1
 137.762695312 739.959960938 125.322265625 792.068359375 125.322265625 847.627929688 c 0
 125.322265625 874.908203125 128.321289062 903.020507812 134.249023438 932 c 0
 156.249023438 1036 218.249023438 1124 321.249023438 1196 c 0
 384.224609375 1240.453125 462.447265625 1262.796875 555.681640625 1262.796875 c 0
 613.458007812 1262.796875 676.999023438 1254.21679688 746.249023438 1237 c 0
 822.249023438 1215 890.249023438 1170 948.249023438 1101 c 0
 1006.24902344 1032 1038.24902344 958 1041.24902344 878 c 0
 1041.3828125 873.857421875 1041.44921875 869.732421875 1041.44921875 865.625976562 c 0
 1041.44921875 808.271484375 1028.4453125 754.458984375 1003.24902344 705 c 1
 1061.24902344 631 1093.24902344 552 1096.24902344 470 c 0
 1096.515625 463.502929688 1096.6484375 457.06640625 1096.6484375 450.688476562 c 0
 1096.6484375 337.302734375 1054.61621094 242.740234375 972.249023438 167 c 0
 884.249023438 87 780.249023438 40 662.249023438 26 c 0
 631.995117188 22.2626953125 602.500976562 20.39453125 573.772460938 20.39453125 c 0
 441.075195312 20.39453125 324.71484375 60.2626953125 225.249023438 140 c 0
EndSplineSet
Validated: 524289
EndChar

StartChar: nine
Encoding: 57 57 24
Width: 1124
GlyphClass: 1
Flags: W
HStem: 0.550781 21G<449.29 466.586> 0.550781 21G<449.29 466.586> 1201.32 20G<555.384 600.526>
VStem: 616.558 424.208<698.814 839.159>
LayerCount: 2
Fore
SplineSet
615.266601562 783 m 0x30
 609.266601562 825 587.266601562 847 550.266601562 847 c 0
 513.266601562 847 493.266601562 825 491.266601562 783 c 0
 491.04296875 780.428710938 490.931640625 777.869140625 490.931640625 775.327148438 c 0
 490.931640625 755.130859375 497.943359375 735.987304688 511.266601562 720 c 0
 521.684570312 707.498046875 534.514648438 701.75 550.091796875 701.75 c 0
 556.942382812 701.75 564.32421875 702.861328125 572.266601562 705 c 0
 601.375976562 713.561523438 616.557617188 733.8515625 616.557617188 765.869140625 c 0
 616.557617188 771.248046875 616.129882812 776.958984375 615.266601562 783 c 0x30
1040.26660156 689 m 0
 1035.26660156 587 1010.26660156 491 964.266601562 399 c 0
 918.266601562 307 853.266601562 225 770.266601562 154 c 0
 686.266601562 83 588.266601562 32 475.266601562 1 c 1
 471.778320312 0.701171875 468.309570312 0.55078125 464.862304688 0.55078125 c 0xb0
 433.717773438 0.55078125 404.276367188 12.791015625 377.266601562 38 c 0
 346.266601562 67 320.266601562 100 302.266601562 138 c 0
 283.266601562 176 272.266601562 210 270.266601562 243 c 0
 269.860351562 247.47265625 269.655273438 251.706054688 269.655273438 255.698242188 c 0
 269.655273438 281.1640625 277.9765625 296.813476562 295.266601562 302 c 0
 309.266601562 306 334.266601562 313 372.266601562 323 c 0
 409.266601562 333 433.266601562 347 443.266601562 364 c 1
 333.266601562 380 243.266601562 433 174.266601562 522 c 0
 113.875 599.646484375 84 685.479492188 84 780.142578125 c 0
 84 795.204101562 84.7568359375 810.489257812 86.2666015625 826 c 0
 98.2666015625 944 150.266601562 1039 240.266601562 1109 c 0
 330.266601562 1180 429.266601562 1217 539.266601562 1221 c 0
 545.733398438 1221.21289062 552.17578125 1221.3203125 558.591796875 1221.3203125 c 0
 642.459960938 1221.3203125 721.952148438 1203.015625 796.266601562 1164 c 0
 875.266601562 1122 936.266601562 1061 978.266601562 979 c 0
 1020.44628906 895.557617188 1040.765625 807.069335938 1040.765625 714.307617188 c 0
 1040.765625 705.907226562 1040.59863281 697.470703125 1040.26660156 689 c 0
EndSplineSet
Validated: 524289
EndChar

StartChar: colon
Encoding: 58 58 25
Width: 518
GlyphClass: 1
Flags: W
HStem: 1.25195 346.282<155.137 364.408> 689.5 346.034<153.41 364.129>
VStem: 84 350.32<69.2356 275.488 760.116 964.493>
LayerCount: 2
Fore
SplineSet
279.428710938 2 m 0
 273.576171875 1.501953125 267.770507812 1.251953125 262.017578125 1.251953125 c 0
 221.564453125 1.251953125 183.697265625 13.611328125 150.428710938 39 c 0
 112.428710938 68 91.4287109375 106 85.4287109375 154 c 0
 84.4736328125 161.32421875 84 168.547851562 84 175.668945312 c 0
 84 213.2734375 97.2060546875 248.05078125 122.428710938 280 c 0
 152.428710938 318 190.428710938 340 236.428710938 346 c 0
 244.913085938 347.024414062 253.204101562 347.534179688 261.306640625 347.534179688 c 0
 308.592773438 347.534179688 349.42578125 330.1484375 384.428710938 296 c 0
 417.514648438 264.528320312 434.3203125 225.892578125 434.3203125 181.670898438 c 0
 434.3203125 171.092773438 433.359375 160.1953125 431.428710938 149 c 0
 417.428710938 61 365.428710938 12 279.428710938 2 c 0
279.428710938 691 m 0
 271.595703125 690 263.845703125 689.5 256.192382812 689.5 c 0
 217.928710938 689.5 182.095703125 702 150.428710938 727 c 0
 112.428710938 757 91.4287109375 796 85.4287109375 844 c 0
 84.4736328125 851.32421875 84 858.522460938 84 865.6015625 c 0
 84 902.98046875 97.2060546875 937.05078125 122.428710938 969 c 0
 152.428710938 1007 190.428710938 1028 236.428710938 1034 c 0
 244.913085938 1035.02441406 253.204101562 1035.53417969 261.306640625 1035.53417969 c 0
 308.592773438 1035.53417969 349.42578125 1018.1484375 384.428710938 984 c 0
 417.514648438 952.528320312 434.3203125 913.892578125 434.3203125 869.670898438 c 0
 434.3203125 859.092773438 433.359375 848.1953125 431.428710938 837 c 0
 416.428710938 749 365.428710938 700 279.428710938 691 c 0
EndSplineSet
Validated: 524289
EndChar

StartChar: semicolon
Encoding: 59 59 26
Width: 521
GlyphClass: 1
Flags: W
HStem: 688.172 345.484<154.632 365.391>
VStem: 84 351.421<64.6389 274.143 757.656 963.314>
LayerCount: 2
Fore
SplineSet
280.209960938 689 m 0
 275.81640625 688.4140625 271.422851562 688.171875 266.954101562 688.171875 c 0
 256.166015625 688.171875 244.9375 689.5859375 232.209960938 691 c 0
 185.209960938 699 147.209960938 722 118.209960938 759 c 0
 95.615234375 787.828125 84.5537109375 819.69140625 84.5537109375 855.0625 c 0
 84.5537109375 865.08984375 85.4423828125 875.3984375 87.2099609375 886 c 0
 94.2099609375 932 118.209960938 971 156.209960938 1000 c 0
 185.81640625 1022.59472656 217.852539062 1033.65625 253.26171875 1033.65625 c 0
 263.298828125 1033.65625 273.608398438 1032.76660156 284.209960938 1031 c 0
 343.209960938 1021 387.209960938 991 415.209960938 945 c 0
 429.870117188 920.915039062 437.12890625 895.458007812 437.12890625 868.48828125 c 0
 437.12890625 843.948242188 431.120117188 818.155273438 419.209960938 791 c 0
 392.209960938 731 345.209960938 697 280.209960938 689 c 0
365.209960938 -5 m 0
 329.923828125 -65.357421875 292.9140625 -95.5361328125 254.178710938 -95.5361328125 c 0
 251.19921875 -95.5361328125 248.209960938 -95.357421875 245.209960938 -95 c 0
 226.209960938 -92 216.209960938 -77 216.209960938 -49 c 0
 215.209960938 -21 204.209960938 2 179.209960938 20 c 1
 116.545898438 52.1787109375 84 99.416015625 84 162.319335938 c 0
 84 173.69921875 85.0654296875 185.590820312 87.2099609375 198 c 0
 94.2099609375 244 117.209960938 282 155.209960938 309 c 0
 186.50390625 332.05859375 220.510742188 343.587890625 258.90625 343.587890625 c 0
 267.133789062 343.587890625 275.5625 343.05859375 284.209960938 342 c 0
 334.209960938 336 375.209960938 315 403.209960938 279 c 0
 424.536132812 252.341796875 435.420898438 219.881835938 435.420898438 182.504882812 c 0
 435.420898438 170.809570312 434.354492188 158.631835938 432.209960938 146 c 0
 426.209960938 110 403.209960938 60 365.209960938 -5 c 0
EndSplineSet
Validated: 524289
EndChar

StartChar: less
Encoding: 60 60 27
Width: 946
GlyphClass: 1
Flags: W
LayerCount: 2
Fore
SplineSet
580.125 163 m 0
 530.125 194 475.125 233 415.125 279 c 0
 355.125 325 295.125 373 236.125 424 c 0
 177.125 474 131.125 520 99.125 559 c 0
 89.041015625 571.833007812 84 590.548828125 84 616.686523438 c 0
 84 619.0625 84.041015625 621.5 84.125 624 c 0
 85.125 653 89.125 674 95.125 687 c 0
 102.125 702 134.125 734 189.125 783 c 0
 244.125 832 305.125 882 371.125 934 c 0
 437.125 986 501.125 1033 561.125 1074 c 0
 621.125 1115 658.125 1136 674.125 1136 c 1
 675.483398438 1136.35742188 676.928710938 1136.53613281 678.459960938 1136.53613281 c 0
 698.349609375 1136.53613281 732.771484375 1106.42382812 780.125 1047 c 0
 831.125 983 858.125 934 862.125 900 c 0
 862.19140625 899.466796875 862.224609375 898.912109375 862.224609375 898.336914062 c 0
 862.224609375 881.645507812 834.19140625 847.200195312 778.125 795 c 0
 720.125 740 658.125 684 588.125 626 c 1
 658.125 568 720.125 511 778.125 457 c 0
 834.19140625 404.799804688 862.224609375 369.419921875 862.224609375 353.5703125 c 0
 862.224609375 353.0234375 862.19140625 352.5 862.125 352 c 0
 858.125 318 831.125 269 780.125 205 c 0
 732.771484375 145.576171875 698.349609375 115.463867188 678.459960938 115.463867188 c 0
 676.928710938 115.463867188 675.483398438 115.642578125 674.125 116 c 1
 673.712890625 115.970703125 673.287109375 115.956054688 672.846679688 115.956054688 c 0
 658.340820312 115.956054688 628.653320312 131.942382812 580.125 163 c 0
EndSplineSet
Validated: 524289
EndChar

StartChar: equal
Encoding: 61 61 28
Width: 999
GlyphClass: 1
Flags: W
HStem: 155 380.198<134.956 884.759> 720 379.266<134.956 884.759>
VStem: 84.6006 831.091<199.125 505.55 764.126 1069.55>
LayerCount: 2
Fore
SplineSet
914.600585938 367 m 0
 915.327148438 351.727539062 915.69140625 337.379882812 915.69140625 323.953125 c 0
 915.69140625 263.529296875 908.327148438 221.727539062 893.600585938 198 c 0
 886.600585938 186 848.600585938 177 780.600585938 170 c 0
 712.600585938 163 636.600585938 157 552.600585938 155 c 0
 491.108398438 153.536132812 431.223632812 152.607421875 372.946289062 152.607421875 c 0
 351.615234375 152.607421875 330.5 152.732421875 309.600585938 153 c 0
 231.600585938 154 179.600585938 155 153.600585938 158 c 0
 131.600585938 160 115.600585938 180 103.600585938 217 c 0
 91.6005859375 254 85.6005859375 294 84.6005859375 338 c 0
 84.2001953125 346.799804688 84 355.440429688 84 363.927734375 c 0
 84 397.879882812 87.2001953125 429.400390625 93.6005859375 459 c 0
 100.600585938 496 114.600585938 516 132.600585938 518 c 0
 182.600585938 524 248.600585938 529 328.600585938 531 c 0
 397.666015625 532.7265625 465.987304688 535.198242188 533.5625 535.198242188 c 0
 544.260742188 535.198242188 554.939453125 535.13671875 565.600585938 535 c 0
 643.600585938 534 713.600585938 531 773.600585938 526 c 0
 833.600585938 521 868.600585938 515 879.600585938 506 c 1
 898.600585938 497 910.600585938 450 914.600585938 367 c 0
914.600585938 932 m 0
 915.327148438 916.909179688 915.69140625 902.677734375 915.69140625 889.317382812 c 0
 915.69140625 829.198242188 908.327148438 786.727539062 893.600585938 763 c 0
 886.600585938 751 848.600585938 742 780.600585938 735 c 0
 712.600585938 728 636.600585938 722 552.600585938 720 c 0
 489.600585938 717.75 428.288085938 716.625 368.663085938 716.625 c 0
 348.788085938 716.625 329.100585938 716.75 309.600585938 717 c 0
 231.600585938 718 179.600585938 720 153.600585938 723 c 0
 131.600585938 725 115.600585938 744 103.600585938 781 c 0
 91.6005859375 818 85.6005859375 858 84.6005859375 902 c 0
 84.2001953125 910.799804688 84 919.440429688 84 927.927734375 c 0
 84 961.879882812 87.2001953125 993.400390625 93.6005859375 1023 c 0
 100.600585938 1060 114.600585938 1080 132.600585938 1082 c 0
 182.600585938 1088 248.600585938 1094 328.600585938 1096 c 0
 393.919921875 1097.6328125 458.573242188 1099.265625 522.559570312 1099.265625 c 0
 536.940429688 1099.265625 551.287109375 1099.18359375 565.600585938 1099 c 0
 643.600585938 1098 713.600585938 1095 773.600585938 1090 c 0
 833.600585938 1085 868.600585938 1079 879.600585938 1070 c 1
 898.600585938 1061 910.600585938 1015 914.600585938 932 c 0
EndSplineSet
Validated: 524289
EndChar

StartChar: greater
Encoding: 62 62 29
Width: 947
GlyphClass: 1
Flags: W
LayerCount: 2
Fore
SplineSet
166.025390625 205 m 0
 115.025390625 269 87.025390625 318 84.025390625 352 c 0
 84.0087890625 352.258789062 84 352.5234375 84 352.794921875 c 0
 84 368.247070312 112.008789062 403.930664062 168.025390625 457 c 0
 225.025390625 511 288.025390625 568 358.025390625 626 c 1
 288.025390625 684 225.025390625 740 168.025390625 795 c 0
 112.008789062 848.069335938 84 882.787109375 84 899.155273438 c 0
 84 899.442382812 84.0087890625 899.724609375 84.025390625 900 c 0
 87.025390625 934 115.025390625 983 166.025390625 1047 c 0
 213.37890625 1106.42382812 246.938476562 1136.53613281 267.504882812 1136.53613281 c 0
 269.088867188 1136.53613281 270.595703125 1136.35742188 272.025390625 1136 c 1
 287.025390625 1136 325.025390625 1115 385.025390625 1074 c 0
 445.025390625 1033 509.025390625 986 575.025390625 934 c 0
 641.025390625 882 703.025390625 832 758.025390625 783 c 0
 813.025390625 734 844.025390625 702 851.025390625 687 c 0
 857.025390625 674 861.025390625 653 863.025390625 624 c 0
 863.279296875 620.189453125 863.404296875 616.524414062 863.404296875 613 c 0
 863.404296875 588.778320312 857.500976562 571.221679688 847.025390625 559 c 0
 814.025390625 520 769.025390625 474 710.025390625 424 c 0
 651.025390625 373 591.025390625 325 531.025390625 279 c 0
 471.025390625 233 416.025390625 194 366.025390625 163 c 0
 317.497070312 131.942382812 286.8671875 115.956054688 273.220703125 115.956054688 c 0
 272.806640625 115.956054688 272.408203125 115.970703125 272.025390625 116 c 1
 270.595703125 115.642578125 269.088867188 115.463867188 267.504882812 115.463867188 c 0
 246.938476562 115.463867188 213.37890625 145.576171875 166.025390625 205 c 0
EndSplineSet
Validated: 524289
EndChar

StartChar: question
Encoding: 63 63 30
Width: 985
GlyphClass: 1
Flags: W
HStem: 1.11426 344.542<333.366 546.455> 906.07 351.021<394.284 553.975>
VStem: 263.34 351.939<72.0215 275.631>
LayerCount: 2
Fore
SplineSet
223.13671875 853 m 0
 179.13671875 867 145.13671875 885 119.13671875 907 c 0
 95.205078125 926.145507812 84 947.200195312 84 970.1640625 c 0
 84 975.986328125 84.720703125 981.931640625 86.13671875 988 c 0
 106.13671875 1059 148.13671875 1119 210.13671875 1169 c 0
 272.13671875 1219 338.13671875 1249 412.13671875 1255 c 0
 427.499023438 1256.39648438 442.618164062 1257.09179688 457.498046875 1257.09179688 c 0
 527.85546875 1257.09179688 592.880859375 1241.54101562 653.13671875 1211 c 0
 725.13671875 1174 783.13671875 1126 826.13671875 1064 c 0
 868.13671875 1003 893.13671875 934 900.13671875 858 c 0
 900.884765625 848.649414062 901.259765625 839.330078125 901.259765625 830.04296875 c 0
 901.259765625 764.84375 882.775390625 701.272460938 845.13671875 640 c 0
 801.13671875 568 722.13671875 518 609.13671875 488 c 0
 584.060546875 482.427734375 571.922851562 462.19140625 571.922851562 427.291015625 c 0
 571.922851562 424.61328125 571.994140625 421.849609375 572.13671875 419 c 0
 572.248046875 418.163085938 572.303710938 417.33203125 572.303710938 416.5078125 c 0
 572.303710938 402.567382812 556.40625 390.609375 527.13671875 384 c 0
 496.13671875 376 461.13671875 372 423.13671875 371 c 0
 418.309570312 370.873046875 413.53125 370.810546875 408.803710938 370.810546875 c 0
 376.309570312 370.810546875 346.19921875 373.76171875 319.13671875 379 c 0
 290.0703125 384.625976562 275.94921875 394.647460938 275.94921875 407.416015625 c 0
 275.94921875 408.264648438 276.01171875 409.126953125 276.13671875 410 c 1
 270.244140625 446.959960938 267.221679688 480.190429688 267.221679688 509.690429688 c 0
 267.221679688 535.263671875 269.493164062 558.033203125 274.13671875 578 c 0
 284.13671875 622 302.13671875 660 328.13671875 690 c 0
 361.13671875 729 404.13671875 756 458.13671875 770 c 0
 512.13671875 784 544.13671875 801 554.13671875 820 c 0
 559.53125 830.533203125 562.220703125 840.076171875 562.220703125 848.6796875 c 0
 562.220703125 873.567382812 539.72265625 890.596679688 495.13671875 901 c 0
 479.276367188 904.379882812 465.173828125 906.0703125 452.864257812 906.0703125 c 0
 417.829101562 906.0703125 397.31640625 892.379882812 392.13671875 865 c 0
 386.595703125 840.98828125 371.671875 829.770507812 345.791992188 829.770507812 c 0
 343.6484375 829.770507812 341.430664062 829.846679688 339.13671875 830 c 0
 305.13671875 832 266.13671875 839 223.13671875 853 c 0
314.13671875 54 m 0
 280.80859375 86.5146484375 263.33984375 124.9765625 263.33984375 168.310546875 c 0
 263.33984375 178.286132812 264.265625 188.520507812 266.13671875 199 c 0
 273.13671875 245 297.13671875 283 335.13671875 312 c 0
 364.743164062 334.594726562 397.385742188 345.65625 433.063476562 345.65625 c 0
 443.176757812 345.65625 453.53515625 344.766601562 464.13671875 343 c 0
 499.13671875 337 531.13671875 324 558.13671875 303 c 0
 584.13671875 283 602.13671875 255 610.13671875 218 c 0
 613.565429688 203.428710938 615.279296875 189.18359375 615.279296875 175.2421875 c 0
 615.279296875 140.387695312 604.565429688 107.428710938 583.13671875 76 c 0
 553.13671875 33 512.13671875 8 460.13671875 2 c 0
 453.42578125 1.4111328125 446.83984375 1.1142578125 440.375976562 1.1142578125 c 0
 391.931640625 1.1142578125 350.309570312 17.8271484375 314.13671875 54 c 0
EndSplineSet
Validated: 524289
EndChar

StartChar: at
Encoding: 64 64 31
Width: 1344
GlyphClass: 1
Flags: W
HStem: 11.4033 188.681<518.477 846.916> 304.103 244.226<580.658 693.346> 313 194.304<951.891 1038.77> 690.469 256.43<585.201 688.565> 1052.1 191.7<512.468 851.15>
VStem: 84 182.909<452.081 794.046> 349.008 223.821<554.893 678.624> 702.968 215.459<556.641 678.526> 1088.67 171.839<562.456 826.749>
LayerCount: 2
Fore
SplineSet
741.890625 14 m 0xbf80
 722.811523438 12.265625 703.942382812 11.4033203125 685.2734375 11.4033203125 c 0
 596.310546875 11.4033203125 511.892578125 30.978515625 430.890625 69 c 0
 308.890625 128 215.890625 217 153.890625 336 c 0
 107.4375 425.161132812 84 519.374023438 84 618.219726562 c 0
 84 651.299804688 86.625 684.8984375 91.890625 719 c 0
 116.890625 879 192.890625 1012 319.890625 1119 c 0
 419.1953125 1201.88378906 530.7265625 1243.80371094 655.442382812 1243.80371094 c 0
 690.2265625 1243.80371094 726.03515625 1240.54199219 762.890625 1234 c 0
 842.890625 1220 918.890625 1194 989.890625 1156 c 0
 1060.890625 1118 1120.890625 1064 1169.890625 997 c 0
 1205.890625 943 1231.890625 877 1247.890625 799 c 0
 1256.19140625 756.390625 1260.51171875 714.700195312 1260.51171875 673.758789062 c 0
 1260.51171875 640.713867188 1257.69726562 608.157226562 1251.890625 576 c 0
 1237.890625 505 1209.890625 443 1163.890625 393 c 0
 1117.890625 342 1053.890625 315 967.890625 313 c 0xbf80
 944.890625 313 918.890625 316 888.890625 322 c 0
 858.890625 328 833.890625 342 812.890625 364 c 1
 791.890625 350 770.890625 338 748.890625 329 c 0
 708.317382812 312.401367188 669.375976562 304.102539062 631.916992188 304.102539062 c 0xdf80
 567.8203125 304.102539062 508.063476562 328.401367188 451.890625 377 c 0
 383.1484375 435.701171875 349.0078125 508.124023438 349.0078125 594.267578125 c 0
 349.0078125 619.653320312 351.97265625 646.23046875 357.890625 674 c 0
 379.890625 773 432.890625 849 518.890625 903 c 0
 565.584960938 932.319335938 614.341796875 946.8984375 665.322265625 946.8984375 c 0
 708.237304688 946.8984375 752.728515625 936.567382812 798.890625 916 c 1
 816.124023438 922.319335938 835.66796875 925.66796875 857.900390625 925.66796875 c 0
 874.370117188 925.66796875 892.315429688 923.830078125 911.890625 920 c 0
 955.974609375 912.333007812 978.015625 898.23828125 978.015625 878.59375 c 0
 978.015625 877.739257812 977.974609375 876.875 977.890625 876 c 0
 971.890625 826 956.890625 755 932.890625 665 c 0
 923.2265625 628.756835938 918.426757812 598.67578125 918.426757812 574.953125 c 0
 918.426757812 539.767578125 928.985351562 518.5703125 949.890625 512 c 1
 951.890625 511 l 1
 951.890625 511 952.890625 511 953.890625 511 c 0
 962.2109375 508.53515625 970.22265625 507.303710938 977.92578125 507.303710938 c 0
 1020.21679688 507.303710938 1053.20507812 544.404296875 1076.890625 618 c 0
 1084.75292969 642.708984375 1088.67285156 667.734375 1088.67285156 693.030273438 c 0
 1088.67285156 757.822265625 1062.95507812 824.39453125 1011.890625 892 c 0
 943.890625 980 852.890625 1032 736.890625 1048 c 0
 715.765625 1050.73144531 695.104492188 1052.10351562 674.913085938 1052.10351562 c 0
 584.236328125 1052.10351562 503.046875 1024.43359375 431.890625 968 c 0
 358.890625 910 309.890625 834 283.890625 742 c 0
 272.541992188 702.27734375 266.909179688 662.555664062 266.909179688 623.083007812 c 0
 266.909179688 572.126953125 276.295898438 521.586914062 294.890625 472 c 0
 332.890625 367 403.890625 291 506.890625 241 c 0
 562.541992188 213.174804688 620.872070312 200.083984375 681.880859375 200.083984375 c 0
 695.418945312 200.083984375 709.088867188 200.728515625 722.890625 202 c 0
 797.890625 209 864.890625 237 924.890625 283 c 0
 934.643554688 290.151367188 945.135742188 293.7109375 956.333984375 293.7109375 c 0
 979.581054688 293.7109375 1005.87011719 278.37109375 1034.890625 248 c 0
 1056.390625 225.5 1067.140625 204.5 1067.140625 184.75 c 0
 1067.140625 165 1056.390625 146.5 1034.890625 129 c 0
 948.890625 62 850.890625 24 741.890625 14 c 0xbf80
700.890625 607 m 0
 702.275390625 615.077148438 702.967773438 622.568359375 702.967773438 629.473632812 c 0
 702.967773438 652.491210938 695.275390625 669 679.890625 679 c 0
 667.7890625 686.701171875 655.989257812 690.46875 644.159179688 690.46875 c 0
 634.484375 690.46875 624.7890625 687.94921875 614.890625 683 c 0
 592.890625 671 579.890625 654 574.890625 630 c 0
 573.5234375 623.98046875 572.829101562 618.185546875 572.829101562 612.57421875 c 0
 572.829101562 597.677734375 577.721679688 584.075195312 587.890625 571 c 0
 599.806640625 555.6796875 614.620117188 548.328125 632.947265625 548.328125 c 0xdf80
 636.153320312 548.328125 639.466796875 548.553710938 642.890625 549 c 0
 674.890625 552 694.890625 571 700.890625 607 c 0
EndSplineSet
Validated: 524289
EndChar

StartChar: A
Encoding: 65 65 32
Width: 1351
GlyphClass: 1
Flags: W
HStem: 1.21582 21G<908.741 924.512> 248 273.751<546.749 748.076> 1199.75 20G<668.887 696.012>
LayerCount: 2
Fore
SplineSet
84.07421875 67 m 0
 84.0244140625 69.599609375 84 72.2646484375 84 74.9951171875 c 0
 84 126.865234375 93.0244140625 202.200195312 111.07421875 301 c 0
 130.07421875 405 154.07421875 514 183.07421875 626 c 0
 212.07421875 738 242.07421875 843 275.07421875 941 c 0
 307.07421875 1039 335.07421875 1108 359.07421875 1148 c 0
 369.07421875 1164 397.07421875 1178 444.07421875 1191 c 0
 490.07421875 1204 542.07421875 1211 599.07421875 1216 c 0
 627.57421875 1218.5 655.32421875 1219.75 682.44921875 1219.75 c 0
 709.57421875 1219.75 736.07421875 1218.5 762.07421875 1216 c 0
 814.07421875 1211 850.07421875 1199 871.07421875 1180 c 0
 901.07421875 1151 937.07421875 1088 978.07421875 990 c 0
 1019.07421875 892 1058.07421875 786 1097.07421875 671 c 0
 1136.07421875 556 1171.07421875 446 1202.07421875 340 c 0
 1233.07421875 234 1254.07421875 160 1264.07421875 116 c 0
 1266.6171875 104.377929688 1267.83984375 94.20703125 1267.83984375 85.3427734375 c 0
 1267.83984375 69.80078125 1264.07910156 58.2783203125 1257.07421875 50 c 0
 1246.07421875 37 1227.07421875 28 1199.07421875 23 c 0
 1152.07421875 15 1094.07421875 10 1024.07421875 6 c 0
 972.831054688 3.072265625 936.056640625 1.2158203125 912.966796875 1.2158203125 c 0
 904.515625 1.2158203125 897.897460938 1.4638671875 893.07421875 2 c 0
 886.07421875 4 880.07421875 7 874.07421875 10 c 0
 855.07421875 22 837.07421875 55 819.07421875 111 c 0
 801.07421875 167 783.07421875 205 766.07421875 226 c 0
 756.07421875 239 743.07421875 245 726.07421875 247 c 2
 595.07421875 248 l 2
 554.07421875 247 527.07421875 233 515.07421875 207 c 0
 499.07421875 173 480.07421875 137 460.07421875 95 c 0
 440.07421875 54 425.07421875 29 415.07421875 19 c 0
 410.07421875 13 404.07421875 9 394.07421875 7 c 0
 380.59765625 3.9375 355.864257812 2.7509765625 320.102539062 2.7509765625 c 0
 297.484375 2.7509765625 270.456054688 3.2255859375 239.07421875 4 c 0
 157.07421875 6 111.07421875 14 100.07421875 28 c 0
 90.07421875 39 85.07421875 52 84.07421875 67 c 0
567.07421875 640 m 0
 552.857421875 605.248046875 545.502929688 579.852539062 545.502929688 563.815429688 c 0
 545.502929688 559.547851562 546.0234375 555.942382812 547.07421875 553 c 0
 554.41015625 531.91015625 583.606445312 521.750976562 636.206054688 521.750976562 c 0
 640.969726562 521.750976562 645.92578125 521.833984375 651.07421875 522 c 0
 712.07421875 524 745.07421875 539 751.07421875 566 c 0
 751.311523438 567.341796875 751.4296875 568.80859375 751.4296875 570.401367188 c 0
 751.4296875 588.979492188 735.311523438 624.658203125 703.07421875 679 c 0
 677.666992188 721.830078125 655.948242188 743.0546875 637.91796875 743.0546875 c 0
 631.111328125 743.0546875 624.830078125 740.029296875 619.07421875 734 c 0
 601.07421875 716 584.07421875 684 567.07421875 640 c 0
EndSplineSet
Validated: 524289
EndChar

StartChar: B
Encoding: 66 66 33
Width: 1192
GlyphClass: 1
Flags: W
HStem: 2 300.821<500.78 668.831> 532.105 246.176<510.837 619.312> 962 277.25<447.894 626.059>
VStem: 86.3936 395.893<331.181 521.564 783.246 936.413> 648.394 349.42<808.75 939.115> 700.418 408.125<334.918 484.407>
LayerCount: 2
Fore
SplineSet
624.393554688 2 m 0xf4
 568.393554688 1 508.393554688 0 445.393554688 0 c 0
 381.393554688 1 321.393554688 3 264.393554688 6 c 0
 207.393554688 10 169.393554688 15 149.393554688 24 c 0
 131.393554688 31 116.393554688 85 106.393554688 187 c 0
 96.3935546875 289 89.3935546875 402 86.3935546875 528 c 0
 84.7421875 597.364257812 84 665.516601562 84 732.2890625 c 0
 84 786.809570312 84.494140625 840.41015625 85.3935546875 893 c 0
 87.3935546875 1011 94.3935546875 1089 101.393554688 1128 c 0
 106.393554688 1153 132.393554688 1176 181.393554688 1195 c 0
 230.393554688 1214 288.393554688 1227 358.393554688 1234 c 0
 393.393554688 1237.5 429.393554688 1239.25 466.393554688 1239.25 c 0
 503.393554688 1239.25 541.393554688 1237.5 580.393554688 1234 c 0
 658.393554688 1227 729.393554688 1209 793.393554688 1181 c 0
 887.393554688 1139 949.393554688 1071 980.393554688 976 c 0
 991.955078125 940.568359375 997.813476562 905.97265625 997.813476562 872.209960938 c 0xf8
 997.813476562 815.447265625 981.25390625 761.043945312 947.393554688 709 c 1
 950.393554688 707 l 1
 1020.39355469 665 1067.39355469 609 1090.39355469 541 c 0
 1102.49316406 503.599609375 1108.54296875 464.990234375 1108.54296875 425.169921875 c 0
 1108.54296875 392.58984375 1104.49316406 359.200195312 1096.39355469 325 c 0
 1076.39355469 242 1035.39355469 170 970.393554688 110 c 0
 905.393554688 50 827.393554688 16 736.393554688 7 c 0
 717.393554688 5 679.393554688 4 624.393554688 2 c 0xf4
481.393554688 847 m 0
 485.393554688 809 495.393554688 788 510.393554688 783 c 0
 519.861328125 779.84375 529.4296875 778.28125 539.06640625 778.28125 c 0
 559.9609375 778.28125 581.177734375 785.627929688 602.393554688 800 c 0
 633.393554688 821 648.393554688 848 648.393554688 879 c 0
 648.393554688 900 640.393554688 919 622.393554688 936 c 0
 604.393554688 953 576.393554688 961 539.393554688 962 c 0
 506.393554688 962 487.393554688 954 483.393554688 937 c 0
 479.987304688 924.508789062 478.192382812 909.439453125 478.192382812 891.791015625 c 0
 478.192382812 878.35546875 479.232421875 863.424804688 481.393554688 847 c 0
616.393554688 313 m 0
 672.625976562 328.572265625 700.41796875 358.364257812 700.41796875 401.081054688 c 0xf4
 700.41796875 407.741210938 699.7421875 414.715820312 698.393554688 422 c 0
 691.393554688 461 667.393554688 491 625.393554688 513 c 0
 601.077148438 525.737304688 577.767578125 532.10546875 555.65625 532.10546875 c 0
 539.576171875 532.10546875 524.129882812 528.737304688 509.393554688 522 c 0
 491.393554688 513 482.393554688 485 482.393554688 439 c 0
 482.322265625 435.713867188 482.286132812 432.479492188 482.286132812 429.295898438 c 0
 482.286132812 387.903320312 488.322265625 355.071289062 500.393554688 330 c 0
 508.479492188 311.9609375 526.239257812 302.821289062 554.15234375 302.821289062 c 0
 571.114257812 302.821289062 591.825195312 306.196289062 616.393554688 313 c 0
EndSplineSet
Validated: 524289
EndChar

StartChar: C
Encoding: 67 67 34
Width: 1149
GlyphClass: 1
Flags: W
HStem: -0.0439453 456.99<618.088 951.899> 808 422.413<710.853 907.51>
VStem: 84 487.238<503.81 694.872>
LayerCount: 2
Fore
SplineSet
845.075195312 804 m 0
 822.075195312 802 799.075195312 800 777.075195312 796 c 0
 721.075195312 785 671.075195312 758 625.075195312 716 c 0
 588.858398438 682.932617188 571.23828125 644.28515625 571.23828125 599.083007812 c 0
 571.23828125 586.874023438 572.5234375 574.185546875 575.075195312 561 c 0
 581.075195312 533 594.075195312 511 615.075195312 495 c 0
 646.895507812 469.9296875 688.942382812 456.946289062 741.217773438 456.946289062 c 0
 743.15625 456.946289062 745.108398438 456.963867188 747.075195312 457 c 0
 802.075195312 459 849.075195312 464 889.075195312 473 c 0
 899.09765625 476.188476562 909.119140625 477.924804688 919.140625 477.924804688 c 0
 955.075195312 470 l 0
 975.075195312 460 992.075195312 443 1008.07519531 420 c 0
 1033.07519531 382 1050.07519531 330 1060.07519531 266 c 0
 1063.3515625 242.706054688 1065.03710938 221.002929688 1065.03710938 200.791992188 c 0
 1065.03710938 165.47265625 1059.88867188 134.713867188 1049.07519531 108 c 0
 1035.07519531 74 1015.07519531 53 988.075195312 47 c 1
 903.63671875 15.9423828125 809.77734375 -0.0439453125 708.327148438 -0.0439453125 c 0
 705.25 -0.0439453125 702.166015625 -0.029296875 699.075195312 0 c 0
 594.075195312 1 500.075195312 20 417.075195312 58 c 0
 304.075195312 108 218.075195312 185 158.075195312 283 c 0
 108.311523438 364.28125 84 455.881835938 84 556.659179688 c 0
 84 577.387695312 85.0283203125 598.504882812 87.0751953125 620 c 0
 108.075195312 820 187.075195312 976 325.075195312 1089 c 0
 440.446289062 1183.47070312 578.881835938 1230.41308594 740.966796875 1230.41308594 c 0
 772.758789062 1230.41308594 805.459960938 1228.60742188 839.075195312 1225 c 0
 873.075195312 1221 903.075195312 1204 929.075195312 1172 c 0
 955.075195312 1140 976.075195312 1083 993.075195312 1004 c 0
 998.427734375 979.129882812 1001.10351562 956.340820312 1001.10351562 935.6328125 c 0
 1001.10351562 890.5625 988.427734375 855.3515625 963.075195312 830 c 0
 949.075195312 816 933.075195312 809 915.075195312 808 c 0
 892.075195312 807 868.075195312 806 845.075195312 804 c 0
EndSplineSet
Validated: 524289
EndChar

StartChar: D
Encoding: 68 68 35
Width: 1242
GlyphClass: 1
Flags: W
HStem: -0.115234 482.777<515.688 692.004> 752.375 481.325<298.368 670.241>
VStem: 84 413.938<491.779 746.999> 741.943 416.344<520.781 688.836>
LayerCount: 2
Fore
SplineSet
831.368164062 74 m 0
 709.24609375 23.9970703125 580.650390625 -0.115234375 445.583007812 -0.115234375 c 0
 440.188476562 -0.115234375 434.783203125 -0.0771484375 429.368164062 0 c 0
 381.368164062 1 334.368164062 4 290.368164062 10 c 0
 245.368164062 16 213.368164062 22 193.368164062 31 c 0
 162.368164062 44 137.368164062 108 119.368164062 222 c 0
 101.368164062 336 89.3681640625 462 85.3681640625 598 c 0
 84.4443359375 629.432617188 84 660.33203125 84 690.721679688 c 0
 84 791.81640625 88.9111328125 887.272460938 97.3681640625 978 c 0
 108.368164062 1096 129.368164062 1164 159.368164062 1182 c 0
 189.368164062 1201 236.368164062 1215 298.368164062 1224 c 0
 344.331054688 1230.43457031 391.983398438 1233.70019531 441.326171875 1233.70019531 c 0
 499.337890625 1233.70019531 559.684570312 1229.18652344 622.368164062 1220 c 0
 738.368164062 1203 836.368164062 1164 917.368164062 1100 c 0
 1023.36816406 1014 1095.36816406 901 1134.36816406 760 c 0
 1150.265625 700.596679688 1158.28710938 642.943359375 1158.28710938 586.747070312 c 0
 1158.28710938 508.610351562 1142.77832031 433.290039062 1111.36816406 360 c 0
 1052.36816406 221 958.368164062 125 831.368164062 74 c 0
501.368164062 590 m 0
 506.368164062 533 518.368164062 499 536.368164062 489 c 0
 543.431640625 484.291015625 554.8046875 482.662109375 571.939453125 482.662109375 c 0
 576.638671875 482.662109375 581.772460938 482.78515625 587.368164062 483 c 0
 629.368164062 484 664.368164062 493 693.368164062 511 c 0
 722.368164062 529 738.368164062 556 741.368164062 591 c 0
 741.752929688 595.1328125 741.943359375 599.2109375 741.943359375 603.232421875 c 0
 741.943359375 641.047851562 725.100585938 673.883789062 694.368164062 701 c 0
 659.368164062 731 622.368164062 748 584.368164062 752 c 0
 580.618164062 752.25 576.805664062 752.375 572.961914062 752.375 c 0
 561.430664062 752.375 549.618164062 751.25 538.368164062 749 c 0
 522.368164062 745 511.368164062 736 506.368164062 719 c 0
 500.826171875 700.526367188 497.938476562 677.50390625 497.938476562 649.229492188 c 0
 497.938476562 631.587890625 499.063476562 611.901367188 501.368164062 590 c 0
EndSplineSet
Validated: 524289
EndChar

StartChar: E
Encoding: 69 69 36
Width: 1099
GlyphClass: 1
Flags: W
HStem: 5 430.333<594.375 950.371> 831 398.255<579.375 923.788>
VStem: 84.375 692.638<487.103 761.42>
LayerCount: 2
Fore
SplineSet
847.375 434 m 0
 864.041015625 434.888671875 879.176757812 435.333007812 892.79296875 435.333007812 c 0
 940.448242188 435.333007812 969.485351562 429.888671875 980.375 419 c 0
 994.375 407 1005.375 356 1012.375 266 c 0
 1014.52832031 233.69921875 1015.65039062 204.618164062 1015.65039062 178.711914062 c 0
 1015.65039062 132.434570312 1012.06738281 96.28515625 1004.375 70 c 0
 998.375 53 956.375 38 878.375 27 c 0
 800.375 16 712.375 9 614.375 5 c 0
 549.041015625 2.3330078125 485.9296875 1 424.448242188 1 c 0
 393.708007812 1 363.375 1.3330078125 333.375 2 c 0
 243.375 4 185.375 12 158.375 24 c 0
 142.375 30 129.375 74 119.375 154 c 0
 109.375 233 100.375 327 94.375 434 c 0
 88.375 540 85.375 650 84.375 761 c 0
 84.125 788.75 84 815.1875 84 840.328125 c 0
 84 915.75 85.125 979.5 87.375 1032 c 0
 87.375 1070 91.375 1106 97.375 1138 c 0
 103.375 1169 112.375 1189 126.375 1197 c 0
 140.375 1205 186.375 1212 267.375 1218 c 0
 348.375 1224 434.375 1227 528.375 1229 c 0
 544.501953125 1229.171875 560.39453125 1229.25488281 576.056640625 1229.25488281 c 0
 651.678710938 1229.25488281 721.928710938 1227.31347656 787.375 1224 c 0
 866.375 1219 912.375 1212 924.375 1200 c 0
 938.375 1188 947.375 1142 949.375 1061 c 0
 949.66015625 1049.42871094 949.802734375 1038.265625 949.802734375 1027.50976562 c 0
 949.802734375 962.979492188 944.66015625 913.142578125 934.375 878 c 0
 928.375 859 891.375 847 822.375 843 c 0
 752.375 838 671.375 834 579.375 831 c 1
 579.375 825 579.375 817 580.375 808 c 0
 581.375 799 581.375 792 582.375 786 c 1
 642.375 785 691.375 780 729.375 772 c 0
 738.375 770 747.375 754 756.375 725 c 0
 765.375 695 770.375 664 774.375 630 c 0
 775.98046875 611.803710938 777.012695312 594.180664062 777.012695312 577.129882812 c 0
 777.012695312 562.321289062 776.233398438 547.944335938 774.375 534 c 0
 770.375 504 761.375 489 746.375 487 c 0
 736.375 484 716.375 481 688.375 479 c 0
 660.375 477 628.375 474 594.375 473 c 1
 594.375 466 594.375 458 594.375 449 c 0
 594.375 440 594.375 432 594.375 426 c 1
 688.375 427 772.375 430 847.375 434 c 0
EndSplineSet
Validated: 524289
EndChar

StartChar: F
Encoding: 70 70 37
Width: 1099
GlyphClass: 1
Flags: W
HStem: 1.7002 21G<344.008 388.403> 264.74 410.26<618.383 866.878> 754 474.767<618.383 934.502>
LayerCount: 2
Fore
SplineSet
618.3828125 715 m 0
 618.3828125 698 618.3828125 685 618.3828125 675 c 1
 679.3828125 674 735.3828125 672 786.3828125 668 c 0
 837.3828125 664 873.3828125 660 892.3828125 655 c 0
 910.3828125 649 921.3828125 629 927.3828125 591 c 0
 930.294921875 568.862304688 931.850585938 545.706054688 931.850585938 521.532226562 c 0
 931.850585938 504.2109375 931.051757812 486.366210938 929.3828125 468 c 0
 925.3828125 424 917.3828125 384 906.3828125 347 c 0
 895.3828125 309 882.3828125 289 868.3828125 286 c 0
 836.3828125 278 797.3828125 272 751.3828125 269 c 0
 713.530273438 266.53125 674.323242188 264.740234375 634.3203125 264.740234375 c 0
 625.708984375 264.740234375 617.061523438 264.823242188 608.3828125 265 c 1
 599.3828125 133 587.3828125 57 570.3828125 36 c 1
 558.3828125 15 505.3828125 4 411.3828125 2 c 0
 401.982421875 1.7998046875 392.842773438 1.7001953125 383.963867188 1.7001953125 c 0
 304.052734375 1.7001953125 245.282226562 9.7998046875 208.3828125 26 c 0
 194.3828125 32 180.3828125 82 163.3828125 178 c 0
 146.3828125 273 131.3828125 383 117.3828125 507 c 0
 103.3828125 630 94.3828125 753 88.3828125 874 c 0
 85.498046875 932.169921875 84 982.712890625 84 1025.74023438 c 0
 84 1072.21484375 85.748046875 1109.921875 89.3828125 1139 c 0
 93.3828125 1170 137.3828125 1191 222.3828125 1205 c 0
 307.3828125 1218 402.3828125 1226 505.3828125 1228 c 0
 531.991210938 1228.51660156 558.267578125 1228.76660156 584.192382812 1228.76660156 c 0
 658.6171875 1228.76660156 730.150390625 1226.70800781 798.3828125 1223 c 0
 890.3828125 1217 945.3828125 1213 963.3828125 1208 c 0
 987.3828125 1202 1003.3828125 1175 1010.3828125 1128 c 0
 1013.7890625 1101.31542969 1015.58398438 1073.01855469 1015.58398438 1043.65917969 c 0
 1015.58398438 1021.30761719 1014.54394531 998.340820312 1012.3828125 975 c 0
 1006.3828125 921 997.3828125 871 983.3828125 827 c 0
 969.3828125 782 953.3828125 759 936.3828125 757 c 0
 896.3828125 753 848.3828125 751 792.3828125 751 c 0
 736.3828125 751 678.3828125 752 618.3828125 754 c 1
 618.3828125 744 618.3828125 732 618.3828125 715 c 0
EndSplineSet
Validated: 524289
EndChar

StartChar: G
Encoding: 71 71 38
Width: 1342
GlyphClass: 1
Flags: W
HStem: 5.41504 641.419<923.082 1229.4>
VStem: 84 443.141<514.866 730.212> 826.713 428.136<439.781 604.746>
LayerCount: 2
Fore
SplineSet
668.848632812 811 m 0
 616.848632812 792 578.848632812 763 555.848632812 722 c 0
 537.240234375 688.018554688 527.140625 654.037109375 527.140625 620.055664062 c 0
 527.140625 612.037109375 527.703125 604.018554688 528.848632812 596 c 0
 534.848632812 554 553.848632812 517 587.848632812 483 c 0
 621.848632812 449 670.848632812 431 734.848632812 428 c 0
 736.288085938 427.96875 737.70703125 427.953125 739.106445312 427.953125 c 0
 782.456054688 427.953125 807.036132812 442.938476562 812.848632812 472 c 0
 818.848632812 502 822.848632812 533 826.848632812 563 c 1
 826.7578125 563.909179688 826.712890625 564.814453125 826.712890625 565.71484375 c 0
 826.712890625 584.627929688 846.7578125 601.63671875 886.848632812 615 c 0
 928.848632812 629 974.848632812 639 1026.84863281 644 c 0
 1046.72265625 645.948242188 1066.140625 646.833984375 1085.10351562 646.833984375 c 0
 1114.80273438 646.833984375 1143.38476562 644.662109375 1170.84863281 641 c 0
 1214.84863281 635 1238.84863281 620 1241.84863281 599 c 0
 1247.84863281 559 1251.84863281 509 1254.84863281 447 c 0
 1256.48144531 396.376953125 1258.11523438 346.420898438 1258.11523438 297.67578125 c 0
 1258.11523438 286.720703125 1258.03222656 275.827148438 1257.84863281 265 c 0
 1256.84863281 205 1254.84863281 152 1250.84863281 106 c 0
 1245.84863281 60 1238.84863281 34 1229.84863281 26 c 0
 1220.84863281 15 1178.84863281 8 1101.84863281 6 c 0
 1086.82714844 5.615234375 1072.69628906 5.4150390625 1059.43359375 5.4150390625 c 0
 1003.82910156 5.4150390625 963.493164062 8.92578125 936.848632812 17 c 0
 931.848632812 17 927.848632812 22 922.848632812 30 c 1
 847.265625 11.8916015625 772.301757812 3.0810546875 698.4453125 3.0810546875 c 0
 678.49609375 3.0810546875 658.626953125 3.7236328125 638.848632812 5 c 0
 474.848632812 18 336.848632812 82 225.848632812 198 c 0
 130.65234375 296.626953125 84 416.583984375 84 555.978515625 c 0
 84 579.120117188 85.2861328125 602.795898438 87.8486328125 627 c 0
 108.848632812 813 176.848632812 957 290.848632812 1061 c 0
 404.848632812 1165 549.848632812 1221 723.848632812 1231 c 0
 733.77734375 1231.43164062 743.638671875 1231.64746094 753.431640625 1231.64746094 c 0
 857.0625 1231.64746094 952.96484375 1207.51074219 1038.84863281 1160 c 0
 1132.84863281 1107 1180.84863281 1013 1182.84863281 877 c 0
 1182.98242188 875.599609375 1183.04882812 874.212890625 1183.04882812 872.83984375 c 0
 1183.04882812 853.618164062 1169.98242188 837.06640625 1143.84863281 824 c 0
 1115.84863281 810 1081.84863281 799 1043.84863281 791 c 0
 1004.84863281 783 965.848632812 777 927.848632812 775 c 0
 908.848632812 773.5 892.848632812 772.75 879.473632812 772.75 c 0
 866.098632812 772.75 855.348632812 773.5 846.848632812 775 c 0
 824.807617188 777.875 813.786132812 786.260742188 813.786132812 800.15625 c 0
 813.786132812 800.760742188 813.807617188 801.375 813.848632812 802 c 0
 813.920898438 803.010742188 813.95703125 803.995117188 813.95703125 804.952148438 c 0
 813.95703125 817.262695312 808.0546875 825.14453125 797.848632812 827 c 0
 790.918945312 827.283203125 784.12890625 827.42578125 777.470703125 827.42578125 c 0
 737.048828125 827.42578125 701.474609375 822.161132812 668.848632812 811 c 0
EndSplineSet
Validated: 524289
EndChar

StartChar: H
Encoding: 72 72 39
Width: 1327
GlyphClass: 1
Flags: W
HStem: 0.428711 21G<317.866 357.567> 0.428711 21G<317.866 357.567> 1212.38 20G<351.408 380.888 937.389 966.869>
VStem: 84 513.639<799.122 1180.5> 737.246 506.73<803 1178.39>
LayerCount: 2
Fore
SplineSet
402.638671875 2 m 0xb8
 383.72265625 0.94921875 365.911132812 0.4287109375 349.22265625 0.4287109375 c 0
 286.508789062 0.4287109375 239.651367188 7.783203125 209.638671875 22 c 0
 192.638671875 30 175.638671875 84 159.638671875 186 c 0
 142.638671875 288 129.638671875 402 117.638671875 528 c 0
 105.638671875 654 95.638671875 776 89.638671875 894 c 0
 85.7919921875 969.008789062 84 1027.98828125 84 1070.93847656 c 0
 84 1094.98242188 84.5615234375 1114.00292969 85.638671875 1128 c 0
 88.638671875 1161 115.638671875 1186 165.638671875 1203 c 0
 215.638671875 1220 272.638671875 1230 332.638671875 1232 c 0
 340.198242188 1232.25195312 347.694335938 1232.37695312 355.122070312 1232.37695312 c 0
 406.654296875 1232.37695312 454.938476562 1226.36230469 498.638671875 1215 c 0
 548.638671875 1202 576.638671875 1182 579.638671875 1156 c 0
 584.638671875 1110 588.638671875 1057 591.638671875 995 c 0
 593.638671875 933 596.638671875 867 597.638671875 798 c 1
 643.638671875 800 689.638671875 802 739.638671875 803 c 1
 738.174804688 852.779296875 737.24609375 900.415039062 737.24609375 946.692382812 c 0
 737.24609375 963.630859375 737.370117188 980.38671875 737.638671875 997 c 0
 737.638671875 1058 739.638671875 1111 742.638671875 1156 c 0
 744.638671875 1183 769.638671875 1202 819.638671875 1216 c 0
 863.338867188 1227.36230469 911.623046875 1233.37695312 963.154296875 1233.37695312 c 0
 970.583007812 1233.37695312 978.079101562 1233.25195312 985.638671875 1233 c 0
 1045.63867188 1231 1101.63867188 1223 1153.63867188 1206 c 0
 1204.63867188 1189 1232.63867188 1165 1237.63867188 1132 c 0
 1242.34667969 1101.39453125 1243.9765625 1046.15625 1243.9765625 967.250976562 c 0
 1243.9765625 945.608398438 1243.85351562 922.184570312 1243.63867188 897 c 0
 1241.63867188 779 1237.63867188 657 1231.63867188 531 c 0
 1224.63867188 404 1215.63867188 291 1203.63867188 189 c 0
 1191.63867188 87 1177.63867188 33 1161.63867188 25 c 0
 1130.54785156 10.2724609375 1082.72070312 2.9091796875 1017.06347656 2.9091796875 c 0
 1002.47363281 2.9091796875 987.001953125 3.2724609375 970.638671875 4 c 0
 880.638671875 8 828.638671875 20 817.638671875 41 c 0
 808.638671875 52 800.638671875 84 791.638671875 138 c 0
 782.638671875 192 775.638671875 257 768.638671875 334 c 1
 738.638671875 328 708.638671875 323 678.638671875 319 c 0
 647.638671875 314 617.638671875 310 587.638671875 306 c 1
 583.638671875 236 578.638671875 177 572.638671875 129 c 0
 566.638671875 81 560.638671875 51 553.638671875 40 c 0
 543.638671875 19 492.638671875 6 402.638671875 2 c 0xb8
EndSplineSet
Validated: 524289
EndChar

StartChar: I
Encoding: 73 73 40
Width: 733
GlyphClass: 1
Flags: W
HStem: -0.0908203 21G<333.869 378.596> -0.0908203 21G<333.869 378.596> 1214.43 20G<386.306 418.72> 1214.43 20G<386.306 418.72>
VStem: 84 565.383<474.487 1179.12>
LayerCount: 2
Fore
SplineSet
422.1328125 1 m 0xa8
 403.951171875 0.2724609375 386.728515625 -0.0908203125 370.463867188 -0.0908203125 c 0
 297.2734375 -0.0908203125 243.497070312 7.2724609375 209.1328125 22 c 0
 191.1328125 30 173.1328125 84 156.1328125 186 c 0
 139.1328125 288 126.1328125 403 114.1328125 530 c 0
 102.1328125 656 94.1328125 778 88.1328125 896 c 0
 85.2685546875 952.334960938 84 999.552734375 84 1037.87109375 c 0
 84 1079.81542969 85.5205078125 1111.09667969 88.1328125 1132 c 0
 92.1328125 1164 121.1328125 1189 178.1328125 1206 c 0
 234.1328125 1223 296.1328125 1232 363.1328125 1234 c 0
 372.467773438 1234.28320312 381.721679688 1234.42578125 390.890625 1234.42578125 c 0
 446.549804688 1234.42578125 499.052734375 1229.16113281 547.1328125 1218 c 0
 602.1328125 1205 632.1328125 1185 635.1328125 1158 c 0
 644.1328125 1081 648.1328125 983 649.1328125 863 c 0
 649.299804688 843 649.3828125 823.02734375 649.3828125 803.087890625 c 0
 649.3828125 703.388671875 647.299804688 604.5 643.1328125 507 c 0
 638.1328125 390 631.1328125 288 621.1328125 198 c 0
 611.1328125 108 601.1328125 55 589.1328125 39 c 1
 578.1328125 17 522.1328125 5 422.1328125 1 c 0xa8
EndSplineSet
Validated: 524289
EndChar

StartChar: J
Encoding: 74 74 41
Width: 1276
GlyphClass: 1
Flags: W
HStem: -0.0439453 21G<617.832 668.215> -0.0439453 21G<617.832 668.215> 1207.96 20G<922.67 949.696>
VStem: 688.067 504.61<455.174 1046.94>
LayerCount: 2
Fore
SplineSet
903.399414062 46 m 0xb0
 811.198242188 15.9130859375 717.11328125 -0.0439453125 619.31640625 -0.0439453125 c 0
 616.34765625 -0.0439453125 613.375 -0.029296875 610.399414062 0 c 0
 507.399414062 2 406.399414062 24 309.399414062 66 c 0
 211.399414062 108 147.399414062 176 117.399414062 266 c 0
 100.399414062 319 90.3994140625 375 86.3994140625 435 c 0
 84.7998046875 458.599609375 84 481.879882812 84 504.904296875 c 0
 84 539.440429688 85.7998046875 573.400390625 89.3994140625 607 c 1
 89.3994140625 649 111.399414062 681 157.399414062 701 c 0
 202.399414062 721 251.399414062 733 305.399414062 735 c 0
 313.948242188 735.31640625 322.346679688 735.482421875 330.603515625 735.482421875 c 0
 374.497070312 735.482421875 414.365234375 730.783203125 451.399414062 719 c 0
 493.563476562 705.583984375 515.524414062 688.49609375 515.524414062 665.09375 c 0
 515.524414062 664.075195312 515.483398438 663.043945312 515.399414062 662 c 0
 515.899414062 642.5 516.149414062 620.25 516.149414062 595.125 c 0
 516.149414062 570 515.899414062 542 515.399414062 511 c 0
 515.3828125 509.930664062 515.374023438 508.87109375 515.374023438 507.8203125 c 0
 515.374023438 447.973632812 543.365234375 418.982421875 598.399414062 418 c 0
 599.784179688 417.961914062 601.149414062 417.942382812 602.49609375 417.942382812 c 0
 636.1484375 417.942382812 657.74609375 429.961914062 666.399414062 454 c 0
 674.399414062 479 680.399414062 507 682.399414062 538 c 0
 686.229492188 589.06640625 688.067382812 639.58984375 688.067382812 689.4921875 c 0
 688.067382812 756.85546875 684.71875 823.087890625 678.399414062 888 c 0
 669.399414062 972.75 664.899414062 1036.6875 664.899414062 1079.8125 c 0
 664.899414062 1094.1875 665.399414062 1106.25 666.399414062 1116 c 0
 668.399414062 1149 693.399414062 1175 739.399414062 1193 c 0
 785.399414062 1211 837.399414062 1223 893.399414062 1227 c 0
 905.185546875 1227.64257812 916.87890625 1227.96386719 928.461914062 1227.96386719 c 0
 970.930664062 1227.96386719 1011.89941406 1223.64257812 1050.39941406 1215 c 0
 1099.39941406 1204 1127.39941406 1184 1135.39941406 1158 c 0
 1145.39941406 1120 1156.39941406 1057 1168.39941406 967 c 0
 1180.39941406 877 1187.39941406 781 1191.39941406 679 c 0
 1192.23046875 650.748046875 1192.67773438 622.956054688 1192.67773438 595.602539062 c 0
 1192.67773438 524.203125 1189.62988281 455.794921875 1182.39941406 390 c 0
 1172.39941406 298 1151.39941406 232 1118.39941406 192 c 0
 1070.39941406 126 998.399414062 77 903.399414062 46 c 0xb0
EndSplineSet
Validated: 524289
EndChar

StartChar: K
Encoding: 75 75 42
Width: 1247
GlyphClass: 1
Flags: W
HStem: -0.102539 22.2852G<290.512 333.489 956.833 969.655> 1200.71 20G<387.653 418.002>
VStem: 84 534.936<1016 1171.68>
LayerCount: 2
Fore
SplineSet
1061.93554688 799 m 0
 1007.93554688 735 944.935546875 666 873.935546875 592 c 1
 987.935546875 534 1077.93554688 481 1145.93554688 435 c 0
 1157.33984375 426.950195312 1163.34375 410.349609375 1163.34375 385.500976562 c 0
 1163.34375 373.30859375 1161.8984375 359.12890625 1158.93554688 343 c 0
 1149.93554688 294 1133.93554688 244 1111.93554688 192 c 0
 1089.93554688 140 1062.93554688 93 1032.93554688 54 c 0
 1006.21191406 19.259765625 981.076171875 1.1826171875 958.233398438 1.1826171875 c 0
 955.432617188 1.1826171875 952.666015625 1.4541015625 949.935546875 2 c 0
 922.935546875 8 874.935546875 28 805.935546875 61 c 0
 736.935546875 94 664.935546875 130 586.935546875 171 c 1
 576.935546875 99 565.935546875 56 555.935546875 42 c 0
 543.935546875 20 487.935546875 8 388.935546875 2 c 0
 365.43359375 0.58984375 343.588867188 -0.1025390625 323.388671875 -0.1025390625 c 0
 257.634765625 -0.1025390625 209.299804688 7.23046875 177.935546875 21 c 0
 159.935546875 29 144.935546875 84 130.935546875 186 c 0
 116.935546875 288 105.935546875 404 98.935546875 531 c 0
 90.935546875 658 86.935546875 781 84.935546875 899 c 0
 84.330078125 934.727539062 84 966.879882812 84 995.45703125 c 0
 84 1061.26367188 85.7529296875 1108.11132812 89.935546875 1136 c 0
 93.935546875 1161 123.935546875 1180 177.935546875 1194 c 0
 231.935546875 1208 288.935546875 1218 351.935546875 1220 c 0
 366.434570312 1220.45996094 380.668945312 1220.70898438 394.637695312 1220.70898438 c 0
 441.3671875 1220.70898438 485.1328125 1217.92871094 525.935546875 1211 c 0
 577.935546875 1202 605.935546875 1188 607.935546875 1168 c 0
 609.935546875 1146 612.935546875 1122 614.935546875 1097 c 0
 616.935546875 1073 617.935546875 1046 618.935546875 1016 c 1
 680.935546875 1068 737.935546875 1111 789.935546875 1143 c 0
 832.512695312 1169.71484375 863.2421875 1182.49121094 881.540039062 1182.49121094 c 0
 885.16015625 1182.49121094 888.29296875 1181.99121094 890.935546875 1181 c 0
 932.935546875 1162 984.935546875 1120 1047.93554688 1055 c 0
 1109.02636719 991.970703125 1140.02636719 949.627929688 1140.02636719 927.970703125 c 0
 1140.02636719 927.293945312 1139.99609375 926.63671875 1139.93554688 926 c 0
 1140.00683594 925.25 1140.04296875 924.473632812 1140.04296875 923.669921875 c 0
 1140.04296875 901.971679688 1114.00683594 860.713867188 1061.93554688 799 c 0
EndSplineSet
Validated: 524289
EndChar

StartChar: L
Encoding: 76 76 43
Width: 1092
GlyphClass: 1
Flags: W
HStem: 0.810547 1228.19<163.935 557.99> 1 504.91<589.558 936.919>
VStem: 84 496.36<527.348 1197.84>
LayerCount: 2
Fore
SplineSet
577.360351562 1040 m 0xa0
 578.360351562 972 579.360351562 902 580.360351562 828 c 0
 581.360351562 754 582.360351562 687 584.360351562 628 c 0
 585.360351562 568 587.360351562 534 589.360351562 527 c 0
 593.360351562 515 611.360351562 508 643.360351562 507 c 0
 655.201171875 506.236328125 667.771484375 505.91015625 680.959960938 505.91015625 c 0
 702.299804688 505.91015625 725.256835938 506.763671875 749.360351562 508 c 0
 788.360351562 510 826.360351562 513 862.360351562 515 c 0
 874.360351562 515.666992188 885.137695312 516 894.693359375 516 c 0
 913.8046875 516 928.02734375 514.666992188 937.360351562 512 c 0
 956.360351562 506 972.360351562 478 984.360351562 429 c 0
 996.360351562 379 1003.36035156 326 1007.36035156 269 c 0
 1008.2890625 251.043945312 1008.73828125 233.567382812 1008.73828125 216.5703125 c 0
 1008.73828125 178.663085938 1006.50292969 143.139648438 1002.36035156 110 c 0
 996.360351562 61 984.360351562 35 966.360351562 31 c 0
 939.360351562 24 884.360351562 18 803.360351562 12 c 0
 721.360351562 6 635.360351562 2 545.360351562 1 c 0x60
 533.928710938 0.873046875 522.578125 0.810546875 511.311523438 0.810546875 c 0
 433.880859375 0.810546875 360.453125 3.76171875 292.360351562 9 c 0
 214.360351562 15 167.360351562 28 149.360351562 47 c 0
 131.360351562 66 118.360351562 129 108.360351562 234 c 0
 98.3603515625 339 91.3603515625 454 88.3603515625 580 c 0
 85.3046875 676.255859375 84 769.009765625 84 858.26171875 c 0
 84 885.841796875 84.1240234375 913.087890625 84.3603515625 940 c 0
 85.3603515625 1054 87.3603515625 1128 91.3603515625 1165 c 0
 93.3603515625 1187 118.360351562 1203 168.360351562 1213 c 0
 218.360351562 1223 273.360351562 1228 331.360351562 1229 c 0
 389.360351562 1229 443.360351562 1225 493.360351562 1216 c 0
 542.360351562 1207 568.360351562 1195 570.360351562 1180 c 0
 572.360351562 1155 575.360351562 1108 577.360351562 1040 c 0xa0
EndSplineSet
Validated: 524289
EndChar

StartChar: M
Encoding: 77 77 44
Width: 1723
GlyphClass: 1
Flags: W
HStem: 0.845703 21G<332.477 352.388> 0.845703 21G<332.477 352.388> 1206.15 20.8477G<305.75 356.75 1352.23 1378.02>
VStem: 1185.25 413<17.4844 340.005>
LayerCount: 2
Fore
SplineSet
1014.25 1019 m 0xb0
 1063.25 1090 1106.25 1144 1144.25 1180 c 0
 1161.25 1196 1193.25 1209 1241.25 1216 c 0
 1284.34960938 1222.28515625 1329.0625 1226.15234375 1375.38769531 1226.15234375 c 0
 1380.65429688 1226.15234375 1385.94140625 1226.10253906 1391.25 1226 c 0
 1443.25 1225 1491.25 1221 1533.25 1214 c 0
 1575.25 1207 1600.25 1197 1606.25 1183 c 0
 1616.25 1160 1624.25 1090 1630.25 976 c 0
 1636.25 861 1639.25 737 1639.25 603 c 0
 1639.25 469 1635.25 346 1629.25 232 c 0
 1623.25 118 1612.25 51 1598.25 30 c 0
 1587.25 17 1533.25 9 1435.25 6 c 0
 1402.58300781 4.6669921875 1373.13867188 4 1346.95410156 4 c 0
 1294.58300781 4 1255.25 6.6669921875 1229.25 12 c 0
 1213.25 15 1199.25 61 1185.25 150 c 0
 1171.25 239 1163.25 330 1158.25 421 c 1
 1148.25 410 1128.25 390 1101.25 361 c 0
 1073.25 332 1043.25 302 1012.25 272 c 0
 981.25 242 951.25 214 922.25 191 c 0
 892.25 168 871.25 156 857.25 156 c 0
 843.25 156 822.25 168 794.25 190 c 0
 766.25 212 737.25 237 707.25 267 c 0
 677.25 296 648.25 324 622.25 352 c 0
 596.25 380 577.25 400 567.25 410 c 1
 561.25 324 551.25 237 538.25 150 c 0
 525.25 63 512.25 17 497.25 12 c 0
 477.25 6 448.25 3 409.25 2 c 0
 386.733398438 1.4228515625 363.883789062 0.845703125 340.892578125 0.845703125 c 0
 324.061523438 0.845703125 307.15625 1.154296875 290.25 2 c 0
 250.25 4 214.25 7 183.25 13 c 0
 151.25 18 133.25 24 129.25 30 c 0
 115.25 50 103.25 118 96.25 234 c 0
 89.25 350 85.25 476 84.25 611 c 0
 84.0830078125 633.333007812 84 655.444335938 84 677.319335938 c 0
 84 786.694335938 86.0830078125 890.166992188 90.25 986 c 0
 95.25 1100 103.25 1166 114.25 1184 c 0
 122.25 1197 148.25 1208 190.25 1215 c 0
 232.25 1222 280.25 1226 331.25 1227 c 0
 382.25 1227 432.25 1223 479.25 1216 c 0
 526.25 1209 558.25 1196 575.25 1180 c 0
 613.25 1144 657.25 1090 707.25 1019 c 0
 757.25 948 808.25 872 860.25 794 c 1
 913.25 872 964.25 948 1014.25 1019 c 0xb0
EndSplineSet
Validated: 524289
EndChar

StartChar: N
Encoding: 78 78 45
Width: 1356
GlyphClass: 1
Flags: W
HStem: 1.53516 21G<338.304 380.775> 1204.77 20G<318.968 342.001 1048.33 1075.9>
VStem: 133.25 396<23.2507 268.418>
LayerCount: 2
Fore
SplineSet
1185.25 14 m 0
 1153.25 8 1117.25 4 1079.25 3 c 0
 1068.359375 2.44140625 1057.625 2.1953125 1047.046875 2.1953125 c 0
 1019.7421875 2.1953125 993.4765625 3.837890625 968.25 6 c 0
 932.25 9 908.25 14 895.25 20 c 0
 877.25 28 850.25 49 816.25 83 c 0
 782.25 117 746.25 155 710.25 195 c 0
 674.25 235 640.25 274 610.25 310 c 0
 580.25 345 562.25 369 554.25 380 c 1
 546.25 285 538.25 203 529.25 135 c 0
 520.25 67 510.25 30 496.25 24 c 0
 464.923828125 9.5419921875 414.888671875 1.53515625 346.661132812 1.53515625 c 0
 329.946289062 1.53515625 312.140625 2.0166015625 293.25 3 c 0
 196.25 7 143.25 20 133.25 42 c 1
 121.25 58 111.25 111 103.25 202 c 0
 94.25 293 88.25 399 86.25 517 c 0
 84.75 576 84 635.5 84 695.5 c 0
 84 755.5 84.75 816 86.25 877 c 0
 89.25 999 97.25 1098 109.25 1175 c 0
 111.25 1190 130.25 1202 166.25 1210 c 0
 201.25 1218 243.25 1222 289.25 1224 c 0
 301.133789062 1224.51660156 313.017578125 1224.76660156 324.918945312 1224.76660156 c 0
 359.083984375 1224.76660156 393.392578125 1222.70800781 428.25 1219 c 0
 474.25 1213 510.25 1205 535.25 1195 c 0
 572.25 1178 619.25 1134 674.25 1063 c 0
 729.25 991 769.25 937 794.25 900 c 1
 792.25 957 791.25 1008 789.25 1052 c 0
 788.25 1074 787.75 1093 787.75 1109.125 c 0
 787.75 1125.25 788.25 1138.5 789.25 1149 c 0
 790.25 1175 814.25 1194 862.25 1208 c 0
 910.25 1221 963.25 1228 1021.25 1230 c 0
 1032.22753906 1230.38476562 1043.01855469 1230.58496094 1053.63964844 1230.58496094 c 0
 1098.16699219 1230.58496094 1139.68652344 1227.07421875 1179.25 1219 c 0
 1227.25 1209 1253.25 1194 1255.25 1175 c 0
 1263.25 1097 1269.25 996 1271.25 874 c 0
 1272.25 813 1272.75 752.25 1272.75 692 c 0
 1272.75 631.75 1272.25 572 1271.25 513 c 0
 1269.25 395 1265.25 289 1259.25 199 c 0
 1253.25 109 1249.25 56 1243.25 42 c 0
 1237.25 29 1217.25 20 1185.25 14 c 0
EndSplineSet
Validated: 524289
EndChar

StartChar: O
Encoding: 79 79 46
Width: 1419
GlyphClass: 1
Flags: W
HStem: -0.21582 459.936<608.387 811.859> 1213.53 20G<617.965 697.446> 1213.53 20G<617.965 697.446>
LayerCount: 2
Fore
SplineSet
1082.16796875 119 m 0xc0
 977.796875 39.369140625 859.081054688 -0.2158203125 727.869140625 -0.2158203125 c 0
 689.362304688 -0.2158203125 649.780273438 3.193359375 609.16796875 10 c 0
 436.16796875 39 300.16796875 121 201.16796875 257 c 0
 122.890625 364.532226562 84 480.81640625 84 606.841796875 c 0
 84 640.205078125 86.7255859375 674.251953125 92.16796875 709 c 0
 117.16796875 863 192.16796875 992 316.16796875 1096 c 0
 424.369140625 1188.3671875 548.046875 1233.52929688 687.8828125 1233.52929688 c 0
 707.008789062 1233.52929688 726.436523438 1232.68457031 746.16796875 1231 c 0
 944.16796875 1214 1097.16796875 1139 1207.16796875 1006 c 0
 1293.33007812 901.822265625 1335.9296875 781.079101562 1335.9296875 643.770507812 c 0
 1335.9296875 605.782226562 1332.66894531 566.524414062 1326.16796875 526 c 0
 1298.16796875 358 1217.16796875 222 1082.16796875 119 c 0xc0
841.16796875 711 m 0
 816.16796875 744 779.16796875 763 732.16796875 771 c 0
 722.455078125 772.510742188 712.975585938 773.276367188 703.73828125 773.276367188 c 0
 670.180664062 773.276367188 639.829101562 763.172851562 613.16796875 742 c 0
 579.16796875 716 559.16796875 681 553.16796875 640 c 0
 551.399414062 630.17578125 550.518554688 620.58203125 550.518554688 611.221679688 c 0
 550.518554688 572.940429688 565.241210938 538.533203125 594.16796875 508 c 0
 625.059570312 475.392578125 662.578125 459.719726562 706.723632812 459.719726562 c 0
 714.024414062 459.719726562 721.504882812 460.1484375 729.16796875 461 c 0
 766.16796875 465 796.16796875 479 821.16796875 504 c 0
 846.16796875 529 860.16796875 560 866.16796875 594 c 0
 867.859375 605.116210938 868.733398438 615.823242188 868.733398438 626.122070312 c 0
 868.733398438 658.440429688 860.125976562 686.733398438 841.16796875 711 c 0
EndSplineSet
Validated: 524289
EndChar

StartChar: P
Encoding: 80 80 47
Width: 1170
GlyphClass: 1
Flags: W
HStem: 0.81543 21G<304.927 348.415> 0.81543 21G<304.927 348.415> 864.75 360.976<381.314 700.497>
VStem: 85.3145 432.33<643.417 851.59> 736.972 349.431<666.969 829.965>
LayerCount: 2
Fore
SplineSet
916.314453125 375 m 0xb8
 837.983398438 305.470703125 746.483398438 270.0234375 641.134765625 270.0234375 c 0
 626.78515625 270.0234375 612.178710938 270.681640625 597.314453125 272 c 1
 592.314453125 210 586.314453125 159 580.314453125 117 c 0
 573.314453125 75 566.314453125 49 558.314453125 39 c 0
 547.314453125 18 492.314453125 6 394.314453125 2 c 0
 375.090820312 1.2158203125 356.9453125 0.8154296875 339.884765625 0.8154296875 c 0
 269.96875 0.8154296875 218.271484375 7.5302734375 185.314453125 22 c 0
 167.314453125 30 151.314453125 83 137.314453125 182 c 0
 123.314453125 280 112.314453125 392 103.314453125 516 c 0
 94.314453125 640 87.314453125 760 85.314453125 874 c 0
 84.4853515625 921.220703125 84 962.092773438 84 996.544921875 c 0
 84 1045.26953125 84.970703125 1081.15429688 87.314453125 1104 c 0
 91.314453125 1140 122.314453125 1168 180.314453125 1187 c 0
 238.314453125 1206 305.314453125 1218 381.314453125 1223 c 0
 409.1875 1224.83398438 437.060546875 1225.72558594 465.032226562 1225.72558594 c 0
 513.329101562 1225.72558594 561.920898438 1223.06640625 611.314453125 1218 c 0
 689.314453125 1209 749.314453125 1196 792.314453125 1178 c 0
 987.951171875 1095.62597656 1086.40234375 959.505859375 1086.40234375 769.63671875 c 0
 1086.40234375 738.228515625 1083.70800781 705.349609375 1078.31445312 671 c 0
 1060.31445312 553 1005.31445312 454 916.314453125 375 c 0xb8
617.314453125 864 m 0
 611.314453125 864.5 605.564453125 864.75 600.439453125 864.75 c 0
 595.314453125 864.75 590.814453125 864.5 587.314453125 864 c 0
 540.868164062 855.803710938 517.64453125 824.383789062 517.64453125 770.49609375 c 0
 517.64453125 765.212890625 517.868164062 759.713867188 518.314453125 754 c 0
 523.314453125 690 539.314453125 648 569.314453125 629 c 0
 577.670898438 623.213867188 588.5078125 620.321289062 602.08984375 620.321289062 c 0
 609.635742188 620.321289062 618.028320312 621.213867188 627.314453125 623 c 0
 666.314453125 629 695.314453125 645 715.314453125 673 c 0
 729.4765625 693.125 736.971679688 715.47265625 736.971679688 740.456054688 c 0
 736.971679688 748.991210938 736.096679688 757.833007812 734.314453125 767 c 0
 722.314453125 825 683.314453125 857 617.314453125 864 c 0
EndSplineSet
Validated: 524289
EndChar

StartChar: Q
Encoding: 81 81 48
Width: 1630
GlyphClass: 1
Flags: WO
HStem: 0.0869141 459.804<497.115 657.105> 774.634 461.291<498.016 659.214>
VStem: 84 365.195<508.659 722.59> 699.836 369.038<503.499 733.833> 1103.93 73.3965<71.9153 511.879> 1215.64 102.279<235.547 519.18> 1385.24 99.2637<236.369 525.696> 1497.33 84.2812<17.9044 67.0707 68.2571 270.979 273.805 282.459 285.297 512.201> 1528.52 72.3887<68.2571 507.017>
LayerCount: 2
Fore
SplineSet
1032.12109375 389 m 1xfe
 1064.12109375 341 1080.12109375 305 1081.12109375 282 c 0
 1081.20410156 281.251953125 1081.24609375 280.458984375 1081.24609375 279.62109375 c 0
 1081.24609375 260.297851562 1059.08496094 217.090820312 1012.12109375 150 c 0
 964.12109375 80 926.12109375 35 898.12109375 15 c 0
 894.18359375 11.9375 889.09765625 10.40625 882.947265625 10.40625 c 0
 875.0390625 10.40625 865.37109375 12.9375 854.12109375 18 c 0
 834.12109375 27 811.12109375 40 787.12109375 58 c 1
 741.12109375 30 692.12109375 12 635.12109375 4 c 0
 615.135742188 1.3935546875 595.485351562 0.0869140625 576.170898438 0.0869140625 c 0
 462.120117188 0.0869140625 359.76953125 45.640625 269.12109375 138 c 0
 163.12109375 246 101.12109375 381 87.12109375 547 c 0
 85.04296875 570.903320312 84 594.51953125 84 617.856445312 c 0
 84 751.704101562 118.294921875 876.33984375 188.12109375 993 c 0
 270.12109375 1130 378.12109375 1209 512.12109375 1230 c 0
 536.4765625 1233.96484375 560.271484375 1235.92480469 583.52734375 1235.92480469 c 0
 642.38671875 1235.92480469 697.794921875 1223.37109375 750.12109375 1199 c 0
 823.12109375 1165 885.12109375 1115 935.12109375 1049 c 0
 985.12109375 983 1022.12109375 904 1046.12109375 813 c 0
 1061.10546875 754.365234375 1068.87402344 693.182617188 1068.87402344 629.73046875 c 0
 1068.87402344 595.7890625 1066.65136719 561.198242188 1062.12109375 526 c 0
 1055.12109375 477 1045.12109375 431 1032.12109375 389 c 1xfe
  Spiro
    1058.8 345.077 o
    1075.1 309.265 o
    1081.12 282 o
    1075.02 255.369 o
    1052.2 211.281 o
    1012.12 150 o
    947.621 63.75 o
    898.121 15 o
    887.171 10.6683 o
    872.401 11.6703 o
    854.121 18 o
    833.217 28.3586 o
    810.691 41.6444 o
    787.121 58 v
    739.984 33.3547 o
    689.587 15.3187 o
    635.121 4 o
    502.582 6.71721 o
    380.338 51.3248 o
    269.121 138 o
    178.012 255.022 o
    116.927 391.331 o
    87.121 547 o
    88.8442 703.588 o
    122.43 852.404 o
    188.121 993 o
    330.621 1155 o
    512.121 1230 o
    595.743 1235.74 o
    675.161 1225.24 o
    750.121 1199 o
    819.352 1159.71 o
    881.216 1109.61 o
    935.121 1049 o
    980.746 978.778 o
    1017.82 899.88 o
    1046.12 813 o
    1063.37 721.131 o
    1068.86 625.199 o
    1062.12 526 o
    1054.13 478.084 o
    1044.11 432.252 o
    1032.12 389 v
    0 0 z
  EndSpiro
592.2421875 772 m 0
 584.059570312 773.75390625 576.21875 774.633789062 568.674804688 774.633789062 c 0
 537.497070312 774.633789062 511.397460938 759.596679688 487.2421875 729 c 0
 462.301757812 696.319335938 449.1953125 659.940429688 449.1953125 619.2265625 c 0
 449.1953125 612.600585938 449.541992188 605.859375 450.2421875 599 c 0
 454.2421875 557 469.2421875 523 495.2421875 495 c 0
 518.236328125 472.005859375 544.857421875 459.890625 574.487304688 459.890625 c 0
 579.6484375 459.890625 584.901367188 460.2578125 590.2421875 461 c 0
 652.2421875 470 687.2421875 515 697.2421875 595 c 0
 698.973632812 608.319335938 699.8359375 620.912109375 699.8359375 632.776367188 c 0
 699.8359375 709.990234375 663.3203125 756.397460938 592.2421875 772 c 0
  Spiro
    553.057 773.303 o
    518.432 759.015 o
    487.242 729 o
    463.668 689.338 o
    451.161 645.992 o
    450.242 599 o
    457.897 559.629 o
    472.927 525.042 o
    495.242 495 o
    523.842 473.091 o
    555.646 461.586 o
    590.242 461 o
    643.272 481.93 o
    678.862 526.76 o
    697.242 595 o
    694.039 681.261 o
    658.747 740.379 o
    592.242 772 o
    0 0 z
  EndSpiro
1398.99511719 523.000976562 m 4
 1408.60644531 526.484375 1418.21777344 527.356445312 1429.30761719 527.356445312 c 4
 1440.39746094 527.356445312 1451.48632812 525.614257812 1461.09765625 523.000976562 c 4
 1471.44921875 519.514648438 1477.36328125 514.287109375 1478.84179688 506.4453125 c 4
 1481.05957031 494.24609375 1482.53808594 475.076171875 1483.27832031 447.192382812 c 4
 1484.14453125 430.860351562 1484.50292969 413.629882812 1484.50292969 395.500976562 c 4
 1484.50292969 382.684570312 1484.32324219 369.416992188 1484.01757812 355.702148438 c 4
 1483.27832031 322.590820312 1481.79882812 290.3515625 1479.58105469 258.983398438 c 4
 1477.36328125 226.743164062 1473.66601562 203.216796875 1469.23046875 184.046875 c 4
 1458.88085938 144.837890625 1444.83300781 112.598632812 1426.34960938 88.201171875 c 4
 1407.8671875 62.9306640625 1387.16601562 48.9912109375 1362.76855469 46.3779296875 c 4
 1359.73046875 46.02734375 1356.71386719 45.853515625 1353.71972656 45.853515625 c 4
 1326.84667969 45.853515625 1301.76855469 59.890625 1278.48730469 87.330078125 c 4
 1252.61132812 118.698242188 1234.8671875 160.522460938 1224.51660156 211.931640625 c 4
 1220.8203125 228.487304688 1219.34179688 252.884765625 1217.86230469 284.251953125 c 4
 1216.38378906 316.4921875 1215.64453125 348.732421875 1215.64453125 380.971679688 c 4
 1215.64453125 414.083007812 1217.12304688 442.8359375 1218.6015625 468.975585938 c 4
 1220.8203125 495.1171875 1223.77734375 512.543945312 1227.47460938 519.514648438 c 4
 1230.43066406 525.614257812 1237.08496094 529.098632812 1247.43554688 530.841796875 c 4
 1255.01171875 532.118164062 1262.58984375 532.926757812 1270.45703125 532.926757812 c 4
 1273.33691406 532.926757812 1276.25488281 532.817382812 1279.22558594 532.583984375 c 4
 1290.31640625 530.841796875 1299.92675781 529.098632812 1308.79882812 524.7421875 c 4
 1316.93164062 521.2578125 1321.3671875 516.029296875 1321.3671875 510.80078125 c 4
 1321.3671875 494.24609375 1320.62792969 470.719726562 1319.1484375 441.09375 c 4
 1318.28222656 423.739257812 1317.92382812 406.0859375 1317.92382812 388.484375 c 4
 1317.92382812 376.038085938 1318.10351562 363.6171875 1318.40917969 351.345703125 c 4
 1319.1484375 321.719726562 1320.62792969 295.581054688 1325.06347656 272.924804688 c 4
 1329.5 250.270507812 1337.63183594 237.19921875 1347.98242188 235.45703125 c 4
 1349.16992188 235.196289062 1350.31933594 235.065429688 1351.43261719 235.065429688 c 4
 1361.41308594 235.065429688 1368.46289062 245.572265625 1373.11914062 265.954101562 c 4
 1377.55566406 288.609375 1381.99121094 314.75 1383.46972656 346.118164062 c 4
 1384.55175781 368.442382812 1385.23925781 391.235351562 1385.23925781 414.15234375 c 4
 1385.23925781 422.541015625 1385.14746094 430.946289062 1384.94824219 439.3515625 c 4
 1384.94824219 460.263671875 1384.62011719 477.690429688 1384.62011719 491.374023438 c 4
 1384.62011719 498.21484375 1384.70214844 504.120117188 1384.94824219 509.05859375 c 4
 1384.94824219 515.157226562 1390.12402344 519.514648438 1398.99511719 523.000976562 c 4
  Spiro
    1408.65 525.676 o
    1418.67 527.002 o
    1429.31 527.356 o
    1440.33 526.809 o
    1451.06 525.289 o
    1461.1 523 o
    1469.96 518.906 o
    1475.89 513.441 o
    1478.84 506.444 o
    1480.81 491.874 o
    1482.29 472.214 o
    1483.28 447.193 o
    1484.29 418.469 o
    1484.48 387.911 o
    1484.02 355.702 o
    1482.35 306.69 o
    1479.58 258.984 o
    1476.9 229.514 o
    1473.39 204.809 o
    1469.23 184.049 o
    1457.63 147.229 o
    1443.37 115.151 o
    1426.35 88.2012 o
    1407.09 66.7259 o
    1385.97 52.7566 o
    1362.77 46.3769 o
    1333.23 48.6602 o
    1305.07 62.4031 o
    1278.49 87.3299 o
    1255.31 122.113 o
    1237.34 163.795 o
    1224.52 211.931 o
    1221.48 231.047 o
    1219.42 255.267 o
    1217.86 284.253 o
    1216.2 332.612 o
    1215.64 380.971 o
    1216.08 412.664 o
    1217.18 441.929 o
    1218.6 468.977 o
    1221.06 492.128 o
    1224.03 509.137 o
    1227.47 519.514 o
    1231.66 524.77 o
    1238.33 528.489 o
    1247.44 530.842 o
    1257.8 532.261 o
    1268.37 532.907 o
    1279.23 532.584 o
    1289.84 530.747 o
    1299.66 528.322 o
    1308.8 524.742 o
    1315.67 520.745 o
    1319.92 515.959 o
    1321.37 510.801 o
    1321.12 491.975 o
    1320.38 468.628 o
    1319.15 441.094 o
    1318.14 411.272 o
    1317.94 381.167 o
    1318.41 351.346 o
    1319.48 322.909 o
    1321.53 296.717 o
    1325.06 272.925 o
    1330.67 253.546 o
    1338.43 240.902 o
    1347.98 235.458 o
    1358.6 237.162 o
    1366.94 247.413 o
    1373.12 265.955 o
    1377.44 289.811 o
    1381.12 316.456 o
    1383.47 346.118 o
    1384.67 376.842 o
    1385.22 408.046 o
    1384.95 439.351 o
    1384.78 468.047 o
    1384.62 491.394 o
    1384.95 509.058 o
    1386.62 514.604 o
    1391.42 519.196 o
    1399 523 o
    0 0 z
  EndSpiro
1123.96972656 108.2421875 m 4
 1111.40136719 155.294921875 1104.74707031 210.188476562 1104.0078125 271.181640625 c 4
 1103.95507812 275.600585938 1103.92871094 279.994140625 1103.92871094 284.358398438 c 4
 1103.92871094 341.107421875 1108.39160156 393.293945312 1117.31542969 440.221679688 c 4
 1121.01269531 459.391601562 1125.44824219 479.432617188 1130.62304688 498.6015625 c 4
 1136.53808594 517.771484375 1143.19140625 534.327148438 1151.32421875 548.267578125 c 4
 1159.62597656 562.567382812 1169.02832031 569.715820312 1179.53515625 569.715820312 c 4
 1181.19335938 569.715820312 1182.88085938 569.538085938 1184.59375 569.180664062 c 4
 1194.20507812 566.567382812 1201.59863281 556.983398438 1206.7734375 540.426757812 c 4
 1209.65820312 531.197265625 1211.1640625 521.69921875 1211.1640625 512.231445312 c 4
 1211.1640625 504.712890625 1210.21484375 497.21484375 1208.25195312 489.888671875 c 4
 1187.49511719 409.301757812 1177.32519531 344.7578125 1177.32519531 295.276367188 c 4
 1177.32519531 284.834960938 1177.77734375 275.064453125 1178.67871094 265.954101562 c 4
 1184.59375 214.545898438 1191.98632812 171.849609375 1200.859375 140.481445312 c 4
 1206.7734375 119.569335938 1210.46972656 99.5283203125 1211.94824219 80.3583984375 c 4
 1212.28613281 77.439453125 1212.45214844 74.580078125 1212.45214844 71.7841796875 c 4
 1212.45214844 56.2265625 1207.30078125 42.642578125 1197.90136719 31.5634765625 c 4
 1191.72460938 25.1416015625 1185.54980469 22.0849609375 1179.28515625 22.0849609375 c 4
 1172.80371094 22.0849609375 1166.22558594 25.359375 1159.45703125 31.5634765625 c 4
 1145.41015625 47.2490234375 1133.58105469 71.6455078125 1123.96972656 108.2421875 c 4
  Spiro
    1113.38 157.792 o
    1106.71 212.343 o
    1104.01 271.183 o
    1104.99 331.214 o
    1109.44 387.738 o
    1117.32 440.222 o
    1121.25 459.598 o
    1125.7 479.226 o
    1130.62 498.602 o
    1136.81 516.883 o
    1143.66 533.471 o
    1151.32 548.269 o
    1166.85 565.913 o
    1184.59 569.181 o
    1197.35 560.032 o
    1206.77 540.427 o
    1210.44 523.662 o
    1210.99 506.653 o
    1208.25 489.889 o
    1188.28 400.158 o
    1178.46 325.494 o
    1178.68 265.955 o
    1185.08 217.592 o
    1192.49 175.49 o
    1200.86 140.482 o
    1208.07 109.767 o
    1211.95 80.3592 o
    1211.76 62.1106 o
    1206.96 45.7484 o
    1197.9 31.5641 o
    1185.32 23.0484 o
    1172.53 23.2424 o
    1159.46 31.5641 o
    1146.16 50.2599 o
    1134.31 75.6118 o
    1123.97 108.242 o
    0 0 z
  EndSpiro
1506.19628906 20.236328125 m 4
 1501.75976562 28.0791015625 1498.80273438 36.79296875 1497.32519531 48.119140625 c 4xff
 1496.56054688 54.421875 1496.19042969 60.841796875 1496.19042969 67.376953125 c 4
 1496.19042969 86.138671875 1499.234375 105.860351562 1504.71777344 126.540039062 c 4
 1513.58886719 157.909179688 1520.98339844 200.603515625 1526.89648438 252.012695312 c 4
 1527.98144531 261.598632812 1528.51855469 271.916992188 1528.51855469 282.9765625 c 4xfe80
 1528.51855469 332.2421875 1517.85253906 396.250976562 1497.32519531 475.947265625 c 4xff
 1493.99804688 489.670898438 1492.33398438 501.924804688 1492.33398438 512.70703125 c 4
 1492.33398438 516.301757812 1492.51953125 519.732421875 1492.88867188 523.000976562 c 4
 1496.67480469 545.311523438 1504.77050781 556.197265625 1517.17578125 556.197265625 c 4
 1519.30371094 556.197265625 1521.55859375 555.876953125 1523.93945312 555.239257812 c 4
 1540.20507812 550.8828125 1551.29394531 539.5546875 1559.42773438 522.127929688 c 4
 1566.08105469 509.05859375 1571.99609375 493.374023438 1576.43066406 476.818359375 c 4
 1580.8671875 460.263671875 1584.56445312 443.70703125 1588.25976562 426.28125 c 4
 1596.49511719 379.372070312 1600.90722656 327.20703125 1600.90722656 271.181640625 c 4xfe80
 1600.90722656 266.848632812 1600.88183594 262.491210938 1600.828125 258.112304688 c 4
 1600.08984375 197.118164062 1594.17480469 141.352539062 1581.60644531 94.30078125 c 4xff
 1566.8203125 40.2783203125 1549.07714844 12.3955078125 1528.37597656 7.166015625 c 4
 1527.31933594 6.91796875 1526.24804688 6.7939453125 1525.16796875 6.7939453125 c 4
 1518.68847656 6.7939453125 1511.89941406 11.2734375 1506.19628906 20.236328125 c 4
  Spiro
    1502.26 28.4251 o
    1499.29 37.6087 o
    1497.32 48.1196 o
    1496.28 73.0724 o
    1498.86 99.2649 o
    1504.72 126.54 o
    1513.09 161.549 o
    1520.5 203.651 o
    1526.9 252.013 o
    1527.45 311.552 o
    1517.46 386.217 o
    1497.32 475.947 o
    1492.89 501.434 o
    1492.89 523 o
    1499.29 543.928 o
    1509.66 554.632 o
    1523.94 555.239 o
    1538.55 548.6 o
    1550.24 537.477 o
    1559.43 522.128 o
    1565.8 508.266 o
    1571.54 493.003 o
    1576.43 476.819 o
    1580.64 460.248 o
    1584.54 443.433 o
    1588.26 426.281 o
    1595.62 373.829 o
    1599.87 317.532 o
    1600.83 258.112 o
    1598.31 199.048 o
    1592 144.076 o
    1581.61 94.3006 o
    1565.85 48.8988 o
    1548.07 20.0546 o
    1528.38 7.16662 o
    1520.83 7.45474 o
    1513.25 11.8202 o
    1506.2 20.2367 o
    0 0 z
  EndSpiro
EndSplineSet
Validated: 524289
EndChar

StartChar: R
Encoding: 82 82 49
Width: 1233
GlyphClass: 1
Flags: W
HStem: 0.745117 21G<255.463 284.345> 0.745117 21G<255.463 284.345> 886.077 366.949<342.242 629.299>
VStem: 84 374.464<680.842 879.327> 669.242 371.866<709.952 858.312>
LayerCount: 2
Fore
SplineSet
1086.2421875 382 m 0xb8
 1127.2421875 340 1148.2421875 308 1149.2421875 286 c 0
 1149.2421875 271 1140.2421875 247 1122.2421875 217 c 0
 1104.2421875 187 1085.2421875 156 1062.2421875 126 c 0
 1039.2421875 96 1017.2421875 69 995.2421875 46 c 0
 973.2421875 23 959.2421875 11 951.2421875 11 c 0
 946.62890625 10.0498046875 941.703125 9.5791015625 936.46875 9.5791015625 c 0
 903.126953125 9.5791015625 857.287109375 28.6982421875 800.2421875 65 c 0
 734.2421875 108 680.2421875 136 639.2421875 150 c 0
 625.477539062 154.235351562 613.830078125 156.352539062 604.388671875 156.352539062 c 0
 587.079101562 156.352539062 577.182617188 149.235351562 575.2421875 135 c 1
 575.34375 131.12109375 575.393554688 127.325195312 575.393554688 123.614257812 c 0
 575.393554688 90.9794921875 571.52734375 64.9580078125 565.2421875 47 c 0
 558.2421875 27 531.2421875 15 486.2421875 10 c 0
 435.2421875 4 377.2421875 2 311.2421875 1 c 0
 299.91796875 0.828125 289.30078125 0.7451171875 279.389648438 0.7451171875 c 0
 231.536132812 0.7451171875 200.153320312 2.6865234375 185.2421875 6 c 0
 173.2421875 8 163.2421875 14 156.2421875 26 c 0
 146.2421875 40 133.2421875 107 121.2421875 225 c 0
 109.2421875 343 99.2421875 470 92.2421875 608 c 0
 86.349609375 724.153320312 84 832.512695312 84 932.484375 c 0
 84 951.287109375 84.083984375 969.793945312 84.2421875 988 c 0
 85.2421875 1103 92.2421875 1165 108.2421875 1174 c 0
 166.2421875 1207 244.2421875 1230 342.2421875 1244 c 0
 384.004882812 1249.96582031 425.5859375 1253.02636719 467.0625 1253.02636719 c 0
 522.915039062 1253.02636719 578.578125 1247.4765625 634.2421875 1236 c 0
 731.2421875 1217 817.2421875 1177 894.2421875 1116 c 0
 970.2421875 1056 1017.2421875 968 1034.2421875 851 c 0
 1038.82617188 818.495117188 1041.10839844 787.900390625 1041.10839844 759.206054688 c 0
 1041.10839844 650.192382812 1008.15625 568.623046875 943.2421875 514 c 1
 997.2421875 468 1045.2421875 424 1086.2421875 382 c 0xb8
635.2421875 711 m 0
 657.2421875 737 669.2421875 763 669.2421875 791 c 0
 668.2421875 819 655.2421875 843 630.2421875 863 c 0
 610.2421875 878.384765625 583.141601562 886.077148438 547.119140625 886.077148438 c 0
 536.3125 886.077148438 524.703125 885.384765625 512.2421875 884 c 0
 476.389648438 879.92578125 458.463867188 853.278320312 458.463867188 804.057617188 c 0
 458.463867188 792.87109375 459.389648438 780.518554688 461.2421875 767 c 0
 469.650390625 698.793945312 493.7734375 665.506835938 532.79296875 665.506835938 c 0
 535.536132812 665.506835938 538.352539062 665.671875 541.2421875 666 c 0
 582.2421875 670 613.2421875 685 635.2421875 711 c 0
EndSplineSet
Validated: 524289
EndChar

StartChar: S
Encoding: 83 83 50
Width: 1134
GlyphClass: 1
Flags: W
HStem: 10.5898 359.474<500.674 629.883> 918.618 346.882<484.543 615.226>
LayerCount: 2
Fore
SplineSet
633.21875 852 m 0
 622.21875 860 616.21875 868 616.21875 878 c 0
 615.21875 888 609.21875 897 599.21875 905 c 0
 588.043945312 914.025390625 575.391601562 918.618164062 561.340820312 918.618164062 c 0
 542.69921875 918.618164062 521.59765625 910.536132812 498.21875 894 c 0
 483.727539062 884.103515625 476.482421875 874.956054688 476.482421875 866.55859375 c 0
 476.482421875 851.198242188 500.727539062 838.344726562 549.21875 828 c 0
 557.21875 826 565.21875 826 575.21875 824 c 0
 585.21875 822 595.21875 820 605.21875 818 c 0
 727.21875 797 824.21875 760 895.21875 708 c 0
 982.21875 644 1033.21875 561 1047.21875 458 c 0
 1049.19433594 442.34765625 1050.17773438 426.92578125 1050.17773438 411.73828125 c 0
 1050.17773438 326.98828125 1019.58105469 249.5390625 960.21875 180 c 0
 877.21875 84 765.21875 28 623.21875 14 c 0
 600.189453125 11.7294921875 577.633789062 10.58984375 555.564453125 10.58984375 c 0
 441.55078125 10.58984375 340.514648438 41.0009765625 254.21875 103 c 0
 165.21875 165 108.21875 245 86.21875 339 c 0
 84.7353515625 345.67578125 84 352.131835938 84 358.364257812 c 0
 84 394.142578125 108.23046875 422.560546875 154.21875 443 c 0
 178.21875 454 204.21875 462 234.21875 467 c 0
 263.21875 472 291.21875 475 317.21875 475 c 0
 361.21875 475 400.21875 470 435.21875 460 c 0
 470.21875 450 490.21875 434 495.21875 415 c 0
 496.21875 412 497.21875 408 499.21875 404 c 0
 505.21875 391 516.21875 381 533.21875 375 c 0
 541.567382812 371.66015625 550.61328125 370.063476562 560.209960938 370.063476562 c 0
 573.604492188 370.063476562 588.072265625 373.173828125 603.21875 379 c 0
 621.340820312 385.969726562 630.232421875 396.340820312 630.232421875 410.450195312 c 0
 630.232421875 416.583984375 628.552734375 423.424804688 625.21875 431 c 0
 619.21875 443 603.21875 453 577.21875 460 c 0
 515.21875 478 453.21875 492 391.21875 502 c 0
 329.21875 511 269.21875 536 214.21875 577 c 0
 174.21875 606 143.21875 645 121.21875 695 c 0
 103.870117188 732.715820312 95.625 780.672851562 95.625 837.155273438 c 0
 95.625 855.551757812 96.4990234375 874.853515625 98.21875 895 c 0
 108.21875 1007 161.21875 1098 258.21875 1170 c 0
 315.21875 1212 379.21875 1241 452.21875 1255 c 0
 488.71875 1262 524.46875 1265.5 559.59375 1265.5 c 0
 594.71875 1265.5 629.21875 1262 663.21875 1255 c 0
 731.21875 1241 793.21875 1212 848.21875 1170 c 0
 902.21875 1128 940.21875 1070 961.21875 1000 c 0
 963.333984375 992.86328125 964.400390625 986.004882812 964.400390625 979.426757812 c 0
 964.400390625 961.120117188 956.139648438 944.977539062 939.21875 931 c 0
 916.21875 911 885.21875 895 851.21875 882 c 0
 817.21875 869 781.21875 859 745.21875 853 c 0
 709.21875 847 681.21875 844 663.21875 843 c 0
 662.083984375 842.896484375 660.959960938 842.846679688 659.845703125 842.846679688 c 0
 650.166015625 842.846679688 641.290039062 846.619140625 633.21875 852 c 0
EndSplineSet
Validated: 524289
EndChar

StartChar: T
Encoding: 84 84 51
Width: 1377
GlyphClass: 1
Flags: W
HStem: -0.0400391 21G<679.153 699.633> -0.0400391 21G<679.153 699.633> 713 511<133.362 423.686 960.394 1237.99>
LayerCount: 2
Fore
SplineSet
847.393554688 13 m 0xa0
 814.393554688 7 777.393554688 3 736.393554688 1 c 0
 721.514648438 0.291015625 706.887695312 -0.0400390625 692.377929688 -0.0400390625 c 0
 665.927734375 -0.0400390625 639.869140625 1.0625 613.393554688 3 c 0
 572.393554688 6 542.393554688 13 521.393554688 22 c 0
 499.393554688 32 479.393554688 110 462.393554688 257 c 0
 444.393554688 405 431.393554688 554 422.393554688 705 c 1
 343.393554688 707 275.393554688 711 218.393554688 717 c 0
 161.393554688 724 130.393554688 734 124.393554688 747 c 0
 114.393554688 767 105.393554688 799 98.3935546875 844 c 0
 91.3935546875 890 87.3935546875 936 85.3935546875 983 c 0
 84.494140625 1004.12597656 84 1024.44433594 84 1043.86230469 c 0
 84 1067.64550781 84.7421875 1090.08105469 86.3935546875 1111 c 0
 88.3935546875 1149 96.3935546875 1171 106.393554688 1177 c 0
 121.393554688 1189 174.393554688 1200 263.393554688 1207 c 0
 352.393554688 1214 454.393554688 1220 570.393554688 1222 c 0
 645.30078125 1223.9375 721.041992188 1225.04003906 797.34765625 1225.04003906 c 0
 839.208007812 1225.04003906 881.23828125 1224.70898438 923.393554688 1224 c 0
 1042.39355469 1223 1141.39355469 1221 1218.39355469 1216 c 0
 1248.39355469 1214 1269.39355469 1187 1280.39355469 1137 c 0
 1289.03613281 1097.71386719 1293.35742188 1055.34179688 1293.35742188 1009.8828125 c 0
 1293.35742188 997.484375 1293.03613281 984.857421875 1292.39355469 972 c 0
 1289.39355469 912 1280.39355469 857 1265.39355469 807 c 0
 1250.39355469 757 1231.39355469 732 1209.39355469 730 c 0
 1189.39355469 727 1156.39355469 723 1111.39355469 720 c 0
 1066.39355469 718 1016.39355469 715 960.393554688 713 c 1
 958.393554688 563 953.393554688 418 943.393554688 278 c 0
 933.393554688 139 921.393554688 58 906.393554688 38 c 0
 900.393554688 28 880.393554688 19 847.393554688 13 c 0xa0
EndSplineSet
Validated: 524289
EndChar

StartChar: U
Encoding: 85 85 52
Width: 1415
GlyphClass: 1
Flags: W
HStem: 1.33105 473.798<628.681 789.972> 1200.25 20G<306.187 331.149>
VStem: 84 475.55<566.796 1154.86> 870.796 460.392<606.862 1151.67>
LayerCount: 2
Fore
SplineSet
935.1875 1194 m 0
 977.1875 1203 1025.1875 1207 1077.1875 1207 c 0
 1082.38769531 1207.09960938 1087.54785156 1207.15039062 1092.66992188 1207.15039062 c 0
 1138.76757812 1207.15039062 1181.78710938 1203.09960938 1223.1875 1195 c 0
 1269.1875 1186 1295.1875 1172 1303.1875 1153 c 0
 1314.1875 1125 1322.1875 1076 1327.1875 1006 c 0
 1329.85449219 959.333007812 1331.1875 910 1331.1875 858 c 0
 1331.1875 832 1330.85449219 805.333007812 1330.1875 778 c 0
 1327.1875 696 1319.1875 615 1308.1875 536 c 0
 1296.1875 457 1280.1875 395 1259.1875 349 c 0
 1214.1875 251 1149.1875 171 1063.1875 109 c 0
 977.1875 47 878.1875 12 767.1875 3 c 0
 751.59375 1.8857421875 736.135742188 1.3310546875 720.810546875 1.3310546875 c 0
 598.548828125 1.3310546875 484.709960938 36.6884765625 377.1875 106 c 0
 256.1875 184 172.1875 288 126.1875 418 c 0
 111.1875 460 99.1875 520 93.1875 599 c 0
 87.0625 668.125 84 738.78125 84 809.62890625 c 0
 84 819.75 84.0625 829.875 84.1875 840 c 0
 85.1875 921 89.1875 994 98.1875 1060 c 0
 107.1875 1126 120.1875 1169 138.1875 1187 c 0
 153.1875 1201 185.1875 1211 232.1875 1216 c 0
 260.978515625 1219.0625 290.895507812 1220.24902344 321.477539062 1220.24902344 c 0
 340.8203125 1220.24902344 360.428710938 1219.77441406 380.1875 1219 c 0
 430.1875 1217 476.1875 1210 516.1875 1200 c 0
 555.1875 1191 575.1875 1179 575.1875 1165 c 0
 574.1875 1123 571.1875 1065 565.1875 990 c 0
 561.340820312 942.55859375 559.549804688 894.294921875 559.549804688 846.263671875 c 0
 559.549804688 819.375 560.110351562 792.55859375 561.1875 766 c 0
 563.1875 692 574.1875 626 594.1875 569 c 0
 613.1875 512 648.1875 482 698.1875 476 c 0
 703.413085938 475.418945312 708.5078125 475.12890625 713.469726562 475.12890625 c 0
 759.779296875 475.12890625 794.509765625 500.418945312 816.1875 551 c 0
 839.1875 608 855.1875 673 862.1875 751 c 0
 867.758789062 813.075195312 870.795898438 875.783203125 870.795898438 938.116210938 c 0
 870.795898438 954.108398438 870.595703125 970.075195312 870.1875 986 c 0
 869.1875 1025 868.6875 1059 868.6875 1088 c 0
 868.6875 1117 869.1875 1141 870.1875 1160 c 0
 871.1875 1174 893.1875 1186 935.1875 1194 c 0
EndSplineSet
Validated: 524289
EndChar

StartChar: V
Encoding: 86 86 53
Width: 1539
GlyphClass: 1
Flags: W
HStem: 0 21G<763.508 802.508> 0 21G<763.508 802.508> 1204.18 20G<460.187 480.894 1051.95 1072.54>
LayerCount: 2
Fore
SplineSet
895.0078125 980 m 0xa0
 937.0078125 1070 974.0078125 1144 1007.0078125 1199 c 0
 1017.30761719 1215.91992188 1036.80761719 1224.18164062 1067.09960938 1224.18164062 c 0
 1077.984375 1224.18164062 1090.26269531 1223.11425781 1104.0078125 1221 c 0
 1156.0078125 1212 1209.0078125 1196 1264.0078125 1171 c 0
 1318.0078125 1146 1366.0078125 1115 1407.0078125 1080 c 0
 1439.53710938 1051.53710938 1455.53320312 1024.39648438 1455.53320312 999.1171875 c 0
 1455.53320312 993.311523438 1454.68945312 987.603515625 1453.0078125 982 c 0
 1442.0078125 946 1414.0078125 877 1369.0078125 775 c 0
 1324.0078125 673 1276.0078125 569 1222.0078125 459 c 0
 1168.0078125 349 1117.0078125 251 1067.0078125 162 c 0
 1017.0078125 73 981.0078125 24 959.0078125 14 c 0
 949.0078125 9 927.0078125 5 893.0078125 3 c 0
 859.0078125 1 822.0078125 0 783.0078125 0 c 0
 744.0078125 0 707.0078125 2 673.0078125 4 c 0
 639.0078125 6 617.0078125 10 607.0078125 14 c 0
 585.0078125 24 548.0078125 70 498.0078125 154 c 0
 448.0078125 238 393.0078125 335 338.0078125 441 c 0
 282.0078125 547 230.0078125 653 183.0078125 756 c 0
 135.0078125 859 103.0078125 935 87.0078125 982 c 0
 85 988.024414062 84 994.168945312 84 1000.42773438 c 0
 84 1025.33398438 99.83984375 1052.02832031 131.0078125 1080 c 0
 170.0078125 1115 216.0078125 1146 270.0078125 1171 c 0
 324.0078125 1196 377.0078125 1212 429.0078125 1221 c 0
 442.489257812 1223.11425781 454.712890625 1224.18164062 465.66015625 1224.18164062 c 0
 496.126953125 1224.18164062 516.708984375 1215.91992188 527.0078125 1199 c 0
 571.0078125 1124 613.0078125 1044 654.0078125 958 c 0
 695.0078125 872 735.0078125 788 774.0078125 707 c 1
 813.0078125 797 853.0078125 890 895.0078125 980 c 0xa0
EndSplineSet
Validated: 524289
EndChar

StartChar: W
Encoding: 87 87 54
Width: 1636
GlyphClass: 1
Flags: W
HStem: 0.75 21G<1188.22 1214.23> 0.75 21G<1188.22 1214.23> 1210.19 20G<361.29 382.523 1251.71 1364.15>
LayerCount: 2
Fore
SplineSet
1379.14941406 13 m 0xa0
 1337.14941406 6 1289.14941406 2 1236.14941406 1 c 0
 1227.31640625 0.8330078125 1218.56640625 0.75 1209.89550781 0.75 c 0
 1166.5390625 0.75 1125.14941406 2.8330078125 1085.14941406 7 c 0
 1036.14941406 12 1005.14941406 21 991.149414062 34 c 0
 969.149414062 51 943.149414062 79 910.149414062 121 c 0
 877.149414062 162 852.149414062 194 834.149414062 218 c 1
 813.149414062 189 789.149414062 156 763.149414062 121 c 0
 737.149414062 85 711.149414062 56 685.149414062 34 c 0
 671.149414062 22 639.149414062 14 592.149414062 9 c 0
 554.672851562 5.876953125 515.975585938 3.36328125 476.060546875 3.36328125 c 0
 464.852539062 3.36328125 453.549804688 3.5615234375 442.149414062 4 c 0
 389.149414062 5 340.149414062 9 298.149414062 15 c 0
 255.149414062 22 231.149414062 31 227.149414062 42 c 0
 195.149414062 117 169.149414062 215 148.149414062 336 c 0
 127.149414062 456 111.149414062 576 101.149414062 694 c 0
 90.1494140625 812 84.1494140625 917 84.1494140625 1007 c 0
 84.0498046875 1016.09960938 84 1024.8203125 84 1033.16308594 c 0
 84 1108.25 88.0498046875 1152.79980469 96.1494140625 1169 c 0
 100.149414062 1179 118.149414062 1190 152.149414062 1200 c 0
 186.149414062 1210 224.149414062 1217 267.149414062 1223 c 0
 304.595703125 1227.35449219 342.799804688 1230.19140625 379.780273438 1230.19140625 c 0
 385.265625 1230.19140625 390.724609375 1230.12890625 396.149414062 1230 c 0
 438.149414062 1230 471.149414062 1226 493.149414062 1216 c 0
 514.149414062 1206 532.149414062 1142 550.149414062 1025 c 0
 567.149414062 907 586.149414062 783 605.149414062 650 c 1
 620.149414062 666 658.149414062 706 716.149414062 771 c 0
 774.149414062 835 814.149414062 869 835.149414062 871 c 0
 835.650390625 871.055664062 836.1640625 871.083007812 836.692382812 871.083007812 c 0
 855.165039062 871.083007812 890.651367188 837.109375 943.149414062 771 c 0
 996.149414062 704 1029.14941406 662 1041.14941406 648 c 1
 1055.14941406 781 1070.14941406 906 1087.14941406 1024 c 0
 1104.14941406 1142 1122.14941406 1206 1143.14941406 1216 c 0
 1164.14941406 1226 1196.14941406 1230 1238.14941406 1230 c 0
 1243.57519531 1230.12890625 1249 1230.19140625 1254.42578125 1230.19140625 c 0
 1364.14941406 1223 l 0
 1406.14941406 1217 1444.14941406 1210 1478.14941406 1200 c 0
 1512.14941406 1190 1531.14941406 1179 1535.14941406 1169 c 0
 1545.14941406 1151 1550.14941406 1098 1552.14941406 1008 c 0
 1552.55859375 989.625 1552.7578125 970.624023438 1552.7578125 951.015625 c 0
 1552.7578125 874.583007812 1549.72070312 788.908203125 1544.14941406 695 c 0
 1537.14941406 577 1525.14941406 459 1510.14941406 338 c 0
 1494.14941406 217 1474.14941406 119 1450.14941406 42 c 0
 1446.14941406 30 1421.14941406 20 1379.14941406 13 c 0xa0
EndSplineSet
Validated: 524289
EndChar

StartChar: X
Encoding: 88 88 55
Width: 1395
GlyphClass: 1
Flags: W
HStem: -0.648438 21G<395.816 413.712> 1219.12 20G<411.398 427.839 1028.31 1035.11>
LayerCount: 2
Fore
SplineSet
1085.18652344 1200 m 0
 1113.18652344 1180 1143.18652344 1154 1173.18652344 1124 c 0
 1203.18652344 1094 1233.18652344 1064 1259.18652344 1031 c 0
 1285.18652344 998 1302.18652344 970 1310.18652344 948 c 0
 1310.81054688 946.3359375 1311.12109375 944.422851562 1311.12109375 942.260742188 c 0
 1311.12109375 923.638671875 1288.08984375 886.551757812 1244.18652344 831 c 0
 1195.18652344 769 1134.18652344 697 1060.18652344 616 c 1
 1127.18652344 540 1183.18652344 473 1228.18652344 415 c 0
 1273.18652344 357 1297.18652344 320 1299.18652344 303 c 0
 1299.59863281 301.353515625 1299.80273438 299.555664062 1299.80273438 297.60546875 c 0
 1299.80273438 285.341796875 1291.71679688 267.020507812 1276.18652344 242 c 0
 1258.18652344 212 1234.18652344 182 1206.18652344 150 c 0
 1178.18652344 118 1147.18652344 88 1116.18652344 61 c 0
 1085.18652344 34 1058.18652344 16 1036.18652344 8 c 0
 1034.62597656 7.3759765625 1032.79589844 7.0654296875 1030.69628906 7.0654296875 c 0
 1012.60644531 7.0654296875 974.530273438 30.0966796875 917.186523438 74 c 0
 853.186523438 123 784.186523438 183 711.186523438 257 c 1
 650.186523438 197 596.186523438 145 549.186523438 101 c 0
 501.186523438 57 467.186523438 27 446.186523438 12 c 0
 434.734375 3.5166015625 421.302734375 -0.6484375 406.12109375 -0.6484375 c 0
 385.510742188 -0.6484375 361.674804688 7.0283203125 335.186523438 22 c 0
 288.186523438 48 244.186523438 85 202.186523438 129 c 0
 160.186523438 173 128.186523438 219 105.186523438 266 c 0
 91.1943359375 293.401367188 84 316.383789062 84 335.145507812 c 0
 84 348.565429688 87.6806640625 359.826171875 95.1865234375 369 c 0
 122.186523438 401 157.186523438 439 199.186523438 483 c 0
 241.186523438 527 287.186523438 575 337.186523438 625 c 1
 220.186523438 744 144.186523438 826 109.186523438 872 c 0
 99.599609375 883.869140625 94.8056640625 898.448242188 94.8056640625 915.260742188 c 0
 94.8056640625 935.276367188 101.599609375 958.456054688 115.186523438 984 c 0
 140.186523438 1031 175.186523438 1075 218.186523438 1117 c 0
 260.186523438 1159 305.186523438 1192 351.186523438 1217 c 0
 378.190429688 1231.67578125 401.747070312 1239.11523438 421.049804688 1239.11523438 c 0
 434.627929688 1239.11523438 446.1015625 1235.43359375 455.186523438 1228 c 0
 489.186523438 1200 527.186523438 1165 572.186523438 1123 c 0
 617.186523438 1081 664.186523438 1034 714.186523438 984 c 1
 789.186523438 1052 855.186523438 1109 913.186523438 1155 c 0
 971.186523438 1201 1008.18652344 1224 1025.18652344 1226 c 0
 1026.375 1226.19824219 1027.64160156 1226.29785156 1028.98632812 1226.29785156 c 0
 1041.22558594 1226.29785156 1059.95898438 1218.01953125 1085.18652344 1200 c 0
EndSplineSet
Validated: 524289
EndChar

StartChar: Y
Encoding: 89 89 56
Width: 1434
GlyphClass: 1
Flags: W
HStem: 0.25 21G<671.298 692.048> 0.25 21G<671.298 692.048> 1194.1 20G<1063.5 1080.12>
LayerCount: 2
Fore
SplineSet
1243.92285156 747 m 0xa0
 1175.92285156 664 1093.92285156 576 999.922851562 485 c 1
 993.922851562 373 985.922851562 272 971.922851562 183 c 0
 957.922851562 94 943.922851562 41 931.922851562 26 c 0
 925.922851562 19 903.922851562 13 866.922851562 9 c 0
 828.922851562 5 789.922851562 2 745.922851562 1 c 0
 723.922851562 0.5 702.422851562 0.25 681.672851562 0.25 c 0
 660.922851562 0.25 640.922851562 0.5 621.922851562 1 c 0
 582.922851562 2 558.922851562 5 550.922851562 10 c 0
 532.922851562 20 514.922851562 69 496.922851562 158 c 0
 477.922851562 247 462.922851562 347 452.922851562 458 c 1
 354.922851562 551 268.922851562 639 197.922851562 725 c 0
 125.922851562 811 87.9228515625 866 84.9228515625 892 c 0
 84.3076171875 894.307617188 84 896.852539062 84 899.6328125 c 0
 84 914.928710938 93.3076171875 937.384765625 111.922851562 967 c 0
 133.922851562 1002 159.922851562 1038 190.922851562 1074 c 0
 221.922851562 1110 253.922851562 1141 284.922851562 1169 c 0
 315.922851562 1197 337.922851562 1211 351.922851562 1212 c 0
 352.993164062 1212.06933594 354.084960938 1212.10351562 355.198242188 1212.10351562 c 0
 386.329101562 1212.10351562 434.270507812 1185.13574219 499.922851562 1133 c 0
 566.922851562 1078 638.922851562 1014 715.922851562 940 c 1
 793.922851562 1014 865.922851562 1079 933.922851562 1134 c 0
 998.611328125 1187.10253906 1047.45214844 1214.10351562 1079.546875 1214.10351562 c 0
 1080.69335938 1214.10351562 1081.81933594 1214.06933594 1082.92285156 1214 c 0
 1096.92285156 1213 1118.92285156 1199 1149.92285156 1173 c 0
 1180.92285156 1147 1212.92285156 1116 1243.92285156 1082 c 0
 1274.92285156 1048 1301.92285156 1014 1323.92285156 980 c 0
 1342.30566406 951.58984375 1350.9140625 930.860351562 1350.9140625 916.060546875 c 0
 1350.9140625 913.1484375 1350.58105469 910.465820312 1349.92285156 908 c 0
 1345.92285156 883 1310.92285156 829 1243.92285156 747 c 0xa0
EndSplineSet
Validated: 524289
EndChar

StartChar: Z
Encoding: 90 90 57
Width: 1253
GlyphClass: 1
Flags: W
HStem: 2 476.393<823.332 1127.34> 769 462<184.707 514.332>
VStem: 84 1085.33<43.1646 385.276>
LayerCount: 2
Fore
SplineSet
135.33203125 873 m 0
 129.33203125 905 126.33203125 941 124.33203125 981 c 0
 123.623046875 995.169921875 123.291015625 1009.33984375 123.291015625 1023.46582031 c 0
 123.291015625 1049.21484375 124.39453125 1074.81542969 126.33203125 1100 c 0
 129.33203125 1139 136.33203125 1168 145.33203125 1187 c 0
 152.33203125 1204 197.33203125 1215 283.33203125 1221 c 0
 369.33203125 1227 464.33203125 1231 570.33203125 1231 c 0
 676.33203125 1231 779.33203125 1228 877.33203125 1224 c 0
 975.33203125 1219 1041.33203125 1215 1075.33203125 1210 c 0
 1100.33203125 1206 1118.33203125 1186 1132.33203125 1151 c 0
 1146.33203125 1115 1154.33203125 1075 1157.33203125 1029 c 0
 1157.9140625 1015.61425781 1158.2421875 1002.39746094 1158.2421875 989.301757812 c 0
 1158.2421875 957.392578125 1156.29492188 926.196289062 1151.33203125 895 c 0
 1144.33203125 851 1132.33203125 818 1116.33203125 798 c 2
 1115.33203125 797 l 1
 1081.33203125 754 1038.33203125 704 987.33203125 649 c 0
 936.33203125 593 881.33203125 535 823.33203125 476 c 1
 867.987304688 477.463867188 909.426757812 478.392578125 946.866210938 478.392578125 c 0
 960.5703125 478.392578125 973.73828125 478.267578125 986.33203125 478 c 0
 1033.33203125 477 1067.33203125 474 1087.33203125 471 c 0
 1115.33203125 466 1135.33203125 441 1149.33203125 394 c 0
 1163.33203125 347 1169.33203125 294 1169.33203125 239 c 0
 1169.33203125 184 1163.33203125 133 1151.33203125 87 c 0
 1138.33203125 41 1119.33203125 17 1096.33203125 15 c 0
 1030.33203125 9 944.33203125 4 838.33203125 2 c 0
 785.33203125 1 732.83203125 0.5 680.83203125 0.5 c 0
 628.83203125 0.5 577.33203125 1 526.33203125 2 c 0
 423.33203125 3 332.33203125 7 253.33203125 14 c 0
 174.33203125 20 127.33203125 30 113.33203125 42 c 0
 95.33203125 53 86.33203125 103 84.33203125 192 c 0
 84.111328125 201.828125 84 211.364257812 84 220.607421875 c 0
 84 295.063476562 91.208984375 350.52734375 106.33203125 387 c 0
 117.33203125 418 165.33203125 469 248.33203125 543 c 0
 330.33203125 617 420.33203125 692 514.33203125 769 c 1
 424.33203125 771 344.33203125 778 277.33203125 787 c 0
 209.33203125 796 170.33203125 806 157.33203125 817 c 0
 148.33203125 823 141.33203125 841 135.33203125 873 c 0
EndSplineSet
Validated: 524289
EndChar

StartChar: bracketleft
Encoding: 91 91 58
Width: 786
GlyphClass: 1
Flags: W
HStem: -91 385<441.361 674.972> 909 383<432.361 675.153> 917 349<435.124 681.109>
VStem: 84.3613 618.369<21.6254 259.221 943.739 1263.54> 88.3613 353.392<296.863 909>
LayerCount: 2
Fore
SplineSet
702.361328125 1124 m 0xb0
 702.60546875 1114.34667969 702.73046875 1104.9609375 702.73046875 1095.84667969 c 0
 702.73046875 1030.375 696.283203125 978.8671875 681.361328125 942 c 0
 676.361328125 931 647.361328125 923 597.361328125 917 c 0xb0
 546.361328125 911 491.361328125 909 432.361328125 909 c 1
 435.361328125 823 437.361328125 720 439.361328125 598 c 0
 440.825195312 508.689453125 441.752929688 430.633789062 441.752929688 363.438476562 c 0xc8
 441.752929688 338.84375 441.62890625 315.704101562 441.361328125 294 c 1
 498.361328125 293 551.361328125 290 600.361328125 285 c 0
 649.361328125 279 676.361328125 271 681.361328125 261 c 0
 696.283203125 223.254882812 702.73046875 171.639648438 702.73046875 106.831054688 c 0xd0
 702.73046875 97.8095703125 702.60546875 88.53125 702.361328125 79 c 0
 700.361328125 1 690.361328125 -46 675.361328125 -62 c 0
 667.361328125 -68 640.361328125 -72 593.361328125 -78 c 0
 546.361328125 -84 494.361328125 -88 436.361328125 -91 c 0
 392.861328125 -93.25 350.486328125 -94.375 309.236328125 -94.375 c 0
 295.486328125 -94.375 281.861328125 -94.25 268.361328125 -94 c 0
 214.361328125 -93 175.361328125 -89 153.361328125 -81 c 0
 135.361328125 -74 120.361328125 -11 110.361328125 110 c 0
 100.361328125 231 92.361328125 368 88.361328125 519 c 0xc8
 85.3056640625 634.353515625 84 746.206054688 84 855.001953125 c 0
 84 888.622070312 84.125 921.950195312 84.361328125 955 c 0
 85.361328125 1094 87.361328125 1186 91.361328125 1231 c 0
 92.361328125 1256 122.361328125 1271 182.361328125 1280 c 0
 235.4609375 1288.09960938 294.23046875 1292.15039062 357.212890625 1292.15039062 c 0
 364.2109375 1292.15039062 371.260742188 1292.09960938 378.361328125 1292 c 0xd0
 449.361328125 1291 515.361328125 1289 577.361328125 1283 c 0
 638.361328125 1277 671.361328125 1271 675.361328125 1266 c 0
 690.361328125 1250 700.361328125 1202 702.361328125 1124 c 0xb0
EndSplineSet
Validated: 524289
EndChar

StartChar: backslash
Encoding: 92 92 59
Width: 990
GlyphClass: 1
Flags: W
HStem: -0.328125 21G<658.108 671.312> 1193.34 20G<327.404 344.107>
LayerCount: 2
Fore
SplineSet
546.42578125 135 m 0
 496.42578125 217 443.42578125 312 385.42578125 421 c 0
 327.42578125 530 269.42578125 641 214.42578125 755 c 0
 159.42578125 869 116.42578125 964 86.42578125 1039 c 0
 84.81640625 1043.36621094 84 1047.99707031 84 1052.85546875 c 0
 84 1069.13671875 93.1708984375 1087.97558594 112.42578125 1108 c 0
 136.42578125 1134 166.42578125 1157 202.42578125 1176 c 0
 238.42578125 1195 273.42578125 1207 311.42578125 1212 c 0
 318.075195312 1212.8984375 324.40234375 1213.34472656 330.40625 1213.34472656 c 0
 357.807617188 1213.34472656 378.48046875 1204.04589844 392.42578125 1186 c 0
 415.42578125 1152 457.42578125 1078 519.42578125 968 c 0
 580.42578125 858 640.42578125 741 702.42578125 619 c 0
 764.42578125 497 816.42578125 387 858.42578125 286 c 0
 890.202148438 209.5859375 906.5234375 157.78515625 906.5234375 131.03125 c 0
 906.5234375 122.422851562 904.833007812 116.408203125 901.42578125 113 c 0
 873.42578125 83 829.42578125 55 768.42578125 30 c 0
 718.182617188 9.4091796875 682.186523438 -0.328125 660.436523438 -0.328125 c 0
 655.780273438 -0.328125 651.776367188 0.1181640625 648.42578125 1 c 1
 630.42578125 9 596.42578125 53 546.42578125 135 c 0
EndSplineSet
Validated: 524289
EndChar

StartChar: bracketright
Encoding: 93 93 60
Width: 786
GlyphClass: 1
Flags: W
HStem: -94.375 388.375<110.677 345.333> 909 383<110.541 353.333>
VStem: 353.333 349.36<296.863 909>
LayerCount: 2
Fore
SplineSet
208.333007812 1283 m 0
 269.333007812 1289 335.333007812 1291 406.333007812 1292 c 0
 413.432617188 1292.09960938 420.483398438 1292.15039062 427.482421875 1292.15039062 c 0
 490.47265625 1292.15039062 549.333007812 1288.09960938 603.333007812 1280 c 0
 662.333007812 1271 692.333007812 1256 694.333007812 1231 c 0
 698.333007812 1186 701.333007812 1094 702.333007812 955 c 0
 702.569335938 921.950195312 702.693359375 888.622070312 702.693359375 855.001953125 c 0
 702.693359375 746.206054688 701.388671875 634.353515625 698.333007812 519 c 0
 694.333007812 368 686.333007812 231 676.333007812 110 c 0
 666.333007812 -11 650.333007812 -74 632.333007812 -81 c 0
 610.333007812 -89 572.333007812 -93 518.333007812 -94 c 0
 504.833007812 -94.25 491.145507812 -94.375 477.301757812 -94.375 c 0
 435.770507812 -94.375 392.833007812 -93.25 349.333007812 -91 c 0
 291.333007812 -88 239.333007812 -84 192.333007812 -78 c 0
 145.333007812 -72 117.333007812 -68 110.333007812 -62 c 0
 95.3330078125 -46 86.3330078125 1 84.3330078125 79 c 0
 84.1103515625 87.6669921875 84 96.123046875 84 104.369140625 c 0
 84 170.333007812 91.1103515625 222.77734375 105.333007812 261 c 0
 109.333007812 271 136.333007812 279 185.333007812 285 c 0
 234.333007812 290 287.333007812 293 345.333007812 294 c 1
 344.755859375 340.765625 344.178710938 394.197265625 344.178710938 454.48828125 c 0
 344.178710938 498.625 344.487304688 546.436523438 345.333007812 598 c 0
 347.333007812 720 349.333007812 823 353.333007812 909 c 1
 293.333007812 909 238.333007812 911 188.333007812 917 c 0
 137.333007812 923 109.333007812 931 105.333007812 942 c 0
 91.1103515625 979.333007812 84 1031.67871094 84 1098.33496094 c 0
 84 1106.66699219 84.1103515625 1115.22265625 84.3330078125 1124 c 0
 86.3330078125 1202 95.3330078125 1250 110.333007812 1266 c 0
 114.333007812 1271 146.333007812 1277 208.333007812 1283 c 0
EndSplineSet
Validated: 524289
EndChar

StartChar: asciicircum
Encoding: 94 94 61
Width: 741
GlyphClass: 1
Flags: W
HStem: 824.096 407.904
LayerCount: 2
Fore
SplineSet
608.765625 880 m 0
 576.946289062 847.422851562 552.587890625 830.916992188 534.822265625 830.916992188 c 0
 529.137695312 830.916992188 524.12890625 832.606445312 519.765625 836 c 0
 508.765625 844 487.765625 862 457.765625 888 c 0
 427.765625 915 396.765625 945 365.765625 975 c 1
 338.765625 943 312.765625 912 286.765625 885 c 0
 260.765625 857 243.765625 839 233.765625 831 c 0
 228.569335938 826.380859375 222.2890625 824.095703125 214.901367188 824.095703125 c 0
 196.700195312 824.095703125 171.774414062 837.970703125 139.765625 865 c 0
 102.2265625 896.826171875 84 921.328125 84 937.959960938 c 0
 84 941.708007812 84.92578125 945.056640625 86.765625 948 c 0
 116.765625 991 165.765625 1049 231.765625 1120 c 0
 297.765625 1192 337.765625 1230 351.765625 1232 c 0
 352.684570312 1232.34472656 353.749023438 1232.51757812 354.958007812 1232.51757812 c 0
 364.276367188 1232.51757812 382.211914062 1222.24316406 408.765625 1201 c 0
 438.765625 1177 470.765625 1149 504.765625 1117 c 0
 538.765625 1085 569.765625 1054 599.765625 1024 c 0
 628.765625 994 646.765625 975 653.765625 967 c 0
 656.431640625 963.888671875 657.765625 959.987304688 657.765625 955.329101562 c 0
 657.765625 939.024414062 641.431640625 913.444335938 608.765625 880 c 0
EndSplineSet
Validated: 524289
EndChar

StartChar: underscore
Encoding: 95 95 62
Width: 1079
GlyphClass: 1
Flags: W
HStem: 4 382.266<139.184 963.032>
LayerCount: 2
Fore
SplineSet
994.592773438 217 m 0
 995.313476562 201.8515625 995.677734375 187.581054688 995.677734375 174.194335938 c 0
 995.677734375 113.3515625 988.166015625 70.7705078125 972.592773438 47 c 0
 963.592773438 35 921.592773438 25 847.592773438 18 c 0
 773.592773438 11 689.592773438 6 597.592773438 4 c 0
 505.592773438 2 416.592773438 0 331.592773438 0 c 0
 245.592773438 1 189.592773438 3 160.592773438 6 c 0
 136.592773438 8 117.592773438 27 105.592773438 65 c 0
 92.5927734375 103 86.5927734375 143 84.5927734375 187 c 0
 84.2001953125 195.630859375 84 204.145507812 84 212.545898438 c 0
 84 246.96875 87.357421875 279.454101562 94.5927734375 310 c 0
 103.592773438 348 116.592773438 368 136.592773438 370 c 0
 191.592773438 376 264.592773438 381 352.592773438 383 c 0
 423.627929688 384.6328125 494.663085938 386.265625 565.153320312 386.265625 c 0
 580.99609375 386.265625 596.811523438 386.18359375 612.592773438 386 c 0
 698.592773438 385 773.592773438 382 839.592773438 377 c 0
 905.592773438 372 944.592773438 366 956.592773438 357 c 1
 977.592773438 348 989.592773438 301 994.592773438 217 c 0
EndSplineSet
Validated: 524289
EndChar

StartChar: grave
Encoding: 96 96 63
Width: 623
GlyphClass: 1
Flags: W
HStem: 820.154 430.56<270.526 382.703>
VStem: 84 455.537<968.136 1051.18>
LayerCount: 2
Fore
SplineSet
247.317382812 897 m 0
 173.317382812 954 119.317382812 1003 86.3173828125 1044 c 0
 84.7490234375 1045.83007812 84 1048.20605469 84 1051.18261719 c 0
 84 1059.59277344 89.9765625 1072.79589844 100.317382812 1092 c 0
 114.317382812 1118 132.317382812 1144 155.317382812 1170 c 0
 178.317382812 1196 202.317382812 1218 228.317382812 1235 c 0
 244.4609375 1245.55566406 258.291015625 1250.71386719 270.526367188 1250.71386719 c 0
 277.997070312 1250.71386719 284.873046875 1248.79101562 291.317382812 1245 c 0
 304.317382812 1239 325.317382812 1222 355.317382812 1196 c 0
 385.317382812 1170 413.317382812 1140 443.317382812 1109 c 0
 473.317382812 1078 497.317382812 1048 517.317382812 1018 c 0
 532.416992188 996.104492188 539.537109375 979.33984375 539.537109375 968.135742188 c 0
 539.537109375 964.5 538.787109375 961.450195312 537.317382812 959 c 0
 521.317382812 934 495.317382812 905 459.317382812 872 c 0
 423.317382812 839 400.317382812 823 389.317382812 821 c 0
 387.342773438 820.435546875 385.137695312 820.154296875 382.703125 820.154296875 c 0
 359.240234375 820.154296875 314.359375 846.265625 247.317382812 897 c 0
EndSplineSet
Validated: 524289
EndChar

StartChar: a
Encoding: 97 97 64
Width: 1351
GlyphClass: 1
Flags: W
HStem: 1.21582 21G<908.741 924.512> 248 273.751<546.749 748.076> 1199.75 20G<668.887 696.012>
LayerCount: 2
Fore
SplineSet
84.07421875 67 m 0
 84.0244140625 69.599609375 84 72.2646484375 84 74.9951171875 c 0
 84 126.865234375 93.0244140625 202.200195312 111.07421875 301 c 0
 130.07421875 405 154.07421875 514 183.07421875 626 c 0
 212.07421875 738 242.07421875 843 275.07421875 941 c 0
 307.07421875 1039 335.07421875 1108 359.07421875 1148 c 0
 369.07421875 1164 397.07421875 1178 444.07421875 1191 c 0
 490.07421875 1204 542.07421875 1211 599.07421875 1216 c 0
 627.57421875 1218.5 655.32421875 1219.75 682.44921875 1219.75 c 0
 709.57421875 1219.75 736.07421875 1218.5 762.07421875 1216 c 0
 814.07421875 1211 850.07421875 1199 871.07421875 1180 c 0
 901.07421875 1151 937.07421875 1088 978.07421875 990 c 0
 1019.07421875 892 1058.07421875 786 1097.07421875 671 c 0
 1136.07421875 556 1171.07421875 446 1202.07421875 340 c 0
 1233.07421875 234 1254.07421875 160 1264.07421875 116 c 0
 1266.6171875 104.377929688 1267.83984375 94.20703125 1267.83984375 85.3427734375 c 0
 1267.83984375 69.80078125 1264.07910156 58.2783203125 1257.07421875 50 c 0
 1246.07421875 37 1227.07421875 28 1199.07421875 23 c 0
 1152.07421875 15 1094.07421875 10 1024.07421875 6 c 0
 972.831054688 3.072265625 936.056640625 1.2158203125 912.966796875 1.2158203125 c 0
 904.515625 1.2158203125 897.897460938 1.4638671875 893.07421875 2 c 0
 886.07421875 4 880.07421875 7 874.07421875 10 c 0
 855.07421875 22 837.07421875 55 819.07421875 111 c 0
 801.07421875 167 783.07421875 205 766.07421875 226 c 0
 756.07421875 239 743.07421875 245 726.07421875 247 c 2
 595.07421875 248 l 2
 554.07421875 247 527.07421875 233 515.07421875 207 c 0
 499.07421875 173 480.07421875 137 460.07421875 95 c 0
 440.07421875 54 425.07421875 29 415.07421875 19 c 0
 410.07421875 13 404.07421875 9 394.07421875 7 c 0
 380.59765625 3.9375 355.864257812 2.7509765625 320.102539062 2.7509765625 c 0
 297.484375 2.7509765625 270.456054688 3.2255859375 239.07421875 4 c 0
 157.07421875 6 111.07421875 14 100.07421875 28 c 0
 90.07421875 39 85.07421875 52 84.07421875 67 c 0
567.07421875 640 m 0
 552.857421875 605.248046875 545.502929688 579.852539062 545.502929688 563.815429688 c 0
 545.502929688 559.547851562 546.0234375 555.942382812 547.07421875 553 c 0
 554.41015625 531.91015625 583.606445312 521.750976562 636.206054688 521.750976562 c 0
 640.969726562 521.750976562 645.92578125 521.833984375 651.07421875 522 c 0
 712.07421875 524 745.07421875 539 751.07421875 566 c 0
 751.311523438 567.341796875 751.4296875 568.80859375 751.4296875 570.401367188 c 0
 751.4296875 588.979492188 735.311523438 624.658203125 703.07421875 679 c 0
 677.666992188 721.830078125 655.948242188 743.0546875 637.91796875 743.0546875 c 0
 631.111328125 743.0546875 624.830078125 740.029296875 619.07421875 734 c 0
 601.07421875 716 584.07421875 684 567.07421875 640 c 0
EndSplineSet
Validated: 524289
EndChar

StartChar: b
Encoding: 98 98 65
Width: 1192
GlyphClass: 1
Flags: W
HStem: 2 300.821<500.78 668.831> 532.105 246.176<510.837 619.312> 962 277.25<447.894 626.059>
VStem: 86.3936 395.893<331.181 521.564 783.246 936.413> 648.394 349.42<808.75 939.115> 700.418 408.125<334.918 484.407>
LayerCount: 2
Fore
SplineSet
624.393554688 2 m 0xf4
 568.393554688 1 508.393554688 0 445.393554688 0 c 0
 381.393554688 1 321.393554688 3 264.393554688 6 c 0
 207.393554688 10 169.393554688 15 149.393554688 24 c 0
 131.393554688 31 116.393554688 85 106.393554688 187 c 0
 96.3935546875 289 89.3935546875 402 86.3935546875 528 c 0
 84.7421875 597.364257812 84 665.516601562 84 732.2890625 c 0
 84 786.809570312 84.494140625 840.41015625 85.3935546875 893 c 0
 87.3935546875 1011 94.3935546875 1089 101.393554688 1128 c 0
 106.393554688 1153 132.393554688 1176 181.393554688 1195 c 0
 230.393554688 1214 288.393554688 1227 358.393554688 1234 c 0
 393.393554688 1237.5 429.393554688 1239.25 466.393554688 1239.25 c 0
 503.393554688 1239.25 541.393554688 1237.5 580.393554688 1234 c 0
 658.393554688 1227 729.393554688 1209 793.393554688 1181 c 0
 887.393554688 1139 949.393554688 1071 980.393554688 976 c 0
 991.955078125 940.568359375 997.813476562 905.97265625 997.813476562 872.209960938 c 0xf8
 997.813476562 815.447265625 981.25390625 761.043945312 947.393554688 709 c 1
 950.393554688 707 l 1
 1020.39355469 665 1067.39355469 609 1090.39355469 541 c 0
 1102.49316406 503.599609375 1108.54296875 464.990234375 1108.54296875 425.169921875 c 0
 1108.54296875 392.58984375 1104.49316406 359.200195312 1096.39355469 325 c 0
 1076.39355469 242 1035.39355469 170 970.393554688 110 c 0
 905.393554688 50 827.393554688 16 736.393554688 7 c 0
 717.393554688 5 679.393554688 4 624.393554688 2 c 0xf4
481.393554688 847 m 0
 485.393554688 809 495.393554688 788 510.393554688 783 c 0
 519.861328125 779.84375 529.4296875 778.28125 539.06640625 778.28125 c 0
 559.9609375 778.28125 581.177734375 785.627929688 602.393554688 800 c 0
 633.393554688 821 648.393554688 848 648.393554688 879 c 0
 648.393554688 900 640.393554688 919 622.393554688 936 c 0
 604.393554688 953 576.393554688 961 539.393554688 962 c 0
 506.393554688 962 487.393554688 954 483.393554688 937 c 0
 479.987304688 924.508789062 478.192382812 909.439453125 478.192382812 891.791015625 c 0
 478.192382812 878.35546875 479.232421875 863.424804688 481.393554688 847 c 0
616.393554688 313 m 0
 672.625976562 328.572265625 700.41796875 358.364257812 700.41796875 401.081054688 c 0xf4
 700.41796875 407.741210938 699.7421875 414.715820312 698.393554688 422 c 0
 691.393554688 461 667.393554688 491 625.393554688 513 c 0
 601.077148438 525.737304688 577.767578125 532.10546875 555.65625 532.10546875 c 0
 539.576171875 532.10546875 524.129882812 528.737304688 509.393554688 522 c 0
 491.393554688 513 482.393554688 485 482.393554688 439 c 0
 482.322265625 435.713867188 482.286132812 432.479492188 482.286132812 429.295898438 c 0
 482.286132812 387.903320312 488.322265625 355.071289062 500.393554688 330 c 0
 508.479492188 311.9609375 526.239257812 302.821289062 554.15234375 302.821289062 c 0
 571.114257812 302.821289062 591.825195312 306.196289062 616.393554688 313 c 0
EndSplineSet
Validated: 524289
EndChar

StartChar: c
Encoding: 99 99 66
Width: 1149
GlyphClass: 1
Flags: W
HStem: -0.0439453 456.99<618.088 951.899> 808 422.413<710.853 907.51>
VStem: 84 487.238<503.81 694.872>
LayerCount: 2
Fore
SplineSet
845.075195312 804 m 0
 822.075195312 802 799.075195312 800 777.075195312 796 c 0
 721.075195312 785 671.075195312 758 625.075195312 716 c 0
 588.858398438 682.932617188 571.23828125 644.28515625 571.23828125 599.083007812 c 0
 571.23828125 586.874023438 572.5234375 574.185546875 575.075195312 561 c 0
 581.075195312 533 594.075195312 511 615.075195312 495 c 0
 646.895507812 469.9296875 688.942382812 456.946289062 741.217773438 456.946289062 c 0
 743.15625 456.946289062 745.108398438 456.963867188 747.075195312 457 c 0
 802.075195312 459 849.075195312 464 889.075195312 473 c 0
 899.09765625 476.188476562 909.119140625 477.924804688 919.140625 477.924804688 c 0
 955.075195312 470 l 0
 975.075195312 460 992.075195312 443 1008.07519531 420 c 0
 1033.07519531 382 1050.07519531 330 1060.07519531 266 c 0
 1063.3515625 242.706054688 1065.03710938 221.002929688 1065.03710938 200.791992188 c 0
 1065.03710938 165.47265625 1059.88867188 134.713867188 1049.07519531 108 c 0
 1035.07519531 74 1015.07519531 53 988.075195312 47 c 1
 903.63671875 15.9423828125 809.77734375 -0.0439453125 708.327148438 -0.0439453125 c 0
 705.25 -0.0439453125 702.166015625 -0.029296875 699.075195312 0 c 0
 594.075195312 1 500.075195312 20 417.075195312 58 c 0
 304.075195312 108 218.075195312 185 158.075195312 283 c 0
 108.311523438 364.28125 84 455.881835938 84 556.659179688 c 0
 84 577.387695312 85.0283203125 598.504882812 87.0751953125 620 c 0
 108.075195312 820 187.075195312 976 325.075195312 1089 c 0
 440.446289062 1183.47070312 578.881835938 1230.41308594 740.966796875 1230.41308594 c 0
 772.758789062 1230.41308594 805.459960938 1228.60742188 839.075195312 1225 c 0
 873.075195312 1221 903.075195312 1204 929.075195312 1172 c 0
 955.075195312 1140 976.075195312 1083 993.075195312 1004 c 0
 998.427734375 979.129882812 1001.10351562 956.340820312 1001.10351562 935.6328125 c 0
 1001.10351562 890.5625 988.427734375 855.3515625 963.075195312 830 c 0
 949.075195312 816 933.075195312 809 915.075195312 808 c 0
 892.075195312 807 868.075195312 806 845.075195312 804 c 0
EndSplineSet
Validated: 524289
EndChar

StartChar: d
Encoding: 100 100 67
Width: 1242
GlyphClass: 1
Flags: W
HStem: -0.115234 482.777<515.688 692.004> 752.375 481.325<298.368 670.241>
VStem: 84 413.938<491.779 746.999> 741.943 416.344<520.781 688.836>
LayerCount: 2
Fore
SplineSet
831.368164062 74 m 0
 709.24609375 23.9970703125 580.650390625 -0.115234375 445.583007812 -0.115234375 c 0
 440.188476562 -0.115234375 434.783203125 -0.0771484375 429.368164062 0 c 0
 381.368164062 1 334.368164062 4 290.368164062 10 c 0
 245.368164062 16 213.368164062 22 193.368164062 31 c 0
 162.368164062 44 137.368164062 108 119.368164062 222 c 0
 101.368164062 336 89.3681640625 462 85.3681640625 598 c 0
 84.4443359375 629.432617188 84 660.33203125 84 690.721679688 c 0
 84 791.81640625 88.9111328125 887.272460938 97.3681640625 978 c 0
 108.368164062 1096 129.368164062 1164 159.368164062 1182 c 0
 189.368164062 1201 236.368164062 1215 298.368164062 1224 c 0
 344.331054688 1230.43457031 391.983398438 1233.70019531 441.326171875 1233.70019531 c 0
 499.337890625 1233.70019531 559.684570312 1229.18652344 622.368164062 1220 c 0
 738.368164062 1203 836.368164062 1164 917.368164062 1100 c 0
 1023.36816406 1014 1095.36816406 901 1134.36816406 760 c 0
 1150.265625 700.596679688 1158.28710938 642.943359375 1158.28710938 586.747070312 c 0
 1158.28710938 508.610351562 1142.77832031 433.290039062 1111.36816406 360 c 0
 1052.36816406 221 958.368164062 125 831.368164062 74 c 0
501.368164062 590 m 0
 506.368164062 533 518.368164062 499 536.368164062 489 c 0
 543.431640625 484.291015625 554.8046875 482.662109375 571.939453125 482.662109375 c 0
 576.638671875 482.662109375 581.772460938 482.78515625 587.368164062 483 c 0
 629.368164062 484 664.368164062 493 693.368164062 511 c 0
 722.368164062 529 738.368164062 556 741.368164062 591 c 0
 741.752929688 595.1328125 741.943359375 599.2109375 741.943359375 603.232421875 c 0
 741.943359375 641.047851562 725.100585938 673.883789062 694.368164062 701 c 0
 659.368164062 731 622.368164062 748 584.368164062 752 c 0
 580.618164062 752.25 576.805664062 752.375 572.961914062 752.375 c 0
 561.430664062 752.375 549.618164062 751.25 538.368164062 749 c 0
 522.368164062 745 511.368164062 736 506.368164062 719 c 0
 500.826171875 700.526367188 497.938476562 677.50390625 497.938476562 649.229492188 c 0
 497.938476562 631.587890625 499.063476562 611.901367188 501.368164062 590 c 0
EndSplineSet
Validated: 524289
EndChar

StartChar: e
Encoding: 101 101 68
Width: 1099
GlyphClass: 1
Flags: W
HStem: 5 430.333<594.375 950.371> 831 398.255<579.375 923.788>
VStem: 84.375 692.638<487.103 761.42>
LayerCount: 2
Fore
SplineSet
847.375 434 m 0
 864.041015625 434.888671875 879.176757812 435.333007812 892.79296875 435.333007812 c 0
 940.448242188 435.333007812 969.485351562 429.888671875 980.375 419 c 0
 994.375 407 1005.375 356 1012.375 266 c 0
 1014.52832031 233.69921875 1015.65039062 204.618164062 1015.65039062 178.711914062 c 0
 1015.65039062 132.434570312 1012.06738281 96.28515625 1004.375 70 c 0
 998.375 53 956.375 38 878.375 27 c 0
 800.375 16 712.375 9 614.375 5 c 0
 549.041015625 2.3330078125 485.9296875 1 424.448242188 1 c 0
 393.708007812 1 363.375 1.3330078125 333.375 2 c 0
 243.375 4 185.375 12 158.375 24 c 0
 142.375 30 129.375 74 119.375 154 c 0
 109.375 233 100.375 327 94.375 434 c 0
 88.375 540 85.375 650 84.375 761 c 0
 84.125 788.75 84 815.1875 84 840.328125 c 0
 84 915.75 85.125 979.5 87.375 1032 c 0
 87.375 1070 91.375 1106 97.375 1138 c 0
 103.375 1169 112.375 1189 126.375 1197 c 0
 140.375 1205 186.375 1212 267.375 1218 c 0
 348.375 1224 434.375 1227 528.375 1229 c 0
 544.501953125 1229.171875 560.39453125 1229.25488281 576.056640625 1229.25488281 c 0
 651.678710938 1229.25488281 721.928710938 1227.31347656 787.375 1224 c 0
 866.375 1219 912.375 1212 924.375 1200 c 0
 938.375 1188 947.375 1142 949.375 1061 c 0
 949.66015625 1049.42871094 949.802734375 1038.265625 949.802734375 1027.50976562 c 0
 949.802734375 962.979492188 944.66015625 913.142578125 934.375 878 c 0
 928.375 859 891.375 847 822.375 843 c 0
 752.375 838 671.375 834 579.375 831 c 1
 579.375 825 579.375 817 580.375 808 c 0
 581.375 799 581.375 792 582.375 786 c 1
 642.375 785 691.375 780 729.375 772 c 0
 738.375 770 747.375 754 756.375 725 c 0
 765.375 695 770.375 664 774.375 630 c 0
 775.98046875 611.803710938 777.012695312 594.180664062 777.012695312 577.129882812 c 0
 777.012695312 562.321289062 776.233398438 547.944335938 774.375 534 c 0
 770.375 504 761.375 489 746.375 487 c 0
 736.375 484 716.375 481 688.375 479 c 0
 660.375 477 628.375 474 594.375 473 c 1
 594.375 466 594.375 458 594.375 449 c 0
 594.375 440 594.375 432 594.375 426 c 1
 688.375 427 772.375 430 847.375 434 c 0
EndSplineSet
Validated: 524289
EndChar

StartChar: f
Encoding: 102 102 69
Width: 1099
GlyphClass: 1
Flags: W
HStem: 1.7002 21G<344.008 388.403> 264.74 410.26<618.383 866.878> 754 474.767<618.383 934.502>
LayerCount: 2
Fore
SplineSet
618.3828125 715 m 0
 618.3828125 698 618.3828125 685 618.3828125 675 c 1
 679.3828125 674 735.3828125 672 786.3828125 668 c 0
 837.3828125 664 873.3828125 660 892.3828125 655 c 0
 910.3828125 649 921.3828125 629 927.3828125 591 c 0
 930.294921875 568.862304688 931.850585938 545.706054688 931.850585938 521.532226562 c 0
 931.850585938 504.2109375 931.051757812 486.366210938 929.3828125 468 c 0
 925.3828125 424 917.3828125 384 906.3828125 347 c 0
 895.3828125 309 882.3828125 289 868.3828125 286 c 0
 836.3828125 278 797.3828125 272 751.3828125 269 c 0
 713.530273438 266.53125 674.323242188 264.740234375 634.3203125 264.740234375 c 0
 625.708984375 264.740234375 617.061523438 264.823242188 608.3828125 265 c 1
 599.3828125 133 587.3828125 57 570.3828125 36 c 1
 558.3828125 15 505.3828125 4 411.3828125 2 c 0
 401.982421875 1.7998046875 392.842773438 1.7001953125 383.963867188 1.7001953125 c 0
 304.052734375 1.7001953125 245.282226562 9.7998046875 208.3828125 26 c 0
 194.3828125 32 180.3828125 82 163.3828125 178 c 0
 146.3828125 273 131.3828125 383 117.3828125 507 c 0
 103.3828125 630 94.3828125 753 88.3828125 874 c 0
 85.498046875 932.169921875 84 982.712890625 84 1025.74023438 c 0
 84 1072.21484375 85.748046875 1109.921875 89.3828125 1139 c 0
 93.3828125 1170 137.3828125 1191 222.3828125 1205 c 0
 307.3828125 1218 402.3828125 1226 505.3828125 1228 c 0
 531.991210938 1228.51660156 558.267578125 1228.76660156 584.192382812 1228.76660156 c 0
 658.6171875 1228.76660156 730.150390625 1226.70800781 798.3828125 1223 c 0
 890.3828125 1217 945.3828125 1213 963.3828125 1208 c 0
 987.3828125 1202 1003.3828125 1175 1010.3828125 1128 c 0
 1013.7890625 1101.31542969 1015.58398438 1073.01855469 1015.58398438 1043.65917969 c 0
 1015.58398438 1021.30761719 1014.54394531 998.340820312 1012.3828125 975 c 0
 1006.3828125 921 997.3828125 871 983.3828125 827 c 0
 969.3828125 782 953.3828125 759 936.3828125 757 c 0
 896.3828125 753 848.3828125 751 792.3828125 751 c 0
 736.3828125 751 678.3828125 752 618.3828125 754 c 1
 618.3828125 744 618.3828125 732 618.3828125 715 c 0
EndSplineSet
Validated: 524289
EndChar

StartChar: g
Encoding: 103 103 70
Width: 1342
GlyphClass: 1
Flags: W
HStem: 5.41504 641.419<923.082 1229.4>
VStem: 84 443.141<514.866 730.212> 826.713 428.136<439.781 604.746>
LayerCount: 2
Fore
SplineSet
668.848632812 811 m 0
 616.848632812 792 578.848632812 763 555.848632812 722 c 0
 537.240234375 688.018554688 527.140625 654.037109375 527.140625 620.055664062 c 0
 527.140625 612.037109375 527.703125 604.018554688 528.848632812 596 c 0
 534.848632812 554 553.848632812 517 587.848632812 483 c 0
 621.848632812 449 670.848632812 431 734.848632812 428 c 0
 736.288085938 427.96875 737.70703125 427.953125 739.106445312 427.953125 c 0
 782.456054688 427.953125 807.036132812 442.938476562 812.848632812 472 c 0
 818.848632812 502 822.848632812 533 826.848632812 563 c 1
 826.7578125 563.909179688 826.712890625 564.814453125 826.712890625 565.71484375 c 0
 826.712890625 584.627929688 846.7578125 601.63671875 886.848632812 615 c 0
 928.848632812 629 974.848632812 639 1026.84863281 644 c 0
 1046.72265625 645.948242188 1066.140625 646.833984375 1085.10351562 646.833984375 c 0
 1114.80273438 646.833984375 1143.38476562 644.662109375 1170.84863281 641 c 0
 1214.84863281 635 1238.84863281 620 1241.84863281 599 c 0
 1247.84863281 559 1251.84863281 509 1254.84863281 447 c 0
 1256.48144531 396.376953125 1258.11523438 346.420898438 1258.11523438 297.67578125 c 0
 1258.11523438 286.720703125 1258.03222656 275.827148438 1257.84863281 265 c 0
 1256.84863281 205 1254.84863281 152 1250.84863281 106 c 0
 1245.84863281 60 1238.84863281 34 1229.84863281 26 c 0
 1220.84863281 15 1178.84863281 8 1101.84863281 6 c 0
 1086.82714844 5.615234375 1072.69628906 5.4150390625 1059.43359375 5.4150390625 c 0
 1003.82910156 5.4150390625 963.493164062 8.92578125 936.848632812 17 c 0
 931.848632812 17 927.848632812 22 922.848632812 30 c 1
 847.265625 11.8916015625 772.301757812 3.0810546875 698.4453125 3.0810546875 c 0
 678.49609375 3.0810546875 658.626953125 3.7236328125 638.848632812 5 c 0
 474.848632812 18 336.848632812 82 225.848632812 198 c 0
 130.65234375 296.626953125 84 416.583984375 84 555.978515625 c 0
 84 579.120117188 85.2861328125 602.795898438 87.8486328125 627 c 0
 108.848632812 813 176.848632812 957 290.848632812 1061 c 0
 404.848632812 1165 549.848632812 1221 723.848632812 1231 c 0
 733.77734375 1231.43164062 743.638671875 1231.64746094 753.431640625 1231.64746094 c 0
 857.0625 1231.64746094 952.96484375 1207.51074219 1038.84863281 1160 c 0
 1132.84863281 1107 1180.84863281 1013 1182.84863281 877 c 0
 1182.98242188 875.599609375 1183.04882812 874.212890625 1183.04882812 872.83984375 c 0
 1183.04882812 853.618164062 1169.98242188 837.06640625 1143.84863281 824 c 0
 1115.84863281 810 1081.84863281 799 1043.84863281 791 c 0
 1004.84863281 783 965.848632812 777 927.848632812 775 c 0
 908.848632812 773.5 892.848632812 772.75 879.473632812 772.75 c 0
 866.098632812 772.75 855.348632812 773.5 846.848632812 775 c 0
 824.807617188 777.875 813.786132812 786.260742188 813.786132812 800.15625 c 0
 813.786132812 800.760742188 813.807617188 801.375 813.848632812 802 c 0
 813.920898438 803.010742188 813.95703125 803.995117188 813.95703125 804.952148438 c 0
 813.95703125 817.262695312 808.0546875 825.14453125 797.848632812 827 c 0
 790.918945312 827.283203125 784.12890625 827.42578125 777.470703125 827.42578125 c 0
 737.048828125 827.42578125 701.474609375 822.161132812 668.848632812 811 c 0
EndSplineSet
Validated: 524289
EndChar

StartChar: h
Encoding: 104 104 71
Width: 1327
GlyphClass: 1
Flags: W
HStem: 0.428711 21G<317.866 357.567> 0.428711 21G<317.866 357.567> 1212.38 20G<351.408 380.888 937.389 966.869>
VStem: 84 513.639<799.122 1180.5> 737.246 506.73<803 1178.39>
LayerCount: 2
Fore
SplineSet
402.638671875 2 m 0xb8
 383.72265625 0.94921875 365.911132812 0.4287109375 349.22265625 0.4287109375 c 0
 286.508789062 0.4287109375 239.651367188 7.783203125 209.638671875 22 c 0
 192.638671875 30 175.638671875 84 159.638671875 186 c 0
 142.638671875 288 129.638671875 402 117.638671875 528 c 0
 105.638671875 654 95.638671875 776 89.638671875 894 c 0
 85.7919921875 969.008789062 84 1027.98828125 84 1070.93847656 c 0
 84 1094.98242188 84.5615234375 1114.00292969 85.638671875 1128 c 0
 88.638671875 1161 115.638671875 1186 165.638671875 1203 c 0
 215.638671875 1220 272.638671875 1230 332.638671875 1232 c 0
 340.198242188 1232.25195312 347.694335938 1232.37695312 355.122070312 1232.37695312 c 0
 406.654296875 1232.37695312 454.938476562 1226.36230469 498.638671875 1215 c 0
 548.638671875 1202 576.638671875 1182 579.638671875 1156 c 0
 584.638671875 1110 588.638671875 1057 591.638671875 995 c 0
 593.638671875 933 596.638671875 867 597.638671875 798 c 1
 643.638671875 800 689.638671875 802 739.638671875 803 c 1
 738.174804688 852.779296875 737.24609375 900.415039062 737.24609375 946.692382812 c 0
 737.24609375 963.630859375 737.370117188 980.38671875 737.638671875 997 c 0
 737.638671875 1058 739.638671875 1111 742.638671875 1156 c 0
 744.638671875 1183 769.638671875 1202 819.638671875 1216 c 0
 863.338867188 1227.36230469 911.623046875 1233.37695312 963.154296875 1233.37695312 c 0
 970.583007812 1233.37695312 978.079101562 1233.25195312 985.638671875 1233 c 0
 1045.63867188 1231 1101.63867188 1223 1153.63867188 1206 c 0
 1204.63867188 1189 1232.63867188 1165 1237.63867188 1132 c 0
 1242.34667969 1101.39453125 1243.9765625 1046.15625 1243.9765625 967.250976562 c 0
 1243.9765625 945.608398438 1243.85351562 922.184570312 1243.63867188 897 c 0
 1241.63867188 779 1237.63867188 657 1231.63867188 531 c 0
 1224.63867188 404 1215.63867188 291 1203.63867188 189 c 0
 1191.63867188 87 1177.63867188 33 1161.63867188 25 c 0
 1130.54785156 10.2724609375 1082.72070312 2.9091796875 1017.06347656 2.9091796875 c 0
 1002.47363281 2.9091796875 987.001953125 3.2724609375 970.638671875 4 c 0
 880.638671875 8 828.638671875 20 817.638671875 41 c 0
 808.638671875 52 800.638671875 84 791.638671875 138 c 0
 782.638671875 192 775.638671875 257 768.638671875 334 c 1
 738.638671875 328 708.638671875 323 678.638671875 319 c 0
 647.638671875 314 617.638671875 310 587.638671875 306 c 1
 583.638671875 236 578.638671875 177 572.638671875 129 c 0
 566.638671875 81 560.638671875 51 553.638671875 40 c 0
 543.638671875 19 492.638671875 6 402.638671875 2 c 0xb8
EndSplineSet
Validated: 524289
EndChar

StartChar: i
Encoding: 105 105 72
Width: 733
GlyphClass: 1
Flags: W
HStem: -0.0908203 21G<333.869 378.596> -0.0908203 21G<333.869 378.596> 1214.43 20G<386.306 418.72> 1214.43 20G<386.306 418.72>
VStem: 84 565.383<474.487 1179.12>
LayerCount: 2
Fore
SplineSet
422.1328125 1 m 0xa8
 403.951171875 0.2724609375 386.728515625 -0.0908203125 370.463867188 -0.0908203125 c 0
 297.2734375 -0.0908203125 243.497070312 7.2724609375 209.1328125 22 c 0
 191.1328125 30 173.1328125 84 156.1328125 186 c 0
 139.1328125 288 126.1328125 403 114.1328125 530 c 0
 102.1328125 656 94.1328125 778 88.1328125 896 c 0
 85.2685546875 952.334960938 84 999.552734375 84 1037.87109375 c 0
 84 1079.81542969 85.5205078125 1111.09667969 88.1328125 1132 c 0
 92.1328125 1164 121.1328125 1189 178.1328125 1206 c 0
 234.1328125 1223 296.1328125 1232 363.1328125 1234 c 0
 372.467773438 1234.28320312 381.721679688 1234.42578125 390.890625 1234.42578125 c 0
 446.549804688 1234.42578125 499.052734375 1229.16113281 547.1328125 1218 c 0
 602.1328125 1205 632.1328125 1185 635.1328125 1158 c 0
 644.1328125 1081 648.1328125 983 649.1328125 863 c 0
 649.299804688 843 649.3828125 823.02734375 649.3828125 803.087890625 c 0
 649.3828125 703.388671875 647.299804688 604.5 643.1328125 507 c 0
 638.1328125 390 631.1328125 288 621.1328125 198 c 0
 611.1328125 108 601.1328125 55 589.1328125 39 c 1
 578.1328125 17 522.1328125 5 422.1328125 1 c 0xa8
EndSplineSet
Validated: 524289
EndChar

StartChar: j
Encoding: 106 106 73
Width: 1276
GlyphClass: 1
Flags: W
HStem: -0.0439453 21G<617.832 668.215> -0.0439453 21G<617.832 668.215> 1207.96 20G<922.67 949.696>
VStem: 688.067 504.61<455.174 1046.94>
LayerCount: 2
Fore
SplineSet
903.399414062 46 m 0xb0
 811.198242188 15.9130859375 717.11328125 -0.0439453125 619.31640625 -0.0439453125 c 0
 616.34765625 -0.0439453125 613.375 -0.029296875 610.399414062 0 c 0
 507.399414062 2 406.399414062 24 309.399414062 66 c 0
 211.399414062 108 147.399414062 176 117.399414062 266 c 0
 100.399414062 319 90.3994140625 375 86.3994140625 435 c 0
 84.7998046875 458.599609375 84 481.879882812 84 504.904296875 c 0
 84 539.440429688 85.7998046875 573.400390625 89.3994140625 607 c 1
 89.3994140625 649 111.399414062 681 157.399414062 701 c 0
 202.399414062 721 251.399414062 733 305.399414062 735 c 0
 313.948242188 735.31640625 322.346679688 735.482421875 330.603515625 735.482421875 c 0
 374.497070312 735.482421875 414.365234375 730.783203125 451.399414062 719 c 0
 493.563476562 705.583984375 515.524414062 688.49609375 515.524414062 665.09375 c 0
 515.524414062 664.075195312 515.483398438 663.043945312 515.399414062 662 c 0
 515.899414062 642.5 516.149414062 620.25 516.149414062 595.125 c 0
 516.149414062 570 515.899414062 542 515.399414062 511 c 0
 515.3828125 509.930664062 515.374023438 508.87109375 515.374023438 507.8203125 c 0
 515.374023438 447.973632812 543.365234375 418.982421875 598.399414062 418 c 0
 599.784179688 417.961914062 601.149414062 417.942382812 602.49609375 417.942382812 c 0
 636.1484375 417.942382812 657.74609375 429.961914062 666.399414062 454 c 0
 674.399414062 479 680.399414062 507 682.399414062 538 c 0
 686.229492188 589.06640625 688.067382812 639.58984375 688.067382812 689.4921875 c 0
 688.067382812 756.85546875 684.71875 823.087890625 678.399414062 888 c 0
 669.399414062 972.75 664.899414062 1036.6875 664.899414062 1079.8125 c 0
 664.899414062 1094.1875 665.399414062 1106.25 666.399414062 1116 c 0
 668.399414062 1149 693.399414062 1175 739.399414062 1193 c 0
 785.399414062 1211 837.399414062 1223 893.399414062 1227 c 0
 905.185546875 1227.64257812 916.87890625 1227.96386719 928.461914062 1227.96386719 c 0
 970.930664062 1227.96386719 1011.89941406 1223.64257812 1050.39941406 1215 c 0
 1099.39941406 1204 1127.39941406 1184 1135.39941406 1158 c 0
 1145.39941406 1120 1156.39941406 1057 1168.39941406 967 c 0
 1180.39941406 877 1187.39941406 781 1191.39941406 679 c 0
 1192.23046875 650.748046875 1192.67773438 622.956054688 1192.67773438 595.602539062 c 0
 1192.67773438 524.203125 1189.62988281 455.794921875 1182.39941406 390 c 0
 1172.39941406 298 1151.39941406 232 1118.39941406 192 c 0
 1070.39941406 126 998.399414062 77 903.399414062 46 c 0xb0
EndSplineSet
Validated: 524289
EndChar

StartChar: k
Encoding: 107 107 74
Width: 1247
GlyphClass: 1
Flags: W
HStem: -0.102539 22.2852G<290.512 333.489 956.833 969.655> 1200.71 20G<387.653 418.002>
VStem: 84 534.936<1016 1171.68>
LayerCount: 2
Fore
SplineSet
1061.93554688 799 m 0
 1007.93554688 735 944.935546875 666 873.935546875 592 c 1
 987.935546875 534 1077.93554688 481 1145.93554688 435 c 0
 1157.33984375 426.950195312 1163.34375 410.349609375 1163.34375 385.500976562 c 0
 1163.34375 373.30859375 1161.8984375 359.12890625 1158.93554688 343 c 0
 1149.93554688 294 1133.93554688 244 1111.93554688 192 c 0
 1089.93554688 140 1062.93554688 93 1032.93554688 54 c 0
 1006.21191406 19.259765625 981.076171875 1.1826171875 958.233398438 1.1826171875 c 0
 955.432617188 1.1826171875 952.666015625 1.4541015625 949.935546875 2 c 0
 922.935546875 8 874.935546875 28 805.935546875 61 c 0
 736.935546875 94 664.935546875 130 586.935546875 171 c 1
 576.935546875 99 565.935546875 56 555.935546875 42 c 0
 543.935546875 20 487.935546875 8 388.935546875 2 c 0
 365.43359375 0.58984375 343.588867188 -0.1025390625 323.388671875 -0.1025390625 c 0
 257.634765625 -0.1025390625 209.299804688 7.23046875 177.935546875 21 c 0
 159.935546875 29 144.935546875 84 130.935546875 186 c 0
 116.935546875 288 105.935546875 404 98.935546875 531 c 0
 90.935546875 658 86.935546875 781 84.935546875 899 c 0
 84.330078125 934.727539062 84 966.879882812 84 995.45703125 c 0
 84 1061.26367188 85.7529296875 1108.11132812 89.935546875 1136 c 0
 93.935546875 1161 123.935546875 1180 177.935546875 1194 c 0
 231.935546875 1208 288.935546875 1218 351.935546875 1220 c 0
 366.434570312 1220.45996094 380.668945312 1220.70898438 394.637695312 1220.70898438 c 0
 441.3671875 1220.70898438 485.1328125 1217.92871094 525.935546875 1211 c 0
 577.935546875 1202 605.935546875 1188 607.935546875 1168 c 0
 609.935546875 1146 612.935546875 1122 614.935546875 1097 c 0
 616.935546875 1073 617.935546875 1046 618.935546875 1016 c 1
 680.935546875 1068 737.935546875 1111 789.935546875 1143 c 0
 832.512695312 1169.71484375 863.2421875 1182.49121094 881.540039062 1182.49121094 c 0
 885.16015625 1182.49121094 888.29296875 1181.99121094 890.935546875 1181 c 0
 932.935546875 1162 984.935546875 1120 1047.93554688 1055 c 0
 1109.02636719 991.970703125 1140.02636719 949.627929688 1140.02636719 927.970703125 c 0
 1140.02636719 927.293945312 1139.99609375 926.63671875 1139.93554688 926 c 0
 1140.00683594 925.25 1140.04296875 924.473632812 1140.04296875 923.669921875 c 0
 1140.04296875 901.971679688 1114.00683594 860.713867188 1061.93554688 799 c 0
EndSplineSet
Validated: 524289
EndChar

StartChar: l
Encoding: 108 108 75
Width: 1092
GlyphClass: 1
Flags: W
HStem: 0.810547 1228.19<163.935 557.99> 1 504.91<589.558 936.919>
VStem: 84 496.36<527.348 1197.84>
LayerCount: 2
Fore
SplineSet
577.360351562 1040 m 0xa0
 578.360351562 972 579.360351562 902 580.360351562 828 c 0
 581.360351562 754 582.360351562 687 584.360351562 628 c 0
 585.360351562 568 587.360351562 534 589.360351562 527 c 0
 593.360351562 515 611.360351562 508 643.360351562 507 c 0
 655.201171875 506.236328125 667.771484375 505.91015625 680.959960938 505.91015625 c 0
 702.299804688 505.91015625 725.256835938 506.763671875 749.360351562 508 c 0
 788.360351562 510 826.360351562 513 862.360351562 515 c 0
 874.360351562 515.666992188 885.137695312 516 894.693359375 516 c 0
 913.8046875 516 928.02734375 514.666992188 937.360351562 512 c 0
 956.360351562 506 972.360351562 478 984.360351562 429 c 0
 996.360351562 379 1003.36035156 326 1007.36035156 269 c 0
 1008.2890625 251.043945312 1008.73828125 233.567382812 1008.73828125 216.5703125 c 0
 1008.73828125 178.663085938 1006.50292969 143.139648438 1002.36035156 110 c 0
 996.360351562 61 984.360351562 35 966.360351562 31 c 0
 939.360351562 24 884.360351562 18 803.360351562 12 c 0
 721.360351562 6 635.360351562 2 545.360351562 1 c 0x60
 533.928710938 0.873046875 522.578125 0.810546875 511.311523438 0.810546875 c 0
 433.880859375 0.810546875 360.453125 3.76171875 292.360351562 9 c 0
 214.360351562 15 167.360351562 28 149.360351562 47 c 0
 131.360351562 66 118.360351562 129 108.360351562 234 c 0
 98.3603515625 339 91.3603515625 454 88.3603515625 580 c 0
 85.3046875 676.255859375 84 769.009765625 84 858.26171875 c 0
 84 885.841796875 84.1240234375 913.087890625 84.3603515625 940 c 0
 85.3603515625 1054 87.3603515625 1128 91.3603515625 1165 c 0
 93.3603515625 1187 118.360351562 1203 168.360351562 1213 c 0
 218.360351562 1223 273.360351562 1228 331.360351562 1229 c 0
 389.360351562 1229 443.360351562 1225 493.360351562 1216 c 0
 542.360351562 1207 568.360351562 1195 570.360351562 1180 c 0
 572.360351562 1155 575.360351562 1108 577.360351562 1040 c 0xa0
EndSplineSet
Validated: 524289
EndChar

StartChar: m
Encoding: 109 109 76
Width: 1723
GlyphClass: 1
Flags: W
HStem: 0.845703 21G<332.477 352.388> 0.845703 21G<332.477 352.388> 1206.15 20.8477G<305.75 356.75 1352.23 1378.02>
VStem: 1185.25 413<17.4844 340.005>
LayerCount: 2
Fore
SplineSet
1014.25 1019 m 0xb0
 1063.25 1090 1106.25 1144 1144.25 1180 c 0
 1161.25 1196 1193.25 1209 1241.25 1216 c 0
 1284.34960938 1222.28515625 1329.0625 1226.15234375 1375.38769531 1226.15234375 c 0
 1380.65429688 1226.15234375 1385.94140625 1226.10253906 1391.25 1226 c 0
 1443.25 1225 1491.25 1221 1533.25 1214 c 0
 1575.25 1207 1600.25 1197 1606.25 1183 c 0
 1616.25 1160 1624.25 1090 1630.25 976 c 0
 1636.25 861 1639.25 737 1639.25 603 c 0
 1639.25 469 1635.25 346 1629.25 232 c 0
 1623.25 118 1612.25 51 1598.25 30 c 0
 1587.25 17 1533.25 9 1435.25 6 c 0
 1402.58300781 4.6669921875 1373.13867188 4 1346.95410156 4 c 0
 1294.58300781 4 1255.25 6.6669921875 1229.25 12 c 0
 1213.25 15 1199.25 61 1185.25 150 c 0
 1171.25 239 1163.25 330 1158.25 421 c 1
 1148.25 410 1128.25 390 1101.25 361 c 0
 1073.25 332 1043.25 302 1012.25 272 c 0
 981.25 242 951.25 214 922.25 191 c 0
 892.25 168 871.25 156 857.25 156 c 0
 843.25 156 822.25 168 794.25 190 c 0
 766.25 212 737.25 237 707.25 267 c 0
 677.25 296 648.25 324 622.25 352 c 0
 596.25 380 577.25 400 567.25 410 c 1
 561.25 324 551.25 237 538.25 150 c 0
 525.25 63 512.25 17 497.25 12 c 0
 477.25 6 448.25 3 409.25 2 c 0
 386.733398438 1.4228515625 363.883789062 0.845703125 340.892578125 0.845703125 c 0
 324.061523438 0.845703125 307.15625 1.154296875 290.25 2 c 0
 250.25 4 214.25 7 183.25 13 c 0
 151.25 18 133.25 24 129.25 30 c 0
 115.25 50 103.25 118 96.25 234 c 0
 89.25 350 85.25 476 84.25 611 c 0
 84.0830078125 633.333007812 84 655.444335938 84 677.319335938 c 0
 84 786.694335938 86.0830078125 890.166992188 90.25 986 c 0
 95.25 1100 103.25 1166 114.25 1184 c 0
 122.25 1197 148.25 1208 190.25 1215 c 0
 232.25 1222 280.25 1226 331.25 1227 c 0
 382.25 1227 432.25 1223 479.25 1216 c 0
 526.25 1209 558.25 1196 575.25 1180 c 0
 613.25 1144 657.25 1090 707.25 1019 c 0
 757.25 948 808.25 872 860.25 794 c 1
 913.25 872 964.25 948 1014.25 1019 c 0xb0
EndSplineSet
Validated: 524289
EndChar

StartChar: n
Encoding: 110 110 77
Width: 1356
GlyphClass: 1
Flags: W
HStem: 1.53516 21G<338.304 380.775> 1204.77 20G<318.968 342.001 1048.33 1075.9>
VStem: 133.25 396<23.2507 268.418>
LayerCount: 2
Fore
SplineSet
1185.25 14 m 0
 1153.25 8 1117.25 4 1079.25 3 c 0
 1068.359375 2.44140625 1057.625 2.1953125 1047.046875 2.1953125 c 0
 1019.7421875 2.1953125 993.4765625 3.837890625 968.25 6 c 0
 932.25 9 908.25 14 895.25 20 c 0
 877.25 28 850.25 49 816.25 83 c 0
 782.25 117 746.25 155 710.25 195 c 0
 674.25 235 640.25 274 610.25 310 c 0
 580.25 345 562.25 369 554.25 380 c 1
 546.25 285 538.25 203 529.25 135 c 0
 520.25 67 510.25 30 496.25 24 c 0
 464.923828125 9.5419921875 414.888671875 1.53515625 346.661132812 1.53515625 c 0
 329.946289062 1.53515625 312.140625 2.0166015625 293.25 3 c 0
 196.25 7 143.25 20 133.25 42 c 1
 121.25 58 111.25 111 103.25 202 c 0
 94.25 293 88.25 399 86.25 517 c 0
 84.75 576 84 635.5 84 695.5 c 0
 84 755.5 84.75 816 86.25 877 c 0
 89.25 999 97.25 1098 109.25 1175 c 0
 111.25 1190 130.25 1202 166.25 1210 c 0
 201.25 1218 243.25 1222 289.25 1224 c 0
 301.133789062 1224.51660156 313.017578125 1224.76660156 324.918945312 1224.76660156 c 0
 359.083984375 1224.76660156 393.392578125 1222.70800781 428.25 1219 c 0
 474.25 1213 510.25 1205 535.25 1195 c 0
 572.25 1178 619.25 1134 674.25 1063 c 0
 729.25 991 769.25 937 794.25 900 c 1
 792.25 957 791.25 1008 789.25 1052 c 0
 788.25 1074 787.75 1093 787.75 1109.125 c 0
 787.75 1125.25 788.25 1138.5 789.25 1149 c 0
 790.25 1175 814.25 1194 862.25 1208 c 0
 910.25 1221 963.25 1228 1021.25 1230 c 0
 1032.22753906 1230.38476562 1043.01855469 1230.58496094 1053.63964844 1230.58496094 c 0
 1098.16699219 1230.58496094 1139.68652344 1227.07421875 1179.25 1219 c 0
 1227.25 1209 1253.25 1194 1255.25 1175 c 0
 1263.25 1097 1269.25 996 1271.25 874 c 0
 1272.25 813 1272.75 752.25 1272.75 692 c 0
 1272.75 631.75 1272.25 572 1271.25 513 c 0
 1269.25 395 1265.25 289 1259.25 199 c 0
 1253.25 109 1249.25 56 1243.25 42 c 0
 1237.25 29 1217.25 20 1185.25 14 c 0
EndSplineSet
Validated: 524289
EndChar

